<svg width="205" height="23" viewBox="0 0 205 23" fill="none" xmlns="http://www.w3.org/2000/svg">
<path d="M16.5373 0.463977H2.9352L0 22.5692H6.04937L7.19482 13.9524H14.0675L14.7118 9.08069H7.83913L8.34026 5.33573H15.893L16.5373 0.463977Z" fill="#170710"/>
<path d="M40.5427 0.463977H34.4933L32.8468 13.0576C32.3814 16.5375 31.2002 17.6974 28.1934 17.6974C25.5446 17.6974 24.2201 16.5375 24.2201 14.2176C24.2201 13.5548 24.2559 13.0245 24.3275 12.3948L25.9025 0.463977H19.8889L18.314 12.3948C18.135 13.6542 18.0276 14.8473 18.0276 15.4438C18.0276 20.1499 21.7861 23 27.9786 23C31.4866 23 34.4218 22.1052 36.1399 20.5144C37.6791 19.1225 38.2876 17.4323 38.8604 13.2565L40.5427 0.463977Z" fill="#170710"/>
<path d="M53.8154 5.33573H58.8267L59.4711 0.463977H43.2917L42.6474 5.33573H47.7661L45.4752 22.5692H51.5245L53.8154 5.33573Z" fill="#170710"/>
<path d="M82.8397 0.463977H76.7903L75.1437 13.0576C74.6784 16.5375 73.4972 17.6974 70.4904 17.6974C67.8415 17.6974 66.5171 16.5375 66.5171 14.2176C66.5171 13.5548 66.5529 13.0245 66.6245 12.3948L68.1995 0.463977H62.1859L60.6109 12.3948C60.4319 13.6542 60.3246 14.8473 60.3246 15.4438C60.3246 20.1499 64.083 23 70.2756 23C73.7835 23 76.7187 22.1052 78.4369 20.5144C79.9761 19.1225 80.5846 17.4323 81.1573 13.2565L82.8397 0.463977Z" fill="#170710"/>
<path d="M98.976 13.9856C102.412 12.8588 104.059 10.7046 104.059 7.32421C104.059 2.6513 101.374 0.463977 95.6113 0.463977H87.8437L84.9085 22.5692H90.9579L92.1033 13.7867L97.8306 22.5692H104.846L98.976 13.9856ZM93.2846 4.87176H94.43C96.9715 4.87176 97.8663 5.53458 97.8663 7.45677C97.8663 9.57781 96.5061 10.572 93.6067 10.572H92.5329L93.2846 4.87176Z" fill="#170710"/>
<path d="M123.386 0.463977H110.321L107.385 22.5692H120.737L121.381 17.6974H114.079L114.58 14.0187H121.381L122.026 9.14697H115.224L115.726 5.33573H122.741L123.386 0.463977Z" fill="#170710"/>
<path d="M137.682 10.2738L137.11 14.6816H142.622C142.121 16.7695 140.081 18.1282 137.467 18.1282C133.781 18.1282 131.168 15.5764 131.168 11.964C131.168 7.92075 134.067 4.77233 137.79 4.77233C140.474 4.77233 142.264 5.89913 143.481 8.38472L148.707 6.49568C146.738 2.18732 143.195 0.0331411 138.004 0.0331411C130.452 0.0331411 124.975 5.13689 124.975 12.1628C124.975 18.5259 129.879 23 136.787 23C142.049 23 146.273 20.5144 147.991 16.4049C148.743 14.549 149.101 12.6931 149.137 10.2738H137.682Z" fill="#170710"/>
<path d="M165.493 0C157.547 0 151.963 4.87176 151.963 11.7983C151.963 18.4928 157.225 23 164.992 23C172.688 23 177.95 18.062 177.95 10.8703C177.95 4.40778 172.903 0 165.493 0ZM165.171 5.30259C169.144 5.30259 171.758 7.75504 171.758 11.4669C171.758 15.1124 168.894 17.6974 164.849 17.6974C160.84 17.6974 158.155 15.245 158.155 11.5994C158.155 7.98703 161.126 5.30259 165.171 5.30259Z" fill="#170710"/>
<path d="M205 0.463977H198.235L192.114 11.5663C191.541 12.5605 191.147 13.4222 190.754 14.5821C190.575 12.7925 190.467 12.196 190.038 10.5389L187.281 0.463977H180.838L187.102 22.5692H192.185L205 0.463977Z" fill="#170710"/>
</svg>
