<svg width="208" height="41" viewBox="0 0 208 41" fill="none" xmlns="http://www.w3.org/2000/svg">
<path d="M207.812 32.8817C206.351 32.8817 204.816 32.8817 203.282 32.8817C203.282 32.5164 203.282 32.2241 203.282 31.9318C203.282 28.7167 203.282 25.4285 203.282 22.2134C203.282 21.9211 203.282 21.7019 203.282 21.4097C203.209 18.4868 201.966 17.1716 199.336 17.1716C196.486 17.1716 194.367 19.0714 194.294 21.7019C194.221 25.0632 194.294 28.4975 194.294 31.8587C194.294 32.151 194.294 32.5164 194.294 32.8817C192.76 32.8817 191.298 32.8817 189.764 32.8817C189.764 26.8169 189.764 20.6789 189.764 14.541C191.152 14.541 192.54 14.541 193.929 14.541C193.929 15.3448 193.929 16.1486 193.929 17.2446C196.048 14.6141 198.605 13.6642 201.601 13.9565C204.743 14.2487 207.008 15.6371 207.812 18.9253C207.812 23.5287 207.812 28.2052 207.812 32.8817Z" fill="#170710"/>
<path d="M116.108 32.8817C114.501 32.8817 113.04 32.8817 111.578 32.8817C111.578 26.7438 111.578 20.6789 111.578 14.4679C112.966 14.4679 114.355 14.4679 115.889 14.4679C115.889 15.1986 115.889 16.0024 115.889 16.7331C115.962 16.8062 116.035 16.8062 116.035 16.8793C117.57 14.8333 119.689 13.8834 122.173 13.8834C124.658 13.8834 126.777 14.4679 128.165 16.8793C129.407 15.4178 130.869 14.3949 132.769 14.1026C134.449 13.8103 136.13 13.8834 137.81 14.3218C139.929 14.9063 141.318 16.3678 141.391 18.5599C141.537 23.3095 141.464 28.059 141.464 32.8817C140.076 32.8817 138.614 32.8817 137.007 32.8817C137.007 32.5163 137.007 32.151 137.007 31.7856C137.007 28.059 137.007 24.3324 136.934 20.6789C136.861 18.4137 135.984 17.4638 134.011 17.2446C131.599 16.9523 129.773 17.9753 129.188 19.9482C128.969 20.752 128.896 21.5558 128.896 22.3595C128.896 25.8669 128.896 29.3743 128.896 32.9548C127.361 32.9548 125.9 32.9548 124.292 32.9548C124.292 32.6625 124.292 32.3702 124.292 32.0048C124.292 28.3513 124.292 24.7709 124.292 21.1173C124.292 19.729 124.146 18.3407 122.758 17.61C121.296 16.8793 119.762 16.9523 118.301 17.8292C116.766 18.7791 116.182 20.2405 116.182 21.9942C116.182 25.2824 116.182 28.5705 116.182 31.9318C116.108 32.151 116.108 32.4433 116.108 32.8817Z" fill="#170710"/>
<path d="M86.0038 15.8562C84.5423 15.8562 83.0079 15.8562 81.5465 15.8562C81.4003 15.8562 81.108 15.637 81.035 15.4909C79.9389 12.3489 77.6007 10.9605 74.3856 10.9605C71.1705 10.9605 68.613 12.2027 67.0054 15.1255C65.0325 18.8521 65.544 24.2593 68.0284 27.3283C70.8051 30.6895 77.966 31.2741 80.3773 26.3784C80.8158 25.5015 81.035 24.4785 81.4003 23.4556C82.8617 23.4556 84.3962 23.4556 86.0038 23.4556C85.8576 25.94 84.9808 28.059 83.3732 29.8858C81.6195 31.8587 79.3543 32.9547 76.7238 33.3201C72.5588 33.9777 68.6861 33.3201 65.3248 30.5434C61.2329 27.2552 59.7715 21.2634 61.5252 15.9293C63.2058 10.9605 67.59 7.67234 72.9241 7.38006C75.7739 7.23392 78.5506 7.59927 81.1811 8.98761C84.1039 10.449 85.9307 13.0796 86.0038 15.8562Z" fill="#170710"/>
<path d="M159.806 16.66C159.806 13.4449 159.806 10.4491 159.806 7.3801C161.34 7.3801 162.801 7.3801 164.336 7.3801C164.336 15.8563 164.336 24.3324 164.336 32.8817C162.948 32.8817 161.632 32.8817 160.098 32.8817C160.098 32.151 160.098 31.4203 160.098 30.4704C157.76 33.3932 154.764 33.7585 151.549 33.3201C147.164 32.6625 144.242 29.5205 143.949 24.9901C143.876 23.5287 143.876 22.0673 144.168 20.6789C145.118 16.2947 148.845 13.6642 153.302 13.9564C155.86 14.0295 157.979 14.6871 159.806 16.66ZM160.025 23.6017C159.952 22.871 159.879 22.2134 159.733 21.6288C159.221 18.9252 157.248 17.2446 154.618 17.1715C151.695 17.0254 149.576 18.4868 148.845 21.1904C148.553 22.3595 148.407 23.5287 148.48 24.6978C148.626 27.8398 150.745 29.8858 153.668 30.1781C156.517 30.3973 158.856 28.7167 159.586 25.7939C159.879 25.0632 159.952 24.2594 160.025 23.6017Z" fill="#170710"/>
<path d="M102.007 31.2742C98.6454 33.3933 95.1381 34.0509 91.4845 32.8087C88.5617 31.8588 87.3195 29.5205 87.9041 26.5977C88.2694 24.9171 89.2924 23.6749 90.9 23.2365C92.9459 22.6519 95.1381 22.3596 97.2571 21.9943C98.2801 21.7751 99.3031 21.702 100.326 21.4828C101.203 21.2636 101.861 20.7521 101.934 19.7291C102.007 18.8523 101.568 18.0485 100.618 17.6101C98.6454 16.8063 96.6725 16.8063 94.7727 17.6831C93.8228 18.1215 93.5305 18.633 93.0921 20.0214C91.6307 20.0214 90.1693 20.0214 88.6348 20.0214C88.7809 17.8293 89.7308 16.1486 91.6307 15.2718C95.5765 13.372 99.6684 13.2989 103.614 15.1257C105.441 15.9294 106.318 17.4639 106.318 19.583C106.318 22.4327 106.318 25.2825 106.318 28.0591C106.318 30.1782 106.318 30.2512 108.51 30.1782C108.51 30.9819 108.51 31.7857 108.51 32.5895C108.51 32.7356 108.291 33.0279 108.145 33.0279C106.902 33.1741 105.733 33.3933 104.491 33.3202C103.176 33.2471 102.299 32.5164 102.007 31.2742ZM101.568 23.9672C99.9607 24.1864 98.4262 24.4056 96.8918 24.6979C95.7226 24.9171 94.6266 25.1363 93.5305 25.6478C92.5806 26.0132 92.2883 26.9631 92.2883 27.9861C92.3614 28.936 92.9459 29.4475 93.7497 29.7398C95.9418 30.5435 98.0609 30.3974 100.034 29.2283C100.838 28.7898 101.422 28.0591 101.422 27.1092C101.641 26.0132 101.568 24.9171 101.568 23.9672Z" fill="#170710"/>
<path d="M186.914 24.6978C184.357 24.6978 181.872 24.6978 179.315 24.6978C176.831 24.6978 174.273 24.6978 171.789 24.6978C171.57 26.8899 173.031 29.1551 175.15 29.8127C178.146 30.7626 180.776 29.8127 182.311 27.1091C183.699 27.1091 185.088 27.1091 186.622 27.1091C186.33 28.5705 185.599 29.7396 184.576 30.7626C180.776 34.4161 173.25 34.3431 169.67 30.4703C166.82 27.4014 166.528 23.6748 167.916 19.9482C169.231 16.2947 172.081 14.3218 175.954 13.9564C180.192 13.518 183.699 14.9063 185.891 18.706C186.841 20.5328 187.134 22.5057 186.914 24.6978ZM182.238 21.9942C182.092 18.9983 179.68 16.9523 176.684 17.1715C173.908 17.3907 171.643 19.5828 171.862 21.9942C175.296 21.9942 178.73 21.9942 182.238 21.9942Z" fill="#170710"/>
<path fill-rule="evenodd" clip-rule="evenodd" d="M46.692 33.9048H35.2199V32.6626H38.5812C38.5812 32.6626 40.4079 32.3703 39.5311 30.6897C39.458 30.6166 39.1657 30.5435 39.1657 30.5435H34.4162L27.6206 33.7586V40.9926H40.9194C40.9194 40.9926 46.1805 39.8235 46.692 33.9048Z" fill="#170710"/>
<path fill-rule="evenodd" clip-rule="evenodd" d="M6.35742 33.9048H17.8295V32.6626H14.4682C14.4682 32.6626 12.6415 32.3703 13.5183 30.6897C13.5914 30.6166 13.8837 30.5435 13.8837 30.5435H18.6333L25.4288 33.7586V40.9926H12.13C12.13 40.9926 6.86892 39.8235 6.35742 33.9048Z" fill="#170710"/>
<path fill-rule="evenodd" clip-rule="evenodd" d="M19.0714 29.082H7.52626V30.3242H10.8875C10.8875 30.3242 12.7143 30.6165 11.8374 32.2971C11.7643 32.3702 11.4721 32.4433 11.4721 32.4433H6.79555L0 29.2282V21.9942H13.2988C13.2988 21.9942 18.4868 23.1633 19.0714 29.082Z" fill="#170710"/>
<path fill-rule="evenodd" clip-rule="evenodd" d="M46.692 7.08783H35.2199V8.33003H38.5812C38.5812 8.33003 40.4079 8.62231 39.5311 10.3029C39.458 10.376 39.1657 10.4491 39.1657 10.4491H34.4162L27.6206 7.23397V0H40.9194C40.9194 0 46.1805 1.16913 46.692 7.08783Z" fill="#170710"/>
<path fill-rule="evenodd" clip-rule="evenodd" d="M6.35742 7.08783H17.8295V8.33003H14.4682C14.4682 8.33003 12.6415 8.62231 13.5183 10.3029C13.5914 10.376 13.8837 10.4491 13.8837 10.4491H18.6333L25.4288 7.23397V0H12.13C12.13 0 6.86892 1.16913 6.35742 7.08783Z" fill="#170710"/>
<path fill-rule="evenodd" clip-rule="evenodd" d="M19.0714 11.9104H7.52626V10.6682H10.8875C10.8875 10.6682 12.7143 10.3759 11.8374 8.6953C11.7643 8.62223 11.4721 8.54916 11.4721 8.54916H6.79555L0 11.7643V18.9982H13.2988C13.2988 18.9982 18.4868 17.8291 19.0714 11.9104Z" fill="#170710"/>
<path fill-rule="evenodd" clip-rule="evenodd" d="M34.27 11.9104H45.7421V10.6682H42.3808C42.3808 10.6682 40.5541 10.3759 41.4309 8.6953C41.504 8.62223 41.7963 8.54916 41.7963 8.54916H46.5459L53.3414 11.7643V18.9982H40.1157C40.1157 18.9982 34.8546 17.8291 34.27 11.9104Z" fill="#170710"/>
<path fill-rule="evenodd" clip-rule="evenodd" d="M34.27 29.082H45.7421V30.3242H42.3808C42.3808 30.3242 40.5541 30.6165 41.4309 32.2971C41.504 32.3702 41.7963 32.4433 41.7963 32.4433H46.5459L53.3414 29.2282V21.9942H40.1157C40.1157 21.9942 34.8546 23.1633 34.27 29.082Z" fill="#170710"/>
</svg>
