<svg width="226" height="41" viewBox="0 0 226 41" fill="none" xmlns="http://www.w3.org/2000/svg">
<path fill-rule="evenodd" clip-rule="evenodd" d="M39.1154 17.7286C39.1154 10.0162 34.8322 3.32986 28.5662 0V13.3339H10.5492V0C4.28205 3.32986 0 10.0173 0 17.7286C0 25.4421 4.28096 32.1307 10.5492 35.4594V22.1256H28.5662V35.4594C34.8322 32.1307 39.1154 25.4421 39.1154 17.7286ZM45.6346 1.10811H55.2603V12.3332H64.2568V1.10811H73.8846V33.2432H64.2557V20.5775H55.2613V33.2432H45.6346V1.10811ZM98.8913 17.9347C98.8913 13.4668 98.9782 8.86486 87.9336 8.86486C82.4552 8.86486 76.3076 9.9375 76.0414 16.4609H84.2361C84.2828 15.4492 84.8163 14.053 87.5337 14.053C88.9571 14.053 90.4272 14.637 90.4272 16.2138C90.4272 17.6987 89.2244 18.0588 88.0227 18.2849C83.5222 19.1403 74.9712 18.87 74.9712 26.2499C74.9712 31.1112 78.6676 33.2432 83.1245 33.2432C85.9734 33.2432 88.6876 32.6182 90.5586 30.4896H90.6499C90.6032 31.068 90.739 32.0077 90.9607 32.6326H99.9615C98.9782 31.1555 98.8913 29.1875 98.8913 27.4456V17.9347ZM90.4272 24.3639C90.2935 26.7763 88.7365 27.983 86.7297 27.983C85.1292 27.983 83.9699 26.9082 83.9699 25.8377C83.9699 24.2742 84.9956 23.7833 86.9535 23.3378C88.1552 23.0708 89.358 22.7561 90.4272 22.222V24.3639ZM116.161 18.2616C116.068 17.3219 115.752 16.5629 115.161 16.0842C114.618 15.5933 113.849 15.3262 112.897 15.3262C109.454 15.3262 108.953 18.2694 108.953 21.0784C108.953 23.8875 109.454 26.7818 112.897 26.7818C114.844 26.7818 116.204 25.2205 116.386 23.3966H124.952C124.089 29.705 119.061 33.2432 112.715 33.2432C105.638 33.2432 99.9615 28.4096 99.9615 21.0729C99.9615 13.7427 105.638 8.86486 112.715 8.86486C118.877 8.86486 124.136 11.8634 124.679 18.2616H116.161ZM124.952 1.10811H133.912V16.6393L139.603 9.90204H149.718L141.363 18.706L151.029 33.2432H140.28L135.492 24.7673L133.912 26.4793V33.2432H124.952V1.10811ZM151.029 9.47653H159.497V12.4861H159.584C161.216 10.1037 163.556 8.86486 167.041 8.86486C171.162 8.86486 174.933 11.4778 174.933 16.9385V33.2432H166.153V20.7837C166.153 18.0378 165.844 16.113 163.289 16.113C161.79 16.113 159.806 16.8909 159.806 20.6939V33.2432H151.029V9.47653ZM201.01 23.0098C201.01 13.9721 197.101 8.86486 188.054 8.86486C180.85 8.86486 176.019 14.3278 176.019 21.0917C176.019 28.8795 181.512 33.2432 188.8 33.2432C193.982 33.2432 198.77 30.9273 200.528 25.943H192.401C191.706 27.0522 190.166 27.5985 188.761 27.5985C186.036 27.5985 184.543 25.687 184.321 23.0098H201.01ZM184.369 18.419C184.762 15.9002 186.254 14.5062 188.843 14.5062C191.084 14.5062 192.663 16.2593 192.663 18.419H184.369ZM218.345 31.6054C217.633 33.682 216.833 36.3448 215.453 38.11C213.14 41.0454 209.58 41 206.152 41H202.148V33.8615H204.193C205.084 33.8615 206.24 33.9535 206.866 33.6366C207.398 33.3673 207.709 32.9141 207.709 31.8769C207.709 30.7466 204.328 22.1222 203.839 20.767L199.923 9.97296H209.355L213.051 23.4309H213.14L216.877 9.97296H226L218.345 31.6054Z" fill="#170710"/>
</svg>
