<?xml version="1.0" encoding="UTF-8"?>
<svg width="703px" height="314px" viewBox="0 0 703 314" version="1.1" xmlns="http://www.w3.org/2000/svg" xmlns:xlink="http://www.w3.org/1999/xlink">
    <!-- Generator: Sketch 64 (93537) - https://sketch.com -->
    <title>Artboard</title>
    <desc>Created with Sketch.</desc>
    <g id="Artboard" stroke="none" stroke-width="1" fill="none" fill-rule="evenodd">
        <path d="M379.870061,219.963017 C389.35112,219.963017 397.237067,223.026125 403.527902,229.134324 C409.854582,235.242522 413,242.891284 413,252.107637 C413,261.296962 409.827699,268.918696 403.456212,274.954821 C397.093686,280.990946 389.028513,284 379.350305,284 C370.120163,284 362.413442,280.981937 356.230143,274.954821 C350.046843,268.918696 347,261.351016 347,252.27881 C347,242.999394 350.046843,235.251531 356.230143,229.215406 C362.413442,223.089189 370.209776,220.026081 379.708758,220.026081 L379.870061,219.963017 Z M217,220.963595 L217,256.295244 C217,261.056437 216.641286,264.685725 215.923858,267.111238 C215.20643,269.626586 214.399323,271.60293 213.323181,273.219939 C212.247039,274.836948 211.081218,276.27429 209.556684,277.621797 C204.714044,281.933822 198.34687,284 190.455161,284 C182.473773,284 176.01692,281.933822 171.174281,277.711631 C169.739425,276.453958 168.483926,274.926782 167.497462,273.399607 C166.510998,271.782598 165.614213,269.806253 164.986464,267.470574 C164.358714,265.134894 164,261.451706 164,256.421011 L164,221.017495 L172.788494,221.017495 L172.788494,256.322194 C172.788494,262.161394 173.416244,266.230867 174.761421,268.539596 C176.106599,270.785442 178.079526,272.645003 180.769882,274.01946 C183.460237,275.402902 186.598985,276.085639 190.275804,276.085639 C195.477157,276.085639 199.692047,274.711181 203.010152,271.953282 C204.714044,270.453057 205.969543,268.719264 206.713875,266.689019 C207.431303,264.658774 207.825888,261.209155 207.825888,256.304227 L207.825888,220.999529 L208.175635,220.963595 L217,220.963595 Z M559.532231,220.963595 L575.955372,242.334575 L592.557025,220.963595 L603,220.963595 L580.418182,250.168512 L580.418182,282.999422 L571.492562,282.999422 L571.492562,250.168512 L549,220.963595 L559.532231,220.963595 Z M547,220.972535 L547,228.857764 L525.690559,228.857764 L525.690559,282.999422 L516.952797,282.999422 L516.952797,228.857764 L496,228.857764 L496,220.972535 L547,220.972535 Z M486.91,220.963595 L486.91,282.999422 L478.09,282.999422 L478.09,220.963595 L486.91,220.963595 Z M336,220.963595 L336,282.999422 L327.221361,282.999422 L327.221361,255.982954 L292.778639,255.982954 L292.778639,282.981519 L284,282.981519 L284,220.972547 L292.778639,220.972547 L292.778639,247.783124 L327.221361,247.783124 L327.221361,220.963595 L336,220.963595 Z M275,220.963595 L275,228.857764 L253.725459,228.857764 L253.725459,282.999422 L244.926509,282.999422 L244.926509,228.857764 L224,228.857764 L224,220.963595 L275,220.963595 Z M126.332288,219.963017 L126.341245,219.97206 L132.503359,219.97206 L160,282.999422 L150.9897,282.999422 L142.821317,264.398664 L116.668159,264.398664 L109.019257,282.990379 L100,282.990379 L126.332288,219.963017 Z M438.834213,220.963595 C445.110023,220.963595 450.074604,222.5127 453.755087,225.619864 C457.426526,228.727028 459.253203,232.926624 459.253203,238.245516 C459.253203,241.84517 458.348907,244.961288 456.558402,247.593871 C454.749812,250.190636 452.17257,252.160596 448.808591,253.50375 C450.798041,254.757361 452.715147,256.548234 454.614167,258.786824 C456.513188,261.025415 459.162773,264.965335 462.590053,270.51704 C464.669932,274.009242 466.388093,276.695551 467.744537,278.486423 L471,282.874061 L460.419744,282.874061 L457.706858,278.755054 C457.616428,278.575967 457.435569,278.307336 457.16428,277.949161 L455.446119,275.531483 L452.642803,270.964758 L449.658628,266.129402 C447.759608,263.532637 446.131876,261.473133 444.594574,260.040435 C443.057272,258.518194 441.700829,257.44367 440.434815,256.727321 C439.168802,256.010972 437.088922,255.652797 434.195177,255.652797 L431.844009,255.652797 L431.844009,282.793472 L423.325,282.793017 L423.325546,220.963595 L438.834213,220.963595 Z M380.252632,228.968218 C373.178947,228.968218 367.377444,231.183783 362.839098,235.614914 C358.282707,240.081779 356,245.710029 356,252.589002 C356,259.2893 358.255639,264.828214 362.766917,269.295079 C367.278195,273.761944 373.052632,275.995377 379.909774,275.995377 C386.766917,275.995377 392.541353,273.761944 397.142857,269.205742 C401.744361,264.649539 404,259.110626 404,252.32099 C404,245.799367 401.654135,240.260454 397.052632,235.793588 C392.451128,231.326723 386.766917,229.09329 380.090226,229.09329 L380.252632,228.968218 Z M129.125704,233.971107 L120,256.984398 L138.982176,256.984398 L139,256.966046 L129.125704,233.971107 Z M435.623116,227.96764 L433,227.96764 L433,247.979197 L436.346734,247.979197 C440.869347,247.979197 443.944724,247.585737 445.572864,246.789667 C447.291457,246.011897 448.557789,244.822367 449.552764,243.239377 C450.547739,241.647237 451,239.835491 451,237.813289 C451,235.800238 450.547739,234.015943 449.462312,232.396352 C448.467337,230.840813 447.020101,229.651283 445.120603,229.010766 C443.221106,228.37025 440.145729,228.004241 435.80402,228.004241 L435.623116,227.96764 Z M203.595183,130.911588 C215.926733,130.911588 225.910423,134.681708 233.546254,142.211387 C241.182085,149.709385 245,158.474649 245,168.464939 C245,178.603077 241.129205,187.368342 233.387615,194.802976 C225.561417,202.227049 215.72579,205.954927 203.563456,205.954927 C191.295362,205.954927 181.248216,202.258731 173.633537,194.845218 C165.913099,187.452826 162,178.66644 162,168.464939 C162,158.432407 165.807339,149.667142 173.422018,142.169145 C181.036697,134.671147 191.083843,130.922148 203.457696,130.922148 L203.595183,130.911588 Z M470.552947,130.911588 C482.90023,130.911588 492.896657,134.681708 500.54223,142.211387 C508.187803,149.709385 512,158.474649 512,168.464939 C512,178.603077 508.134856,187.368342 500.383389,194.802976 C492.6531,202.227049 482.69903,205.954927 470.552947,205.954927 C458.29038,205.954927 448.293953,202.258731 440.584843,194.845218 C432.854555,187.452826 429,178.66644 429,168.464939 C429,158.432407 432.812197,149.667142 440.436591,142.169145 C448.060985,134.671147 458.120949,130.922148 470.510589,130.922148 L470.552947,130.911588 Z M541.490678,131.912166 L580.03223,176.559596 L580.03223,131.922706 L598,131.922706 L598,204.954349 L582.807053,204.954349 L542.96777,158.15676 L542.96777,204.954349 L525,204.954349 L525,131.912166 L541.490678,131.912166 Z M378.976471,131.912166 C391.311765,131.912166 401.052941,135.317076 408.252941,142.137439 C415.421176,148.936718 419,157.738887 419,168.554485 C419,179.876076 415.357647,188.762576 408.094118,195.256152 C400.82,201.686478 390.443529,204.954349 376.964706,204.954349 L347.021176,204.954349 L347.021176,131.922707 L347,131.912166 L378.976471,131.912166 Z M274.48115,131.912166 L313.010978,176.538516 L313.010978,131.922706 L330.989,131.922588 L330.989455,204.954349 L315.805287,204.954349 L275.989022,158.15676 L275.989022,204.954349 L258,204.954349 L258,131.912166 L274.48115,131.912166 Z M117.97489,131.912166 L117.97489,191.568552 L155,191.568552 L155,204.954349 L100,204.954349 L100,131.912166 L117.97489,131.912166 Z M470,145.920256 C463.110599,145.920256 457.599078,147.973178 453.359447,152.089658 C449.119816,156.206139 447,161.641596 447,168.396028 C447,175.097276 449.013825,180.628465 453.253456,184.670487 C457.387097,188.818879 463.004608,190.946259 469.894009,190.946259 L470.148387,190.871801 C476.995392,190.871801 482.528111,188.797605 486.725346,184.659851 C490.911982,180.532733 493,175.107913 493,168.385391 C493,161.641596 490.880184,156.206139 486.640553,152.110932 C482.400922,147.983815 476.889401,145.920256 470,145.920256 Z M376.422156,144.919678 L365,144.919678 L365,190.946259 L376.631737,190.946259 C384.208084,190.946259 389.982036,188.799399 393.995509,184.610404 C397.998503,180.316685 400,174.766266 400,167.95915 C400,160.837858 397.967066,155.182715 393.922156,151.098445 C389.835329,147.014175 384.040419,144.919678 376.422156,144.919678 Z M203.058551,145.920256 C196.138857,145.920256 190.560518,147.973178 186.344828,152.089658 C182.129137,156.206139 180,161.641596 180,168.396028 C180,175.097276 182.129137,180.628465 186.344828,184.670487 C190.560518,188.818879 196.138857,190.946259 203.058551,190.946259 L203.058551,190.871801 C209.935663,190.871801 215.49271,188.797605 219.697755,184.659851 C223.913446,180.532733 226,175.107913 226,168.385391 C226,161.641596 223.913446,156.206139 219.697755,152.110932 C215.49271,147.983815 209.935663,145.920256 203.058551,145.920256 Z M145.118019,30 C149.833848,30 154.280899,30.4892526 158.520258,31.5289145 C162.759617,32.6297329 168.098521,34.4644302 174.561406,37.2776328 L174.561406,49.6312616 C164.592193,43.7602301 154.684065,40.8247144 144.873676,40.8247144 C135.73523,40.8247144 128.038412,44.0048564 121.783219,50.3651406 C115.528027,56.7254247 112.40043,64.4311536 112.40043,73.6046404 C112.40043,83.2673797 115.528027,91.0954218 121.807653,97.2110796 C128.062846,103.326737 136.101746,106.384566 145.973221,106.384566 C150.762353,106.384566 156.47999,105.283748 163.150566,103.082111 L164.250112,102.715172 L164.250112,84.9675326 L148.135661,84.9675326 L148.135661,74.0816617 L176.235158,74.0816617 L176.235158,109.992804 C165.972733,114.518391 155.746959,116.781185 145.606706,116.781185 C131.764649,116.781185 120.683674,112.74485 112.412648,104.549869 C104.153839,96.3426562 100,86.1906642 100,74.2039748 C100,61.5323318 104.300445,51.001169 112.864683,42.5982551 C121.441138,34.18311 132.204467,30 145.118019,30 Z M364.147493,30.5993345 L401.654213,115.851605 L389.437041,115.851605 L378.319413,90.679557 L342.645269,90.679557 L332.126283,115.827142 L319.835807,115.827142 L355.743,30.599 L364.147493,30.5993345 Z M391.367354,30.9540426 L391.416223,30.9662739 L461.249582,30.9662739 L461.249582,41.7542944 L432.050539,41.7542944 L432.050539,115.827142 L420.07771,115.827142 L420.07771,41.7542944 L391.367354,41.7542944 L391.367354,30.9540426 Z M315.144413,31.0885871 L315.144413,41.8766075 L279.714612,41.8766075 L279.714612,67.7213775 L313.959347,67.7213775 L313.959347,78.5705545 L279.714612,78.5705545 L279.714612,104.904577 L316.305044,104.904577 L316.305044,115.668135 L267.741782,115.668135 L267.741782,31.0885871 L315.144413,31.0885871 Z M519.965315,31.0885871 L519.965315,41.8766075 L484.535514,41.8766075 L484.535514,67.7213775 L518.768032,67.7213775 L518.768032,78.5705545 L484.535514,78.5705545 L484.535514,104.904577 L521.101512,104.904577 L521.101512,115.668135 L472.562684,115.668135 L472.562684,31.0885871 L519.965315,31.0885871 Z M215.036899,31.0885871 C223.491183,31.0885871 230.186193,33.2046047 235.1708,37.4488712 C240.143189,41.6931378 242.623275,47.4296248 242.623275,54.6950263 C242.623275,59.6120152 241.401558,63.8685131 238.958123,67.4645199 C236.539123,71.0116014 233.045012,73.7024909 228.500223,75.5371882 C231.188001,77.2495724 233.778042,79.6958356 236.343648,82.7536645 C238.909255,85.8114934 242.488886,91.1932723 247.119195,98.776688 C250.026882,103.546901 252.372579,107.216296 254.119635,109.662559 L258.542251,115.655904 L244.284811,115.655904 L240.644093,110.029498 C240.521921,109.784872 240.277578,109.417933 239.911063,108.92868 L237.5898,105.503912 L233.887997,99.2659406 L229.85633,92.6610302 C227.412895,89.1384112 225.091632,86.4230592 223.014713,84.3437355 C220.937793,82.2644118 219.105218,80.796654 217.394813,79.8548427 C215.684409,78.9986506 212.874459,78.5093979 208.964964,78.5093979 L205.788499,78.5093979 L205.788499,115.545822 L194.072231,115.545822 L194.072231,31.0885871 L215.036899,31.0885871 Z M555.150772,31.0885871 C563.605056,31.0885871 570.324501,33.2046047 575.284673,37.4488712 C580.257063,41.6931378 582.737149,47.4296248 582.737149,54.6950263 C582.737149,59.6120152 581.515431,63.8685131 579.071997,67.4645199 C576.628562,71.0116014 573.158885,73.7024909 568.60188,75.5371882 C571.289658,77.2495724 573.891915,79.6958356 576.445305,82.7536645 C579.010911,85.8114934 582.590543,91.1932723 587.196417,98.776688 C590.128538,103.546901 592.449801,107.216296 594.221291,109.662559 L598.643908,115.655904 L584.410901,115.655904 L580.770184,110.029498 C580.648012,109.784872 580.403669,109.417933 580.037153,108.92868 L577.715891,105.503912 L574.026304,99.3882538 L569.994637,92.7833433 C567.526768,89.2362618 565.22994,86.5453723 563.201889,84.4660487 C561.149404,82.386725 559.292394,80.9189671 557.630859,79.9404619 C555.957106,79.0108819 553.17159,78.5950171 549.262095,78.5950171 L546.134499,78.5950171 L546.134499,115.545822 L534.198,115.545 L534.198321,31.0885871 L555.150772,31.0885871 Z M359.834831,49.2153969 L347.324446,79.8915366 L373.334807,79.8915366 L359.834831,49.2153969 Z M209.649126,41.3873549 L206.057277,41.3873549 L206.057277,68.1372422 L210.699803,68.1372422 C216.808389,68.1372422 220.962228,67.6112957 223.161319,66.5471712 C225.482582,65.5075094 227.192986,63.9174383 228.414703,61.8014207 C229.758592,59.6731718 230.369451,57.2513713 230.369451,54.5482505 C230.369451,51.8573611 229.758592,49.4722545 228.292532,47.3073117 C226.948642,45.227988 224.993895,43.637917 222.428289,42.7817249 C219.862682,41.9255328 215.708844,41.4362801 209.844601,41.4362801 L209.649126,41.3873549 Z M549.762999,41.3873549 L546.17115,41.3873549 L546.17115,68.1372422 L550.728156,68.1372422 C556.800091,68.1372422 560.95393,67.6112957 563.189672,66.5471712 C565.462066,65.5075094 567.221339,63.9174383 568.467491,61.8014207 C569.738077,59.6731718 570.361153,57.2513713 570.361153,54.5482505 C570.361153,51.8573611 569.652557,49.4722545 568.284233,47.3073117 C566.867041,45.227988 564.912293,43.637917 562.371122,42.7817249 C559.805515,41.9255328 555.627242,41.4362801 549.762999,41.4362801 L549.762999,41.3873549 Z" id="Combined-Shape" fill="#170710" fill-rule="nonzero"></path>
    </g>
</svg>