<svg width="222" height="99" viewBox="0 0 222 99" fill="none" xmlns="http://www.w3.org/2000/svg">
<path d="M81.8504 44.0077L76.3997 30H72.6245L67.1526 44.0077H70.5884L71.4792 41.6346H77.545L78.4145 44.0077H81.8504ZM76.7178 39.0095H72.3064L74.5121 32.9822L76.7178 39.0095Z" fill="#170710"/>
<path d="M92.8492 44.0077V30H90.1344V35.1663C89.3285 34.1372 88.1832 33.6122 86.9743 33.6122C84.3656 33.6122 82.4356 35.6283 82.4356 38.9464C82.4356 42.3276 84.3868 44.2597 86.9743 44.2597C88.2044 44.2597 89.3285 43.7137 90.1344 42.7056V44.0077H92.8492ZM87.8015 41.8866C86.2744 41.8866 85.214 40.6895 85.214 38.9464C85.214 37.1824 86.2744 35.9853 87.8015 35.9853C88.7134 35.9853 89.689 36.4683 90.1344 37.1404V40.7315C89.689 41.4036 88.7134 41.8866 87.8015 41.8866Z" fill="#170710"/>
<path d="M105.276 44.0077V30H102.562V35.1663C101.756 34.1372 100.61 33.6122 99.4014 33.6122C96.7927 33.6122 94.8627 35.6283 94.8627 38.9464C94.8627 42.3276 96.8139 44.2597 99.4014 44.2597C100.632 44.2597 101.756 43.7137 102.562 42.7056V44.0077H105.276ZM100.229 41.8866C98.7015 41.8866 97.6411 40.6895 97.6411 38.9464C97.6411 37.1824 98.7015 35.9853 100.229 35.9853C101.141 35.9853 102.116 36.4683 102.562 37.1404V40.7315C102.116 41.4036 101.141 41.8866 100.229 41.8866Z" fill="#170710"/>
<path d="M113.013 47.9769C113.353 48.0609 114.031 48.1239 114.349 48.1239C116.11 48.0819 117.467 47.5779 118.231 45.6668L123.045 33.8642H120.139L117.467 40.9205L114.795 33.8642H111.91L116.067 44.1547L115.686 45.0158C115.431 45.5618 114.964 45.7508 114.265 45.7508C114.01 45.7508 113.649 45.6878 113.416 45.5828L113.013 47.9769Z" fill="#170710"/>
<path d="M128.998 44.2597C132.392 44.2597 134.428 41.8236 134.428 38.9254C134.428 36.0483 132.392 33.6122 128.998 33.6122C125.626 33.6122 123.59 36.0483 123.59 38.9254C123.59 41.8236 125.626 44.2597 128.998 44.2597ZM128.998 41.8866C127.323 41.8866 126.39 40.5215 126.39 38.9254C126.39 37.3504 127.323 35.9853 128.998 35.9853C130.674 35.9853 131.628 37.3504 131.628 38.9254C131.628 40.5215 130.674 41.8866 128.998 41.8866Z" fill="#170710"/>
<path d="M146.034 44.0077V33.8642H143.34V40.7315C142.874 41.3196 142.046 41.8866 141.007 41.8866C139.862 41.8866 139.12 41.4246 139.12 40.0175V33.8642H136.426V41.0676C136.426 43.0417 137.486 44.2597 139.735 44.2597C141.41 44.2597 142.64 43.5037 143.34 42.7266V44.0077H146.034Z" fill="#170710"/>
<path d="M151.402 44.0077V37.3084C151.847 36.6573 153.035 36.1533 153.926 36.1533C154.222 36.1533 154.477 36.1743 154.668 36.2163V33.6122C153.395 33.6122 152.123 34.3472 151.402 35.2503V33.8642H148.708V44.0077H151.402Z" fill="#170710"/>
<path d="M69.6935 65.8838V51.8761H67V65.8838H69.6935Z" fill="#170710"/>
<path d="M77.1152 66.1358C80.5086 66.1358 82.5446 63.6997 82.5446 60.8015C82.5446 57.9244 80.5086 55.4883 77.1152 55.4883C73.7429 55.4883 71.7069 57.9244 71.7069 60.8015C71.7069 63.6997 73.7429 66.1358 77.1152 66.1358ZM77.1152 63.7627C75.4397 63.7627 74.5065 62.3976 74.5065 60.8015C74.5065 59.2265 75.4397 57.8614 77.1152 57.8614C78.7907 57.8614 79.7451 59.2265 79.7451 60.8015C79.7451 62.3976 78.7907 63.7627 77.1152 63.7627Z" fill="#170710"/>
<path d="M88.7423 70C91.2661 70 94.2778 69.055 94.2778 65.1908V55.7403H91.5631V57.0424C90.7359 56.0133 89.633 55.4883 88.4029 55.4883C85.8154 55.4883 83.8854 57.3364 83.8854 60.6545C83.8854 64.0357 85.8367 65.8208 88.4029 65.8208C89.6543 65.8208 90.7571 65.2328 91.5631 64.2247V65.2538C91.5631 67.2489 90.036 67.8159 88.7423 67.8159C87.4485 67.8159 86.3669 67.4589 85.5397 66.5558L84.3308 68.4879C85.6246 69.601 86.9819 70 88.7423 70ZM89.2513 63.4477C87.7242 63.4477 86.6638 62.3976 86.6638 60.6545C86.6638 58.9114 87.7242 57.8614 89.2513 57.8614C90.1421 57.8614 91.1177 58.3444 91.5631 59.0165V62.2926C91.1177 62.9436 90.1421 63.4477 89.2513 63.4477Z" fill="#170710"/>
<path d="M101.7 66.1358C105.094 66.1358 107.13 63.6997 107.13 60.8015C107.13 57.9244 105.094 55.4883 101.7 55.4883C98.3279 55.4883 96.2918 57.9244 96.2918 60.8015C96.2918 63.6997 98.3279 66.1358 101.7 66.1358ZM101.7 63.7627C100.025 63.7627 99.0914 62.3976 99.0914 60.8015C99.0914 59.2265 100.025 57.8614 101.7 57.8614C103.376 57.8614 104.33 59.2265 104.33 60.8015C104.33 62.3976 103.376 63.7627 101.7 63.7627Z" fill="#170710"/>
<path d="M124.183 65.8838V58.6804C124.183 56.7063 123.102 55.4883 120.853 55.4883C119.178 55.4883 117.905 56.2863 117.248 57.0634V51.8761H114.554V65.8838H117.248V59.0585C117.714 58.4494 118.542 57.8614 119.581 57.8614C120.747 57.8614 121.49 58.3024 121.49 59.7095V65.8838H124.183Z" fill="#170710"/>
<path d="M131.672 66.1358C133.262 66.1358 134.874 65.6528 135.892 64.7287L134.704 63.0067C134.047 63.6367 132.838 64.0147 131.968 64.0147C130.229 64.0147 129.19 62.9436 129.02 61.6626H136.634V61.0746C136.634 57.7564 134.556 55.4883 131.502 55.4883C128.384 55.4883 126.2 57.8614 126.2 60.8015C126.2 64.0567 128.554 66.1358 131.672 66.1358ZM134.026 59.8565H128.978C129.105 58.8484 129.826 57.6094 131.502 57.6094C133.283 57.6094 133.962 58.8904 134.026 59.8565Z" fill="#170710"/>
<path d="M141.274 65.8838V59.1845C141.719 58.5334 142.907 58.0294 143.797 58.0294C144.094 58.0294 144.349 58.0504 144.54 58.0924V55.4883C143.267 55.4883 141.995 56.2233 141.274 57.1264V55.7403H138.58V65.8838H141.274Z" fill="#170710"/>
<path d="M151.037 66.1358C152.628 66.1358 154.24 65.6528 155.258 64.7287L154.07 63.0067C153.413 63.6367 152.204 64.0147 151.334 64.0147C149.595 64.0147 148.556 62.9436 148.386 61.6626H156V61.0746C156 57.7564 153.922 55.4883 150.867 55.4883C147.75 55.4883 145.565 57.8614 145.565 60.8015C145.565 64.0567 147.919 66.1358 151.037 66.1358ZM153.391 59.8565H148.344C148.471 58.8484 149.192 57.6094 150.867 57.6094C152.649 57.6094 153.328 58.8904 153.391 59.8565Z" fill="#170710"/>
<rect x="35" y="10" width="153" height="76" stroke="#170710" stroke-width="4"/>
</svg>
