<svg width="224" height="57" viewBox="0 0 224 57" fill="none" xmlns="http://www.w3.org/2000/svg">
<path d="M68.1743 9.95078H74.3586C77.7738 9.95078 79.1584 11.742 79.1584 13.7128C79.1584 15.4014 78.2392 16.4872 77.1961 16.9176C78.2021 17.2795 79.6052 18.3284 79.6052 20.3376C79.6052 22.9639 77.5589 24.738 74.5493 24.738H68.1672V9.95078H68.1743ZM74.0029 15.8859C75.7318 15.8859 76.4121 15.162 76.4121 13.9835C76.4121 12.8108 75.5596 12.1239 74.1494 12.1239H70.9079V15.8859H74.0029ZM70.9079 22.552H74.0456C75.8172 22.552 76.7806 21.7854 76.7806 20.2692C76.7806 18.944 75.9026 18.0718 73.899 18.0718H70.9136V22.552H70.9079ZM90.3628 21.5275C90.3628 22.5962 90.3628 23.8531 90.3869 24.7309H87.8073C87.7647 24.4316 87.7462 23.8103 87.722 23.3444C87.103 24.4729 86.0969 24.9888 84.6071 24.9888C82.4924 24.9888 80.9599 23.7733 80.9599 20.9318V13.7555H83.6081V20.3974C83.6081 21.6799 83.9938 22.7915 85.4836 22.7915C87.0831 22.7915 87.7277 21.9136 87.7277 19.5695V13.7555H90.3744V21.5275H90.3628ZM101.69 21.251C101.286 23.0864 100.006 24.9888 96.892 24.9888C93.6047 24.9888 91.8163 22.6803 91.8163 19.3045C91.8163 16.1196 93.716 13.4919 97.0443 13.4919C100.544 13.4919 101.612 16.0141 101.697 17.3166H99.0918C98.8781 16.3333 98.301 15.6094 96.9775 15.6094C95.3966 15.6094 94.5256 16.9775 94.5256 19.219C94.5256 21.613 95.4207 22.8955 96.9588 22.8955C98.1112 22.8955 98.7489 22.2328 99.0731 21.251H101.692H101.69ZM105.534 18.5806C106.386 17.4876 108.158 15.5054 109.672 13.7498H112.742L108.819 17.9365L113.128 24.7309H110.1L107.029 19.6493L105.535 21.0786V24.7309H102.886V9.11572H105.534V18.5806ZM113.551 9.11572H116.199V11.6992H113.552V9.11572H113.551ZM113.551 13.7498H116.199V24.7309H113.552V13.7512L113.551 13.7498ZM118.289 16.5058C118.289 15.5667 118.289 14.5849 118.265 13.7498H120.827C120.889 14.0505 120.932 14.9468 120.932 15.2902C121.317 14.5236 122.212 13.4976 124.199 13.4976C126.357 13.4976 127.847 14.9098 127.847 17.727V24.738H125.198V18.0262C125.198 16.6582 124.707 15.675 123.255 15.675C121.698 15.675 120.932 16.6825 120.932 18.7088V24.7366H118.284V16.5044H118.289V16.5058ZM139.56 23.5154C139.56 27.0394 138.193 29.2011 134.246 29.2011C130.469 29.2011 129.592 27.0821 129.464 25.7626H132.155C132.411 26.6589 133.117 27.2161 134.349 27.2161C136.507 27.2161 136.953 25.8908 136.953 23.608V22.9696C136.379 24.0127 135.441 24.6326 133.754 24.6326C130.941 24.6326 129.212 22.3241 129.212 19.2674C129.212 15.7876 131.284 13.4976 133.994 13.4976C135.956 13.4976 136.771 14.4181 136.96 14.9967C136.984 14.6333 137.046 13.9522 137.065 13.7569H139.583C139.566 14.6091 139.566 15.8488 139.566 16.9176V23.5154H139.56ZM134.484 22.4665C136.488 22.4665 137.046 21.0786 137.046 19.0465C137.046 16.9732 136.617 15.6522 134.551 15.6522C132.994 15.6522 131.947 16.892 131.947 19.1577C131.947 21.1898 132.989 22.4665 134.484 22.4665ZM144.23 9.11572V15.162C144.739 14.3512 145.658 13.4976 147.473 13.4976C149.416 13.4976 151.145 14.6276 151.145 17.7085V24.738H148.521V18.1146C148.521 16.53 147.926 15.6779 146.535 15.6779C144.745 15.6779 144.23 16.9604 144.23 18.8385V24.738H141.583V9.12H144.23V9.1143V9.11572ZM161.877 22.0433C161.877 23.0679 161.964 24.4544 162.025 24.7309H159.487C159.401 24.4986 159.34 23.94 159.316 23.5339C158.928 24.1965 158.139 24.9888 156.134 24.9888C153.512 24.9888 152.401 23.2574 152.401 21.5688C152.401 19.0893 154.388 17.935 157.605 17.935H159.266V17.1869C159.266 16.3348 158.992 15.4384 157.348 15.4384C155.895 15.4384 155.6 16.1011 155.448 16.9105H152.91C153.057 15.1193 154.191 13.4734 157.452 13.4919C160.309 13.5104 161.871 14.6462 161.871 17.2112V22.0419H161.877V22.0433ZM159.297 19.6066H157.863C155.919 19.6066 155.068 20.1823 155.068 21.422C155.068 22.3198 155.662 23.0494 156.84 23.0494C159.016 23.0494 159.292 21.5517 159.292 19.9315V19.6052H159.297V19.6066ZM163.944 16.5728C163.944 15.6337 163.944 14.6704 163.92 13.7555H166.456C166.499 14.032 166.542 14.7203 166.567 15.1862C167.1 14.3084 168.02 13.4976 169.662 13.4976C171.219 13.4976 172.157 14.3084 172.561 15.2717C173.18 14.3326 174.162 13.4976 175.976 13.4976C177.852 13.4976 179.451 14.6276 179.451 17.5375V24.738H176.846V17.8552C176.846 16.7637 176.46 15.6593 175.057 15.6593C173.604 15.6593 173.009 16.6839 173.009 18.458V24.738H170.404V17.9408C170.404 16.7252 170.085 15.675 168.656 15.675C167.229 15.675 166.567 16.6583 166.567 18.6219V24.7352H163.944V16.5728ZM183.148 21.4847C183.406 22.4665 184.171 23.0237 185.428 23.0237C186.709 23.0237 187.2 22.5335 187.2 21.7669C187.2 20.9318 186.709 20.5884 184.981 20.1637C181.548 19.3301 180.947 18.2614 180.947 16.7452C180.947 15.1435 182.075 13.4976 185.213 13.4976C188.371 13.4976 189.521 15.2475 189.633 16.7694H187.095C186.99 16.2535 186.623 15.4014 185.109 15.4014C183.914 15.4014 183.552 15.96 183.552 16.53C183.552 17.1499 183.938 17.4705 185.789 17.9179C189.333 18.7274 189.909 19.95 189.909 21.5702C189.909 23.4056 188.48 24.9902 185.343 24.9902C182.16 24.9902 180.8 23.4298 180.542 21.4847H183.148ZM193.727 9.11572V15.162C194.236 14.3512 195.156 13.4976 196.97 13.4976C198.913 13.4976 200.641 14.6276 200.641 17.7085V24.738H198.018V18.1146C198.018 16.53 197.424 15.6779 196.032 15.6779C194.236 15.6779 193.727 16.9604 193.727 18.8385V24.738H191.08V9.12H193.727V9.1143V9.11572ZM202.688 9.11572H205.337V11.6992H202.688V9.11572ZM202.688 13.7498H205.337V24.7309H202.688V13.7512V13.7498ZM207.403 16.721C207.403 15.4812 207.403 14.5606 207.378 13.7498H209.983C210.025 14.0063 210.044 15.0323 210.044 15.7819C210.559 14.4566 211.773 13.5161 213.63 13.4976V16.064C211.411 16.0398 210.044 16.8307 210.044 19.7591V24.738H207.396V16.721H207.403ZM216.45 19.7961C216.45 21.4405 217.283 22.8713 218.926 22.8713C220.337 22.8713 220.783 22.2271 221.083 21.5275H223.751C223.346 22.8955 222.151 24.9902 218.84 24.9902C215.298 24.9902 213.784 22.2514 213.784 19.39C213.784 15.9971 215.512 13.4919 218.969 13.4919C222.659 13.4919 223.897 16.2479 223.897 18.857C223.897 19.219 223.897 19.4769 223.854 19.7961H216.45ZM221.225 18.1075C221.2 16.634 220.563 15.4384 218.945 15.4384C217.32 15.4384 216.664 16.5499 216.512 18.1075H221.225ZM80.4206 43.1946C79.8016 45.865 77.798 47.8116 74.2363 47.8116C69.6514 47.8116 67.433 44.4971 67.433 40.2919C67.433 36.2534 69.6941 32.6183 74.3643 32.6183C78.1211 32.6183 80.0165 34.817 80.4206 37.2965H77.65C77.2644 35.9955 76.3693 34.8412 74.2548 34.8412C71.4159 34.8412 70.2888 37.4062 70.2888 40.2064C70.2888 42.8326 71.3134 45.6143 74.3401 45.6143C76.4974 45.6143 77.2644 44.2448 77.65 43.2017H80.4206V43.1946ZM91.8591 42.1031C91.8591 45.3749 89.9407 47.8729 86.5011 47.8729C83.1727 47.8729 81.2303 45.4361 81.2303 42.1444C81.2303 38.8127 83.2154 36.376 86.6306 36.376C89.8106 36.376 91.8591 38.6645 91.8591 42.1031ZM83.9212 42.1202C83.9212 44.3432 84.9258 45.7539 86.5679 45.7539C88.23 45.7539 89.1489 44.3674 89.1489 42.1458C89.1489 39.776 88.23 38.4935 86.5267 38.4935C84.9016 38.4935 83.9212 39.7333 83.9212 42.1202ZM102.611 44.4101C102.611 45.4789 102.611 46.7371 102.635 47.6149H100.054C100.011 47.3143 99.9923 46.6944 99.9682 46.227C99.3492 47.357 98.3446 47.8729 96.8546 47.8729C94.7402 47.8729 93.2075 46.6574 93.2075 43.8145V36.6325H95.8544V43.2815C95.8544 44.564 96.2418 45.6755 97.731 45.6755C99.3305 45.6755 99.9735 44.7977 99.9735 42.4465V36.6325H102.622V44.4101H102.611ZM104.7 39.3899C104.7 38.4493 104.7 37.4675 104.675 36.6339H107.237C107.3 36.9332 107.343 37.8309 107.343 38.1729C107.728 37.4062 108.623 36.376 110.609 36.376C112.766 36.376 114.256 37.7867 114.256 40.604V47.6149H111.609V40.9061C111.609 39.5366 111.117 38.5548 109.666 38.5548C108.108 38.5548 107.343 39.5609 107.343 41.5872V47.6149H104.696V39.3899H104.7ZM125.498 44.1337C125.095 45.9691 123.812 47.8729 120.698 47.8729C117.413 47.8729 115.625 45.5644 115.625 42.1871C115.625 39.0023 117.524 36.376 120.852 36.376C124.353 36.376 125.419 38.8982 125.505 40.1993H122.9C122.685 39.2174 122.108 38.4864 120.784 38.4864C119.204 38.4864 118.334 39.8558 118.334 42.0959C118.334 44.4899 119.227 45.7724 120.767 45.7724C121.919 45.7724 122.555 45.1098 122.881 44.128H125.498V44.1337ZM126.761 31.9984H129.409V34.5833H126.762V31.9984H126.761ZM126.761 36.6339H129.409V47.6149H126.762V36.6325L126.761 36.6339ZM134.123 31.9984H131.475V47.6149H134.122L134.123 31.9984ZM28.4599 0C12.8781 0 0.0483819 12.8108 0 28.4074L1.49556 28.4145C1.55676 14.3754 12.4427 2.90272 26.2286 1.93372C26.9708 1.87197 27.7152 1.84107 28.4599 1.8411C43.1651 1.8411 55.087 13.7797 55.087 28.5057C55.087 37.1669 50.9617 44.859 44.581 49.7254C40.4658 52.8678 35.5221 54.7353 30.3596 55.0976C29.7349 55.1404 29.1031 55.1646 28.467 55.1646H28.4414V55.2016C27.6574 55.1831 26.4435 55.0734 26.4307 54.4777C26.4193 53.9861 26.7921 53.5871 27.1536 53.305C27.6374 52.9245 28.2081 52.6538 28.773 52.4143C29.3123 52.1821 29.863 51.9726 30.4208 51.7759C30.5999 51.7242 30.7669 51.637 30.9117 51.5195C31.0172 51.4266 31.0885 51.3011 31.1143 51.1628C31.1402 51.0246 31.1189 50.8818 31.054 50.7571C30.8932 50.4621 30.556 50.2911 30.2614 50.1614C29.0661 49.6527 23.2432 49.7567 22.5146 49.7696H22.4406C22.4649 49.7752 29.1145 50.5177 29.1216 50.9238C29.1344 51.3342 24.366 52.2676 24.2792 55.2316C24.2549 56.0367 25.1316 56.2875 25.4688 56.4044C26.6399 56.8033 27.1608 56.9687 28.3745 57H29.0661C29.9993 56.9951 30.9311 56.9275 31.8552 56.7976C45.893 55.0976 56.9255 42.9923 56.9255 28.5057C56.9198 12.8678 44.0716 0 28.4599 0Z" fill="#170710"/>
<path d="M27.1366 39.1875L28.0615 38.7571C28.0615 38.7571 18.1561 28.2478 1.45864 30.827L0.0854492 30.9795C0.728267 36.7726 3.12879 42.2292 6.96358 46.6141C10.7984 50.9991 15.8831 54.1016 21.5328 55.5037L21.9739 53.7225C12.1012 51.2857 4.54939 43.3998 2.38644 33.64C5.26088 33.0073 14.9088 31.7362 27.1381 39.1875H27.1366Z" fill="#170710"/>
<path d="M53.4451 25.8781C53.3953 25.7998 53.3882 25.6216 53.438 25.5604C53.6087 25.3509 53.566 25.1671 53.4266 24.9904C53.2914 24.8236 53.1932 24.6512 53.2061 24.4189C53.2118 24.3334 53.1491 24.1909 53.0823 24.161C52.8432 24.0385 52.8503 23.829 52.856 23.6024C52.8617 23.4485 52.8005 23.2832 52.8318 23.135C52.9228 22.6804 52.4091 22.7061 52.3167 22.394C52.3039 22.3498 52.2184 22.3313 52.163 22.3071C52.1516 22.3 52.126 22.3071 52.1146 22.3C51.9011 22.2031 51.6792 22.1233 51.47 22.0007C51.3234 21.9152 51.2067 21.7855 51.0715 21.6744C50.8879 21.2326 50.8695 21.2198 50.5137 21.2383C50.2818 20.7909 50.0911 21.2013 49.8776 21.2882C49.835 21.2269 49.8093 21.14 49.7538 21.1101C49.5888 21.0103 49.5703 20.6797 49.3198 20.7481C49.105 20.8023 48.9513 20.7966 48.8602 20.5629C48.8417 20.5201 48.7805 20.4902 48.7364 20.4646C48.5528 20.3605 48.3693 20.2622 48.1359 20.134C47.8058 20.238 47.4073 20.3548 47.0886 20.4589C46.8979 20.4532 46.7143 20.3919 46.6645 20.4475C46.4511 20.7111 46.2661 20.9989 46.0953 21.2939C45.9729 21.4963 45.593 21.5704 45.4451 21.4108C45.3099 21.472 45.1889 21.5647 45.0594 21.5818C44.8943 21.6074 44.8445 21.6929 44.7776 21.8397C44.6922 22.0363 44.5755 22.2957 44.4091 22.3555C44.0661 22.4909 44.1146 22.897 43.8513 23.0923C43.7659 23.1535 43.7346 23.2889 43.699 23.43C43.7474 23.4542 43.8142 23.4727 43.8214 23.5041C43.9068 23.8176 44.4219 23.7919 44.3351 24.2465C44.3052 24.3933 44.3607 24.56 44.3607 24.7125C44.3536 24.9405 44.3479 25.1485 44.5926 25.2711C44.661 25.3081 44.7207 25.4421 44.7164 25.529C44.7036 25.7627 44.8076 25.928 44.9371 26.0933C45.0779 26.2714 45.1206 26.4567 44.9484 26.6647C44.9 26.726 44.9057 26.9041 44.9555 26.9839C45.1078 27.2419 45.3042 27.4756 45.0409 27.7948C44.9911 27.856 45.0167 27.9914 45.0038 28.1083C44.7962 28.0655 44.7221 28.1752 44.7221 28.3776C44.7221 28.4332 44.6795 28.5187 44.6367 28.5371C44.3607 28.654 44.3977 28.912 44.372 29.1442C44.3607 29.2369 44.3237 29.3651 44.2682 29.4022C44.4034 29.5732 44.5998 29.7584 44.8872 29.5732C44.9299 29.5447 45.0964 29.6116 45.1149 29.6601C45.2002 29.9864 46.0953 30.7103 46.3771 30.6975C46.8125 30.679 47.2351 30.4153 47.682 30.6063C47.6577 31.447 47.6151 32.681 47.5596 33.2325C47.5169 33.6814 47.4258 34.0434 47.3205 34.3384C45.0964 34.2529 42.424 34.3811 39.6648 35.0366C39.5868 34.8404 39.5374 34.6341 39.5182 34.4239C39.4627 33.8154 39.4329 32.4103 39.4144 31.6066C39.4627 31.6066 39.5239 31.5881 39.5794 31.5824C39.7018 31.5753 40.3521 31.618 40.5727 31.4898L40.6637 31.675C40.8302 31.6978 40.9825 31.6679 41.0622 31.7406C41.1974 31.8574 41.277 31.846 41.3994 31.7406C41.4734 31.6793 41.5901 31.6608 41.6812 31.618C41.7609 31.5881 41.8904 31.5696 41.9088 31.5083C41.9942 31.2262 42.2703 31.219 42.4425 31.078C42.5463 30.9925 42.6318 30.8813 42.7243 30.783C42.767 30.7402 42.7968 30.679 42.8523 30.6547C43.2195 30.5008 43.4102 30.2372 43.3674 29.8083C43.349 29.6302 43.3916 29.4891 43.5752 29.4093C43.5823 29.4093 43.5823 29.4022 43.588 29.4022C43.6435 29.3594 43.6805 29.2312 43.6919 29.1457C43.7232 28.912 43.6862 28.654 43.9566 28.5371C43.9992 28.5187 44.042 28.4332 44.042 28.3776C44.042 28.1752 44.1146 28.0712 44.3237 28.1068C44.3365 27.9843 44.3109 27.856 44.3607 27.7933C44.6169 27.4813 44.4219 27.2476 44.2682 26.9839C44.2198 26.9041 44.2127 26.7274 44.2625 26.6647C44.4332 26.4567 44.3906 26.2714 44.2497 26.0947C44.1216 25.928 44.0177 25.7627 44.0291 25.529C44.0363 25.4435 43.9737 25.301 43.9011 25.2725C43.662 25.1485 43.6677 24.9405 43.6733 24.7125C43.6733 24.56 43.6193 24.3933 43.6492 24.2465C43.7346 23.7919 43.2266 23.8162 43.1341 23.5041C43.1227 23.467 43.0601 23.4485 43.0117 23.43C43.006 23.4243 42.9932 23.4243 42.9875 23.4172C42.9747 23.4115 42.9505 23.4172 42.9377 23.4115C42.7243 23.3131 42.5037 23.2333 42.2945 23.1122C42.148 23.0253 42.0312 22.8956 41.8961 22.7845C41.7111 22.3427 41.694 22.3313 41.3382 22.3498C41.1049 21.9024 40.9156 22.3128 40.7008 22.3983C40.658 22.337 40.6339 22.2515 40.5783 22.2216C40.4133 22.1218 40.4005 21.7912 40.15 21.8582C39.9352 21.9152 39.7815 21.9081 39.689 21.6744C39.6719 21.6316 39.6093 21.6003 39.5666 21.5761C39.383 21.472 39.1938 21.3737 38.9661 21.2455C38.636 21.3495 38.2375 21.4663 37.9188 21.5704C37.7282 21.5647 37.5445 21.502 37.4947 21.5575C37.2813 21.8212 37.0963 22.1104 36.9255 22.4054C36.8017 22.6078 36.4161 22.6804 36.2753 22.5223C36.1401 22.5835 36.0191 22.6747 35.8896 22.6933C35.7231 22.7175 35.6747 22.8044 35.6078 22.9512C35.5224 23.1478 35.4043 23.4058 35.2393 23.467C34.8963 23.6024 34.9391 24.0071 34.6815 24.2038C34.5349 24.3135 34.5406 24.627 34.4368 24.8236C34.3648 24.953 34.2557 25.0577 34.1237 25.1243C33.896 25.2355 33.8362 25.3267 33.9216 25.5846C33.9458 25.6701 33.9956 25.7556 33.9885 25.8368C33.9515 26.119 33.8846 26.4011 33.8476 26.6833C33.8419 26.7018 33.8419 26.726 33.8419 26.7445C33.775 27.2048 33.7067 27.6651 33.6712 28.1268C33.6569 28.3035 33.7138 28.4944 33.7622 28.6726C33.8419 28.9604 34.0255 29.6672 34.1735 29.6672C34.3869 29.6672 34.5648 29.6971 34.4481 30.0235C34.7242 30.0477 34.8651 30.2002 35.0315 30.4039C35.1724 30.5806 35.3802 30.9255 35.743 30.6918C35.7673 30.679 35.8156 30.6861 35.864 30.7046C35.9138 30.7217 35.9636 30.7531 35.9693 30.7773C36.0547 31.1036 36.9497 31.8275 37.2315 31.8147C37.5445 31.8033 38.3414 31.6608 38.8864 31.6066C38.8623 32.4346 38.8195 33.8581 38.7583 34.4666C38.7271 34.7986 38.6659 35.0794 38.599 35.3259C37.7594 35.571 36.9255 35.8674 36.0916 36.2279C34.4538 36.9444 32.8312 37.6956 31.225 38.4808C31.114 38.2471 30.9973 37.861 30.9362 37.204C30.8878 36.6825 30.8564 35.4427 30.845 34.7858C30.9604 34.78 31.5139 34.8172 31.696 34.706C31.7387 34.7858 31.7701 34.8413 31.7758 34.8656C31.918 34.8841 32.0518 34.8599 32.1201 34.9212C32.2353 35.0195 32.3036 35.0067 32.4133 34.9212C32.4816 34.8656 32.5797 34.8528 32.6594 34.8172C32.7263 34.7915 32.843 34.7744 32.8544 34.7245C32.934 34.4908 33.1674 34.4851 33.3139 34.3626C33.3994 34.2885 33.4734 34.1959 33.5601 34.1175C33.5972 34.0804 33.627 34.0249 33.6698 34.012C33.9885 33.8838 34.1535 33.6628 34.118 33.3066C34.0995 33.1585 34.1364 33.043 34.2959 32.9746C34.3513 32.9504 34.3812 32.8279 34.394 32.7466C34.4182 32.5514 34.3869 32.3362 34.6203 32.2379C34.6573 32.2193 34.6943 32.1467 34.6943 32.104C34.6943 31.9315 34.7555 31.846 34.9391 31.8831C34.9518 31.7776 34.9262 31.6736 34.9703 31.618C35.1653 31.3858 35.0614 31.2076 34.9391 31.0224C34.8963 31.011 34.8537 30.9982 34.8351 31.011C34.5221 31.2005 34.3371 30.9127 34.2219 30.7716C34.081 30.6006 33.9586 30.4709 33.7195 30.4524C33.8177 30.1816 33.6698 30.1574 33.4805 30.1574C33.3524 30.1574 33.1916 29.5618 33.1247 29.3224C33.082 29.1756 33.0322 29.016 33.0451 28.8621C33.082 28.4759 33.1375 28.0954 33.1987 27.7078C33.1916 27.7021 33.1859 27.7021 33.1802 27.7021C33.0521 27.6352 32.9468 27.5169 32.8373 27.4257C32.6764 27.058 32.6651 27.0452 32.3535 27.0637C32.15 26.689 31.9906 27.0338 31.8013 27.1065C31.7644 27.0523 31.7401 26.9839 31.696 26.9597C31.5494 26.8799 31.5437 26.6035 31.3232 26.6519C31.1382 26.6947 31.0045 26.6947 30.9248 26.4994C30.9119 26.4624 30.8564 26.4382 30.8195 26.4196C30.6601 26.3341 30.5007 26.2486 30.2987 26.1432C30.0112 26.2287 29.6668 26.3341 29.3922 26.4139C29.2257 26.4068 29.0664 26.3512 29.0236 26.4068C28.8401 26.6277 28.6807 26.8671 28.527 27.1136C28.4232 27.2846 28.0916 27.3459 27.9635 27.2119C27.8468 27.2604 27.7429 27.3402 27.6262 27.353C27.4797 27.3701 27.4413 27.4442 27.3815 27.5668C27.3075 27.7335 27.2108 27.9472 27.0684 28.0028C26.7696 28.114 26.8123 28.4574 26.5847 28.617C26.4566 28.7096 26.4623 28.9661 26.3712 29.1385C26.3073 29.2496 26.2102 29.3378 26.0937 29.3908C25.8974 29.482 25.8432 29.5618 25.9158 29.7712C25.9414 29.8382 25.9841 29.918 25.9727 29.9793C25.9414 30.2187 25.886 30.4524 25.8489 30.6918C25.7877 31.0908 25.7265 31.4955 25.6896 31.8945C25.6768 32.0427 25.7265 32.2023 25.7693 32.3548C25.8362 32.5942 25.9969 33.1898 26.125 33.1898C26.3143 33.1898 26.4623 33.214 26.364 33.4848C26.6031 33.5089 26.7256 33.6316 26.8664 33.804C26.9887 33.9508 27.1723 34.24 27.4783 34.0433C27.5167 34.0192 27.6633 34.0733 27.676 34.1175C27.7486 34.3882 28.527 34.9953 28.7718 34.9825C29.0791 34.9696 29.913 34.8229 30.3727 34.7972C30.3484 35.4798 30.3172 36.7252 30.2617 37.2482C30.1635 38.2172 29.9557 38.8371 29.7906 39.1862C23.4099 42.3725 17.4263 45.8167 17.4263 45.8167H18.8919C20.4116 44.9632 29.7409 40.5072 36.3236 38.9782C42.9079 37.4491 51.9851 38.3084 51.9851 38.3084L52.9599 35.0737C52.9599 35.0737 51.2566 34.6262 48.6624 34.4182C48.5017 34.0283 48.4027 33.6158 48.3693 33.1955C48.3138 32.6013 48.2839 31.2262 48.2654 30.4168C48.366 30.4259 48.4648 30.45 48.5585 30.488C48.6197 30.5137 48.6937 30.4766 48.7677 30.4709C48.8901 30.4638 49.0438 30.4096 49.1291 30.4638C49.3626 30.6177 49.5461 30.5065 49.7609 30.3783L49.8521 30.5692C50.0114 30.5935 50.1651 30.5621 50.2504 30.6305C50.3856 30.7474 50.4653 30.7345 50.5877 30.6305C50.6674 30.5692 50.7784 30.5507 50.8695 30.508C50.9491 30.4766 51.0786 30.4581 51.0971 30.3968C51.1826 30.1147 51.4586 30.109 51.6294 29.9679C51.7347 29.8824 51.8201 29.7712 51.9125 29.6729C51.9553 29.6302 51.9851 29.5689 52.0406 29.5447C52.4091 29.3908 52.5984 29.1257 52.5557 28.6968C52.5372 28.5187 52.5799 28.3833 52.7635 28.2978C52.8261 28.2664 52.8688 28.1268 52.8802 28.027C52.9114 27.7948 52.8745 27.5368 53.1434 27.42C53.1861 27.4015 53.2288 27.316 53.2288 27.2604C53.2288 27.058 53.3042 26.954 53.512 26.9896C53.5248 26.8671 53.4992 26.7388 53.5489 26.6761C53.7937 26.3698 53.5974 26.1375 53.4451 25.8781ZM28.4844 17.3894C28.4601 17.341 28.1969 17.3353 28.056 17.2854C27.9339 17.2118 27.8186 17.1274 27.7117 17.0332C27.7117 17.0332 27.6391 16.9719 27.6135 16.9719C27.5836 16.9719 27.363 17.3353 27.4185 17.3837C27.4726 17.4265 27.6391 17.4507 27.8525 17.4507C28.0432 17.4578 28.3435 17.4763 28.4601 17.4507C28.4844 17.4322 28.4972 17.4136 28.4844 17.3894Z" fill="#170710"/>
<path d="M27.3385 17.499C27.32 17.4634 27.3071 17.4206 27.2957 17.3836C27.2904 17.3611 27.2843 17.3387 27.2773 17.3166C27.2165 17.2043 27.1354 17.1043 27.0383 17.0216C27.0249 17.0281 27.0104 17.0321 26.9955 17.033C26.9386 17.0402 26.8959 17.0159 26.8902 16.9846C26.8845 16.9475 26.9272 16.9176 26.9827 16.9105C26.9978 16.9075 27.0135 16.9082 27.0283 16.9124C27.0432 16.9165 27.0568 16.9242 27.0681 16.9347L27.4794 16.8122C27.3158 16.7472 27.1397 16.7199 26.9642 16.7324C26.6398 16.7509 26.3139 16.9105 26.0934 17.0402C26.0736 17.0468 26.053 17.0507 26.0321 17.0516C25.8429 17.0829 22.4704 17.4149 22.2441 17.3708C22.0122 17.328 20.8595 17.0829 20.7785 16.8991C20.7002 16.721 21.6251 14.4438 21.6934 14.3084C22.0179 13.6088 22.3665 12.6141 22.3665 12.6141C22.3665 12.6141 22.8447 10.3555 22.4661 10.2629C22.3907 10.2443 22.2143 10.9811 22.025 11.1107C21.8529 11.2262 21.803 10.4467 21.5768 10.6376C21.453 10.7417 21.4772 11.4542 21.3306 11.2076C20.8952 10.478 20.9692 11.4784 20.8709 11.5525C20.1296 12.0926 19.4921 12.731 19.3626 12.9818C19.0495 13.4919 18.3523 15.4442 18.2099 15.4385C17.9111 15.4313 15.2573 12.56 15.0723 12.4417C14.8944 12.3191 13.6265 10.7972 13.3931 9.52043C13.3319 9.18841 13.0431 9.19553 13.1483 10.8713C13.1597 11.0794 12.5479 10.0306 12.4682 10.3797C12.3756 10.7844 12.767 11.1649 12.6332 11.4784C12.6091 11.5397 12.1494 11.2703 12.1494 11.4841C12.1494 13.2041 14.042 16.9547 15.465 17.4947C16.888 18.0348 13.1669 18.5806 12.9762 18.6604C12.7869 18.7402 12.646 18.9482 12.8965 19.0038C13.4373 19.0893 12.8538 19.4156 13.0559 19.5567C13.1597 19.5809 13.2764 19.5866 13.3447 19.6607C13.4116 19.7591 13.1412 20.1082 13.2523 20.1581C13.3618 20.2065 14.974 19.6422 15.6244 19.5681C15.9431 19.5325 16.9549 19.7961 17.8129 19.5681C18.671 19.3415 20.4967 18.2799 20.8838 18.2129C21.2694 18.1445 26.3509 17.7569 26.3509 17.7569C26.7991 17.7997 27.357 17.6657 27.4794 17.6287C27.4366 17.6358 27.3797 17.5859 27.3371 17.5004L27.3385 17.499Z" fill="#170710"/>
</svg>
