<svg width="222" height="99" viewBox="0 0 222 99" fill="none" xmlns="http://www.w3.org/2000/svg">
<path d="M76.5036 34.9554H81.4478C84.1782 34.9554 85.2851 36.3874 85.2851 37.963C85.2851 39.313 84.5503 40.1811 83.7163 40.5252C84.5206 40.8145 85.6423 41.6531 85.6423 43.2594C85.6423 45.3591 84.0064 46.7774 81.6003 46.7774H76.498V34.9554H76.5036ZM81.1635 39.7004C82.5457 39.7004 83.0895 39.1216 83.0895 38.1795C83.0895 37.2419 82.408 36.6928 81.2806 36.6928H78.6891V39.7004H81.1635ZM78.6891 45.0298H81.1976C82.6139 45.0298 83.3842 44.4169 83.3842 43.2047C83.3842 42.1452 82.6822 41.4479 81.0804 41.4479H78.6936V45.0298H78.6891ZM94.2428 44.2107C94.2428 45.0651 94.2428 46.07 94.262 46.7717H92.1997C92.1657 46.5324 92.1509 46.0357 92.1315 45.6633C91.6367 46.5655 90.8323 46.9779 89.6412 46.9779C87.9506 46.9779 86.7254 46.0062 86.7254 43.7344V37.9972H88.8426V43.3072C88.8426 44.3325 89.1509 45.2212 90.342 45.2212C91.6207 45.2212 92.1361 44.5194 92.1361 42.6453V37.9972H94.2521V44.2107H94.2428ZM103.299 43.9896C102.976 45.457 101.952 46.9779 99.4627 46.9779C96.8346 46.9779 95.4048 45.1323 95.4048 42.4335C95.4048 39.8872 96.9236 37.7864 99.5845 37.7864C102.382 37.7864 103.236 39.8029 103.304 40.8442H101.221C101.051 40.0581 100.589 39.4793 99.5311 39.4793C98.2672 39.4793 97.5708 40.5731 97.5708 42.3651C97.5708 44.279 98.2864 45.3044 99.5161 45.3044C100.437 45.3044 100.947 44.7746 101.206 43.9896H103.3H103.299ZM106.372 41.8547C107.053 40.9809 108.47 39.3962 109.68 37.9926H112.134L108.998 41.3398L112.443 46.7717H110.022L107.567 42.7091L106.373 43.8518V46.7717H104.255V34.2878H106.372V41.8547ZM112.781 34.2878H114.898V36.3532H112.782V34.2878H112.781ZM112.781 37.9926H114.898V46.7717H112.782V37.9937L112.781 37.9926ZM116.569 40.196C116.569 39.4452 116.569 38.6603 116.55 37.9926H118.598C118.648 38.233 118.682 38.9496 118.682 39.2241C118.99 38.6113 119.705 37.791 121.294 37.791C123.019 37.791 124.21 38.92 124.21 41.1723V46.7774H122.093V41.4115C122.093 40.3178 121.7 39.5318 120.539 39.5318C119.294 39.5318 118.682 40.3372 118.682 41.9572V46.7763H116.565V40.1949H116.569V40.196ZM133.575 45.8C133.575 48.6173 132.482 50.3455 129.326 50.3455C126.307 50.3455 125.606 48.6515 125.503 47.5965H127.655C127.859 48.3131 128.424 48.7586 129.409 48.7586C131.134 48.7586 131.49 47.699 131.49 45.874V45.3636C131.032 46.1975 130.282 46.6931 128.933 46.6931C126.684 46.6931 125.302 44.8476 125.302 42.4038C125.302 39.6218 126.958 37.791 129.125 37.791C130.693 37.791 131.345 38.5269 131.496 38.9895C131.515 38.699 131.565 38.1544 131.58 37.9983H133.593C133.579 38.6796 133.579 39.6707 133.579 40.5252V45.8H133.575ZM129.517 44.9614C131.119 44.9614 131.565 43.8518 131.565 42.2272C131.565 40.5696 131.222 39.5135 129.57 39.5135C128.325 39.5135 127.488 40.5047 127.488 42.3161C127.488 43.9407 128.321 44.9614 129.517 44.9614ZM137.308 34.2878V39.1216C137.715 38.4734 138.45 37.791 139.901 37.791C141.454 37.791 142.837 38.6944 142.837 41.1575V46.7774H140.739V41.4822C140.739 40.2153 140.263 39.5341 139.151 39.5341C137.72 39.5341 137.308 40.5594 137.308 42.0609V46.7774H135.192V34.2912H137.308V34.2867V34.2878ZM151.417 44.6231C151.417 45.4422 151.486 46.5507 151.535 46.7717H149.506C149.437 46.586 149.388 46.1394 149.369 45.8148C149.059 46.3445 148.428 46.9779 146.825 46.9779C144.729 46.9779 143.841 45.5937 143.841 44.2437C143.841 42.2614 145.429 41.3386 148.001 41.3386H149.329V40.7405C149.329 40.0593 149.11 39.3426 147.796 39.3426C146.634 39.3426 146.398 39.8724 146.277 40.5195H144.248C144.365 39.0875 145.272 37.7716 147.879 37.7864C150.163 37.8012 151.412 38.7093 151.412 40.7599V44.6219H151.417V44.6231ZM149.354 42.675H148.207C146.653 42.675 145.973 43.1352 145.973 44.1263C145.973 44.8441 146.448 45.4274 147.39 45.4274C149.129 45.4274 149.35 44.23 149.35 42.9347V42.6739H149.354V42.675ZM153.069 40.2495C153.069 39.4987 153.069 38.7286 153.05 37.9972H155.077C155.112 38.2182 155.146 38.7685 155.166 39.141C155.592 38.4392 156.328 37.791 157.64 37.791C158.885 37.791 159.635 38.4392 159.958 39.2093C160.453 38.4586 161.238 37.791 162.688 37.791C164.188 37.791 165.467 38.6944 165.467 41.0208V46.7774H163.384V41.2748C163.384 40.4022 163.075 39.5192 161.954 39.5192C160.792 39.5192 160.316 40.3384 160.316 41.7567V46.7774H158.234V41.3432C158.234 40.3714 157.979 39.5318 156.836 39.5318C155.695 39.5318 155.166 40.3179 155.166 41.8877V46.7752H153.069V40.2495ZM168.422 44.1765C168.628 44.9614 169.24 45.4069 170.245 45.4069C171.269 45.4069 171.662 45.015 171.662 44.4021C171.662 43.7344 171.269 43.4599 169.888 43.1204C167.143 42.4539 166.663 41.5995 166.663 40.3874C166.663 39.1068 167.564 37.791 170.073 37.791C172.598 37.791 173.517 39.19 173.607 40.4067H171.578C171.494 39.9943 171.2 39.313 169.99 39.313C169.035 39.313 168.745 39.7596 168.745 40.2153C168.745 40.7109 169.054 40.9672 170.534 41.3249C173.367 41.9721 173.827 42.9495 173.827 44.2448C173.827 45.7122 172.685 46.979 170.177 46.979C167.632 46.979 166.545 45.7315 166.339 44.1765H168.422ZM176.88 34.2878V39.1216C177.287 38.4734 178.022 37.791 179.473 37.791C181.026 37.791 182.407 38.6944 182.407 41.1575V46.7774H180.31V41.4822C180.31 40.2153 179.836 39.5341 178.723 39.5341C177.287 39.5341 176.88 40.5594 176.88 42.0609V46.7774H174.764V34.2912H176.88V34.2867V34.2878ZM184.044 34.2878H186.162V36.3532H184.044V34.2878ZM184.044 37.9926H186.162V46.7717H184.044V37.9937V37.9926ZM187.813 40.368C187.813 39.3768 187.813 38.6408 187.793 37.9926H189.876C189.91 38.1977 189.925 39.0179 189.925 39.6172C190.337 38.5577 191.307 37.8058 192.792 37.791V39.8428C191.018 39.8234 189.925 40.4557 189.925 42.7969V46.7774H187.808V40.368H187.813ZM195.046 42.8265C195.046 44.1411 195.712 45.285 197.026 45.285C198.154 45.285 198.51 44.77 198.75 44.2107H200.883C200.559 45.3044 199.604 46.979 196.957 46.979C194.125 46.979 192.915 44.7894 192.915 42.5018C192.915 39.7893 194.296 37.7864 197.06 37.7864C200.01 37.7864 201 39.9898 201 42.0757C201 42.3651 201 42.5713 200.966 42.8265H195.046ZM198.864 41.4765C198.844 40.2985 198.335 39.3426 197.041 39.3426C195.742 39.3426 195.217 40.2312 195.096 41.4765H198.864ZM86.2942 61.533C85.7994 63.6679 84.1975 65.2242 81.35 65.2242C77.6845 65.2242 75.911 62.5743 75.911 59.2124C75.911 55.9837 77.7187 53.0775 81.4524 53.0775C84.4559 53.0775 85.9712 54.8353 86.2942 56.8176H84.0792C83.7709 55.7775 83.0553 54.8547 81.3648 54.8547C79.0952 54.8547 78.1941 56.9053 78.1941 59.144C78.1941 61.2436 79.0133 63.4675 81.433 63.4675C83.1577 63.4675 83.7709 62.3726 84.0792 61.5387H86.2942V61.533ZM95.439 60.6604C95.439 63.2761 93.9053 65.2732 91.1554 65.2732C88.4945 65.2732 86.9416 63.325 86.9416 60.6934C86.9416 58.0298 88.5286 56.0817 91.259 56.0817C93.8013 56.0817 95.439 57.9113 95.439 60.6604ZM89.0929 60.674C89.0929 62.4513 89.896 63.5791 91.2089 63.5791C92.5377 63.5791 93.2723 62.4706 93.2723 60.6945C93.2723 58.7999 92.5377 57.7746 91.1759 57.7746C89.8767 57.7746 89.0929 58.7658 89.0929 60.674ZM104.035 62.5048C104.035 63.3592 104.035 64.3651 104.054 65.0669H101.991C101.956 64.8266 101.941 64.331 101.922 63.9573C101.427 64.8607 100.624 65.2732 99.4328 65.2732C97.7424 65.2732 96.517 64.3014 96.517 62.0286V56.2868H98.6332V61.6025C98.6332 62.6278 98.9429 63.5164 100.133 63.5164C101.412 63.5164 101.926 62.8146 101.926 60.9349V56.2868H104.044V62.5048H104.035ZM105.705 58.4912C105.705 57.7392 105.705 56.9543 105.685 56.2879H107.733C107.784 56.5272 107.818 57.2449 107.818 57.5183C108.126 56.9053 108.841 56.0817 110.429 56.0817C112.154 56.0817 113.345 57.2095 113.345 59.4619V65.0669H111.229V59.7034C111.229 58.6085 110.835 57.8236 109.675 57.8236C108.43 57.8236 107.818 58.6279 107.818 60.2479V65.0669H105.702V58.4912H105.705ZM122.332 62.2838C122.01 63.7511 120.985 65.2732 118.495 65.2732C115.869 65.2732 114.439 63.4276 114.439 60.7275C114.439 58.1814 115.957 56.0817 118.618 56.0817C121.417 56.0817 122.269 58.0981 122.338 59.1383H120.255C120.084 58.3533 119.622 57.7689 118.564 57.7689C117.301 57.7689 116.605 58.8637 116.605 60.6546C116.605 62.5686 117.319 63.5939 118.55 63.5939C119.471 63.5939 119.98 63.0641 120.24 62.2792H122.332V62.2838ZM123.342 52.5819H125.459V54.6485H123.343V52.5819H123.342ZM123.342 56.2879H125.459V65.0669H123.343V56.2868L123.342 56.2879ZM129.228 52.5819H127.111V65.0669H129.227L129.228 52.5819ZM44.753 27C32.2957 27 22.0387 37.2419 22 49.711L23.1957 49.7167C23.2446 38.4928 31.9476 29.3207 42.9691 28.546C43.5625 28.4966 44.1576 28.4719 44.753 28.4719C56.5094 28.4719 66.0407 38.0165 66.0407 49.7896C66.0407 56.714 62.7426 62.8636 57.6414 66.7542C54.3514 69.2665 50.399 70.7595 46.2717 71.0491C45.7723 71.0834 45.2672 71.1027 44.7586 71.1027H44.7382V71.1323C44.1114 71.1175 43.1409 71.0298 43.1307 70.5535C43.1216 70.1605 43.4196 69.8415 43.7086 69.616C44.0954 69.3118 44.5517 69.0954 45.0033 68.9039C45.4344 68.7183 45.8747 68.5508 46.3207 68.3935C46.4638 68.3522 46.5974 68.2825 46.7131 68.1885C46.7975 68.1143 46.8545 68.0139 46.8751 67.9034C46.8958 67.7929 46.8788 67.6787 46.8269 67.579C46.6983 67.3432 46.4288 67.2065 46.1932 67.1028C45.2376 66.6961 40.5824 66.7792 39.9999 66.7895H39.9407C39.9601 66.794 45.2763 67.3876 45.282 67.7123C45.2922 68.0404 41.48 68.7866 41.4106 71.1563C41.3912 71.7999 42.0921 72.0004 42.3617 72.0939C43.2979 72.4128 43.7144 72.545 44.6847 72.5701H45.2376C45.9837 72.5661 46.7286 72.5121 47.4674 72.4082C58.6903 71.0491 67.5105 61.3713 67.5105 49.7896C67.5059 37.2875 57.2341 27 44.753 27Z" fill="#170710"/>
<path d="M43.6951 58.3295L44.4345 57.9854C44.4345 57.9854 36.5154 49.5834 23.1662 51.6454L22.0684 51.7674C22.5823 56.3988 24.5014 60.7612 27.5673 64.2668C30.6331 67.7725 34.6982 70.2529 39.215 71.3738L39.5676 69.9498C31.6746 68.0017 25.6372 61.6971 23.9079 53.8944C26.206 53.3885 33.9193 52.3723 43.6963 58.3295H43.6951Z" fill="#170710"/>
<path d="M64.7278 47.6889C64.6879 47.6263 64.6823 47.4838 64.7221 47.4349C64.8586 47.2674 64.8244 47.1205 64.713 46.9792C64.6049 46.8458 64.5264 46.708 64.5367 46.5223C64.5412 46.4539 64.4911 46.34 64.4377 46.3161C64.2466 46.2182 64.2522 46.0507 64.2568 45.8695C64.2613 45.7465 64.2124 45.6143 64.2374 45.4958C64.3102 45.1324 63.8995 45.1529 63.8256 44.9034C63.8154 44.8681 63.747 44.8533 63.7028 44.834C63.6936 44.8283 63.6732 44.834 63.6641 44.8283C63.4934 44.7508 63.316 44.687 63.1487 44.589C63.0315 44.5206 62.9382 44.417 62.8301 44.3281C62.6833 43.9749 62.6686 43.9647 62.3842 43.9795C62.1988 43.6218 62.0463 43.9499 61.8756 44.0194C61.8416 43.9704 61.821 43.9009 61.7767 43.877C61.6447 43.7972 61.63 43.5329 61.4297 43.5876C61.258 43.6309 61.1351 43.6264 61.0623 43.4395C61.0475 43.4053 60.9985 43.3814 60.9633 43.3609C60.8165 43.2777 60.6698 43.1991 60.4832 43.0966C60.2193 43.1798 59.9007 43.2731 59.6459 43.3564C59.4934 43.3518 59.3467 43.3028 59.3068 43.3473C59.1362 43.558 58.9883 43.7881 58.8518 44.0239C58.7539 44.1857 58.4502 44.245 58.332 44.1174C58.2239 44.1663 58.1271 44.2404 58.0236 44.2541C57.8916 44.2746 57.8518 44.3429 57.7983 44.4603C57.73 44.6175 57.6367 44.8248 57.5037 44.8727C57.2295 44.9809 57.2683 45.3056 57.0578 45.4617C56.9895 45.5106 56.9645 45.6189 56.936 45.7317C56.9747 45.751 57.0281 45.7658 57.0339 45.7909C57.1021 46.0416 57.5139 46.021 57.4445 46.3845C57.4206 46.5018 57.465 46.6351 57.465 46.757C57.4593 46.9393 57.4548 47.1056 57.6504 47.2036C57.7051 47.2332 57.7528 47.3403 57.7494 47.4098C57.7392 47.5966 57.8223 47.7288 57.9258 47.8609C58.0384 48.0033 58.0725 48.1515 57.9349 48.3178C57.8962 48.3668 57.9007 48.5091 57.9405 48.5729C58.0623 48.7792 58.2193 48.966 58.0088 49.2212C57.969 49.2702 57.9895 49.3784 57.9792 49.4719C57.8132 49.4377 57.7539 49.5254 57.7539 49.6872C57.7539 49.7316 57.7199 49.8 57.6857 49.8147C57.465 49.9081 57.4946 50.1144 57.474 50.3C57.465 50.3742 57.4354 50.4767 57.3911 50.5063C57.4992 50.643 57.6562 50.7911 57.8859 50.643C57.9201 50.6202 58.0532 50.6737 58.068 50.7125C58.1362 50.9734 58.8518 51.5521 59.0771 51.5419C59.4252 51.5271 59.763 51.3163 60.1203 51.469C60.1009 52.1411 60.0668 53.1276 60.0225 53.5685C59.9883 53.9274 59.9155 54.2168 59.8313 54.4527C58.0532 54.3843 55.9167 54.4868 53.7108 55.0109C53.6484 54.854 53.6089 54.6891 53.5936 54.521C53.5492 54.0346 53.5254 52.9112 53.5106 52.2687C53.5492 52.2687 53.5981 52.2539 53.6425 52.2493C53.7403 52.2437 54.2602 52.2778 54.4366 52.1753L54.5094 52.3234C54.6425 52.3416 54.7642 52.3177 54.8279 52.3758C54.936 52.4692 54.9997 52.4601 55.0975 52.3758C55.1567 52.3268 55.25 52.312 55.3228 52.2778C55.3865 52.2539 55.4901 52.2391 55.5048 52.1901C55.5731 51.9646 55.7938 51.9588 55.9315 51.8461C56.0144 51.7777 56.0828 51.6888 56.1568 51.6102C56.1909 51.576 56.2147 51.5271 56.2591 51.5077C56.5527 51.3846 56.7051 51.1739 56.6709 50.831C56.6562 50.6886 56.6902 50.5758 56.837 50.512C56.8427 50.512 56.8427 50.5063 56.8473 50.5063C56.8916 50.4721 56.9212 50.3696 56.9303 50.3012C56.9553 50.1144 56.9258 49.9081 57.1419 49.8147C57.176 49.8 57.2102 49.7316 57.2102 49.6872C57.2102 49.5254 57.2683 49.4422 57.4354 49.4707C57.4457 49.3727 57.4252 49.2702 57.465 49.22C57.6698 48.9706 57.5139 48.7838 57.3911 48.5729C57.3524 48.5091 57.3467 48.3679 57.3865 48.3178C57.523 48.1515 57.4889 48.0033 57.3763 47.8621C57.2739 47.7288 57.1908 47.5966 57.1999 47.4098C57.2057 47.3414 57.1556 47.2275 57.0976 47.2047C56.9064 47.1056 56.911 46.9393 56.9155 46.757C56.9155 46.6351 56.8723 46.5018 56.8962 46.3845C56.9645 46.021 56.5583 46.0404 56.4844 45.7909C56.4753 45.7613 56.4252 45.7465 56.3865 45.7317C56.382 45.7271 56.3717 45.7271 56.3672 45.7215C56.3569 45.7169 56.3376 45.7215 56.3274 45.7169C56.1568 45.6382 55.9804 45.5744 55.8131 45.4776C55.696 45.4081 55.6026 45.3045 55.4946 45.2156C55.3467 44.8624 55.3331 44.8533 55.0486 44.8681C54.8621 44.5104 54.7107 44.8385 54.539 44.9069C54.5048 44.8579 54.4855 44.7895 54.4411 44.7656C54.3092 44.6858 54.2989 44.4215 54.0987 44.4751C53.9269 44.5206 53.8041 44.515 53.7301 44.3281C53.7164 44.2939 53.6664 44.2689 53.6323 44.2495C53.4855 44.1663 53.3342 44.0877 53.1522 43.9852C52.8883 44.0684 52.5697 44.1618 52.3149 44.245C52.1625 44.2404 52.0156 44.1903 51.9758 44.2347C51.8052 44.4455 51.6573 44.6767 51.5208 44.9125C51.4218 45.0744 51.1135 45.1324 51.0009 45.006C50.8929 45.0549 50.7961 45.1278 50.6926 45.1427C50.5595 45.1621 50.5208 45.2315 50.4673 45.3489C50.399 45.5061 50.3046 45.7123 50.1727 45.7613C49.8985 45.8695 49.9327 46.1931 49.7267 46.3503C49.6095 46.438 49.6141 46.6887 49.5311 46.8458C49.4735 46.9493 49.3863 47.033 49.2808 47.0862C49.0988 47.1751 49.0509 47.2481 49.1192 47.4542C49.1386 47.5226 49.1784 47.5909 49.1727 47.6559C49.1431 47.8815 49.0896 48.107 49.0601 48.3326C49.0555 48.3474 49.0555 48.3668 49.0555 48.3815C49.002 48.7495 48.9474 49.1175 48.919 49.4867C48.9076 49.6279 48.9531 49.7806 48.9918 49.923C49.0555 50.1531 49.2023 50.7182 49.3206 50.7182C49.4912 50.7182 49.6334 50.7421 49.5401 51.003C49.7609 51.0224 49.8735 51.1443 50.0066 51.3071C50.1192 51.4484 50.2853 51.7242 50.5754 51.5373C50.5948 51.5271 50.6334 51.5328 50.6721 51.5475C50.7119 51.5612 50.7517 51.5863 50.7563 51.6057C50.8246 51.8665 51.5401 52.4453 51.7654 52.435C52.0156 52.4259 52.6527 52.312 53.0884 52.2687C53.0692 52.9306 53.035 54.0687 52.986 54.5552C52.9611 54.8206 52.9122 55.0451 52.8587 55.2422C52.1874 55.4381 51.5208 55.6751 50.8541 55.9633C49.5447 56.5361 48.2475 57.1367 46.9634 57.7644C46.8746 57.5776 46.7813 57.2689 46.7325 56.7437C46.6938 56.3267 46.6687 55.3355 46.6596 54.8104C46.7518 54.8057 47.1943 54.8355 47.3399 54.7466C47.374 54.8104 47.3991 54.8547 47.4037 54.8742C47.5174 54.889 47.6244 54.8696 47.679 54.9186C47.7711 54.9972 47.8257 54.987 47.9134 54.9186C47.968 54.8742 48.0464 54.8639 48.1101 54.8355C48.1636 54.8149 48.2569 54.8013 48.266 54.7614C48.3297 54.5745 48.5163 54.57 48.6334 54.472C48.7017 54.4128 48.7609 54.3388 48.8302 54.2761C48.8599 54.2464 48.8837 54.202 48.9179 54.1917C49.1727 54.0892 49.3046 53.9126 49.2762 53.6278C49.2614 53.5094 49.2909 53.417 49.4185 53.3624C49.4627 53.343 49.4867 53.2451 49.4969 53.1801C49.5162 53.024 49.4912 52.852 49.6778 52.7734C49.7074 52.7585 49.737 52.7005 49.737 52.6663C49.737 52.5284 49.7859 52.4601 49.9327 52.4897C49.9428 52.4054 49.9224 52.3222 49.9576 52.2778C50.1135 52.0922 50.0305 51.9497 49.9327 51.8016C49.8985 51.7925 49.8644 51.7823 49.8495 51.7925C49.5993 51.944 49.4514 51.7139 49.3593 51.6011C49.2467 51.4644 49.1488 51.3607 48.9576 51.3459C49.0362 51.1294 48.9179 51.1101 48.7666 51.1101C48.6642 51.1101 48.5356 50.6339 48.4821 50.4425C48.448 50.3252 48.4082 50.1976 48.4185 50.0745C48.448 49.7658 48.4923 49.4616 48.5413 49.1517C48.5356 49.1471 48.531 49.1471 48.5265 49.1471C48.4241 49.0936 48.3399 48.9991 48.2523 48.9262C48.1237 48.6322 48.1147 48.622 47.8656 48.6367C47.7029 48.3372 47.5754 48.6128 47.4241 48.671C47.3946 48.6276 47.3752 48.5729 47.3399 48.5536C47.2227 48.4898 47.2181 48.2688 47.0419 48.3075C46.894 48.3417 46.7871 48.3417 46.7234 48.1856C46.713 48.156 46.6687 48.1367 46.6392 48.1218C46.5117 48.0534 46.3843 47.9851 46.2228 47.9008C45.993 47.9692 45.7176 48.0534 45.4981 48.1172C45.365 48.1116 45.2376 48.0671 45.2034 48.1116C45.0567 48.2882 44.9292 48.4796 44.8064 48.6766C44.7234 48.8133 44.4583 48.8624 44.3559 48.7552C44.2626 48.794 44.1795 48.8578 44.0862 48.868C43.9691 48.8817 43.9384 48.9409 43.8906 49.039C43.8314 49.1722 43.7541 49.3431 43.6403 49.3875C43.4014 49.4764 43.4355 49.751 43.2536 49.8786C43.1511 49.9526 43.1557 50.1577 43.0829 50.2955C43.0318 50.3843 42.9541 50.4548 42.861 50.4972C42.7041 50.5701 42.6607 50.6339 42.7188 50.8013C42.7392 50.8549 42.7734 50.9187 42.7643 50.9677C42.7392 51.1591 42.695 51.3459 42.6653 51.5373C42.6164 51.8563 42.5674 52.1799 42.5379 52.4988C42.5277 52.6173 42.5674 52.7449 42.6017 52.8668C42.6551 53.0582 42.7836 53.5344 42.886 53.5344C43.0374 53.5344 43.1557 53.5538 43.0771 53.7702C43.2683 53.7895 43.3662 53.8876 43.4788 54.0254C43.5765 54.1428 43.7233 54.374 43.968 54.2168C43.9987 54.1975 44.1159 54.2407 44.126 54.2761C44.1841 54.4925 44.8064 54.9779 45.0021 54.9676C45.2478 54.9573 45.9144 54.84 46.282 54.8195C46.2625 55.3652 46.2376 56.3609 46.1932 56.779C46.1147 57.5537 45.9486 58.0493 45.8166 58.3284C40.7154 60.8757 35.9316 63.6293 35.9316 63.6293H37.1034C38.3183 62.9469 45.7769 59.3845 51.0396 58.1621C56.3035 56.9396 63.5605 57.6266 63.5605 57.6266L64.3399 55.0405C64.3399 55.0405 62.9781 54.6828 60.9041 54.5165C60.7756 54.2048 60.6965 53.875 60.6698 53.539C60.6254 53.0639 60.6015 51.9646 60.5867 51.3175C60.6672 51.3247 60.7461 51.344 60.821 51.3744C60.87 51.3949 60.9291 51.3653 60.9883 51.3607C61.0862 51.355 61.209 51.3117 61.2772 51.355C61.4639 51.4781 61.6106 51.3892 61.7823 51.2867L61.8552 51.4393C61.9826 51.4587 62.1055 51.4336 62.1737 51.4883C62.2818 51.5818 62.3455 51.5715 62.4433 51.4883C62.5071 51.4393 62.5958 51.4245 62.6686 51.3904C62.7323 51.3653 62.8358 51.3505 62.8506 51.3015C62.919 51.0759 63.1396 51.0714 63.2762 50.9586C63.3603 50.8902 63.4286 50.8013 63.5025 50.7227C63.5367 50.6886 63.5605 50.6396 63.6049 50.6202C63.8995 50.4972 64.0508 50.2853 64.0167 49.9424C64.0019 49.8 64.0361 49.6917 64.1828 49.6234C64.2329 49.5983 64.267 49.4867 64.2761 49.4069C64.3011 49.2212 64.2716 49.015 64.4866 48.9216C64.5207 48.9068 64.5548 48.8384 64.5548 48.794C64.5548 48.6322 64.6151 48.549 64.7812 48.5775C64.7915 48.4796 64.771 48.377 64.8107 48.3269C65.0065 48.082 64.8495 47.8963 64.7278 47.6889ZM44.7723 40.9024C44.7529 40.8637 44.5425 40.8591 44.4298 40.8192C44.3322 40.7604 44.24 40.6929 44.1546 40.6176C44.1546 40.6176 44.0965 40.5686 44.0761 40.5686C44.0521 40.5686 43.8758 40.8591 43.9202 40.8978C43.9634 40.932 44.0965 40.9514 44.2671 40.9514C44.4196 40.9571 44.6597 40.9719 44.7529 40.9514C44.7723 40.9366 44.7825 40.9217 44.7723 40.9024Z" fill="#170710"/>
<path d="M43.8562 40.99C43.8414 40.9615 43.8311 40.9273 43.822 40.8977C43.8177 40.8797 43.8129 40.8618 43.8073 40.8441C43.7587 40.7544 43.6938 40.6744 43.6162 40.6083C43.6055 40.6135 43.5939 40.6167 43.582 40.6174C43.5365 40.6232 43.5023 40.6037 43.4978 40.5787C43.4932 40.5491 43.5274 40.5252 43.5717 40.5195C43.5838 40.5171 43.5964 40.5176 43.6082 40.521C43.6201 40.5243 43.631 40.5304 43.64 40.5388L43.9688 40.4409C43.838 40.3889 43.6973 40.3671 43.5569 40.3771C43.2976 40.3919 43.0371 40.5195 42.8608 40.6232C42.8449 40.6284 42.8285 40.6316 42.8118 40.6323C42.6605 40.6573 39.9643 40.9227 39.7833 40.8875C39.598 40.8533 38.6764 40.6573 38.6116 40.5104C38.549 40.368 39.2885 38.5474 39.3431 38.4392C39.6025 37.8798 39.8812 37.0846 39.8812 37.0846C39.8812 37.0846 40.2635 35.2789 39.9608 35.2049C39.9006 35.19 39.7595 35.7791 39.6082 35.8827C39.4706 35.975 39.4307 35.3518 39.2499 35.5044C39.1509 35.5877 39.1702 36.1573 39.053 35.9601C38.7049 35.3769 38.7641 36.1766 38.6855 36.2359C38.0929 36.6677 37.5832 37.1781 37.4797 37.3786C37.2293 37.7864 36.672 39.3472 36.5581 39.3426C36.3192 39.3369 34.1976 37.0414 34.0497 36.9468C33.9074 36.8488 32.8938 35.632 32.7072 34.6113C32.6583 34.3459 32.4274 34.3516 32.5115 35.6913C32.5206 35.8577 32.0315 35.0192 31.9678 35.2983C31.8937 35.6218 32.2066 35.926 32.0997 36.1766C32.0804 36.2257 31.7129 36.0103 31.7129 36.1812C31.7129 37.5563 33.226 40.5548 34.3636 40.9865C35.5013 41.4183 32.5264 41.8547 32.3739 41.9185C32.2226 41.9823 32.1099 42.1486 32.3102 42.193C32.7425 42.2614 32.276 42.5222 32.4376 42.635C32.5206 42.6544 32.6139 42.6589 32.6685 42.7182C32.722 42.7969 32.5058 43.076 32.5946 43.1158C32.6822 43.1545 33.9711 42.7034 34.4911 42.6442C34.7459 42.6157 35.5548 42.8264 36.2407 42.6442C36.9267 42.463 38.3863 41.6143 38.6958 41.5607C39.0041 41.506 43.0666 41.1962 43.0666 41.1962C43.425 41.2304 43.871 41.1232 43.9688 41.0937C43.9346 41.0993 43.8891 41.0594 43.8551 40.9911L43.8562 40.99Z" fill="#170710"/>
</svg>
