<svg width="222" height="99" viewBox="0 0 222 99" fill="none" xmlns="http://www.w3.org/2000/svg">
<path d="M201 60.2352C199.733 60.2352 198.402 60.2352 197.072 60.2352C197.072 59.9185 197.072 59.665 197.072 59.4116C197.072 56.6238 197.072 53.7727 197.072 50.985C197.072 50.7315 197.072 50.5415 197.072 50.2881C197.008 47.7537 195.931 46.6134 193.65 46.6134C191.179 46.6134 189.342 48.2606 189.278 50.5415C189.215 53.456 189.278 56.4338 189.278 59.3482C189.278 59.6016 189.278 59.9185 189.278 60.2352C187.948 60.2352 186.681 60.2352 185.351 60.2352C185.351 54.9766 185.351 49.6544 185.351 44.3324C186.554 44.3324 187.758 44.3324 188.962 44.3324C188.962 45.0294 188.962 45.7263 188.962 46.6767C190.799 44.3958 193.016 43.5722 195.614 43.8256C198.338 44.079 200.302 45.2828 201 48.1339C201 52.1254 201 56.1803 201 60.2352Z" fill="#170710"/>
<path d="M121.486 60.2352C120.093 60.2352 118.826 60.2352 117.559 60.2352C117.559 54.9131 117.559 49.6544 117.559 44.269C118.762 44.269 119.966 44.269 121.297 44.269C121.297 44.9026 121.297 45.5995 121.297 46.2331C121.36 46.2965 121.423 46.2965 121.423 46.3599C122.754 44.5858 124.591 43.7622 126.745 43.7622C128.9 43.7622 130.737 44.269 131.941 46.3599C133.018 45.0926 134.285 44.2057 135.933 43.9523C137.389 43.6988 138.847 43.7622 140.304 44.1423C142.141 44.6491 143.345 45.9164 143.409 47.8171C143.535 51.9353 143.472 56.0535 143.472 60.2352C142.269 60.2352 141.001 60.2352 139.607 60.2352C139.607 59.9183 139.607 59.6016 139.607 59.2848C139.607 56.0535 139.607 52.8223 139.544 49.6544C139.481 47.6903 138.72 46.8667 137.01 46.6766C134.918 46.4232 133.335 47.3102 132.828 49.0208C132.638 49.7178 132.575 50.4148 132.575 51.1116C132.575 54.1528 132.575 57.194 132.575 60.2985C131.244 60.2985 129.977 60.2985 128.583 60.2985C128.583 60.0451 128.583 59.7917 128.583 59.4748C128.583 56.307 128.583 53.2025 128.583 50.0345C128.583 48.8308 128.456 47.627 127.252 46.9935C125.985 46.3599 124.655 46.4232 123.388 47.1835C122.057 48.0071 121.551 49.2743 121.551 50.7949C121.551 53.646 121.551 56.497 121.551 59.4115C121.486 59.6016 121.486 59.855 121.486 60.2352Z" fill="#170710"/>
<path d="M95.3839 45.4728C94.1167 45.4728 92.7862 45.4728 91.5191 45.4728C91.3923 45.4728 91.1389 45.2828 91.0756 45.1561C90.1252 42.4318 88.0978 41.2279 85.31 41.2279C82.5223 41.2279 80.3048 42.305 78.9109 44.8393C77.2002 48.0705 77.6437 52.759 79.7979 55.42C82.2055 58.3344 88.4145 58.8413 90.5053 54.5964C90.8855 53.836 91.0756 52.949 91.3923 52.0621C92.6595 52.0621 93.99 52.0621 95.3839 52.0621C95.2571 54.2163 94.4969 56.0536 93.103 57.6376C91.5824 59.3482 89.6183 60.2985 87.3374 60.6154C83.7261 61.1855 80.3682 60.6154 77.4537 58.2078C73.9057 55.3566 72.6385 50.1613 74.1591 45.5362C75.6163 41.2279 79.4178 38.3768 84.0428 38.1234C86.5138 37.9967 88.9214 38.3135 91.2023 39.5173C93.7365 40.7844 95.3205 43.0653 95.3839 45.4728Z" fill="#170710"/>
<path d="M159.375 46.1699C159.375 43.3822 159.375 40.7846 159.375 38.1235C160.705 38.1235 161.972 38.1235 163.303 38.1235C163.303 45.473 163.303 52.8225 163.303 60.2353C162.1 60.2353 160.958 60.2353 159.628 60.2353C159.628 59.6018 159.628 58.9682 159.628 58.1446C157.601 60.6788 155.003 60.9956 152.216 60.6155C148.414 60.0453 145.88 57.3209 145.626 53.3927C145.563 52.1256 145.563 50.8584 145.816 49.6546C146.64 45.8532 149.871 43.5723 153.736 43.8257C155.954 43.8891 157.791 44.4593 159.375 46.1699ZM159.565 52.1889C159.502 51.5553 159.438 50.9851 159.312 50.4782C158.868 48.134 157.157 46.6768 154.877 46.6134C152.342 46.4867 150.505 47.7539 149.871 50.0981C149.618 51.1118 149.491 52.1256 149.555 53.1393C149.681 55.8636 151.519 57.6377 154.053 57.8911C156.523 58.0812 158.551 56.624 159.184 54.0897C159.438 53.4561 159.502 52.7592 159.565 52.1889Z" fill="#170710"/>
<path d="M109.26 58.8413C106.345 60.6788 103.304 61.2489 100.136 60.1719C97.6016 59.3482 96.5245 57.3207 97.0314 54.7865C97.3481 53.3292 98.2351 52.2522 99.629 51.872C101.403 51.3651 103.304 51.1117 105.141 50.795C106.028 50.6049 106.915 50.5415 107.802 50.3514C108.563 50.1614 109.133 49.7179 109.196 48.8309C109.26 48.0706 108.879 47.3737 108.055 46.9935C106.345 46.2966 104.634 46.2966 102.987 47.0568C102.163 47.4369 101.91 47.8805 101.53 49.0843C100.263 49.0843 98.9955 49.0843 97.6649 49.0843C97.7916 47.1836 98.6153 45.7263 100.263 44.966C103.684 43.3188 107.232 43.2554 110.653 44.8394C112.237 45.5362 112.998 46.8668 112.998 48.7042C112.998 51.1751 112.998 53.6461 112.998 56.0536C112.998 57.891 112.998 57.9543 114.898 57.891C114.898 58.5879 114.898 59.2848 114.898 59.9818C114.898 60.1085 114.708 60.3619 114.582 60.3619C113.504 60.4887 112.49 60.6788 111.413 60.6154C110.273 60.552 109.513 59.9184 109.26 58.8413ZM108.879 52.5056C107.485 52.6957 106.155 52.8857 104.824 53.1392C103.811 53.3292 102.86 53.5193 101.91 53.9628C101.086 54.2796 100.833 55.1033 100.833 55.9903C100.896 56.8139 101.403 57.2574 102.1 57.5109C104.001 58.2078 105.838 58.0811 107.549 57.0674C108.246 56.6872 108.752 56.0536 108.752 55.23C108.942 54.2796 108.879 53.3292 108.879 52.5056Z" fill="#170710"/>
<path d="M182.88 53.1392C180.663 53.1392 178.508 53.1392 176.291 53.1392C174.137 53.1392 171.919 53.1392 169.765 53.1392C169.576 55.0399 170.842 57.004 172.68 57.5742C175.277 58.3979 177.558 57.5742 178.889 55.23C180.092 55.23 181.297 55.23 182.627 55.23C182.374 56.4972 181.74 57.5108 180.853 58.3979C177.558 61.5657 171.032 61.5024 167.928 58.1444C165.457 55.4835 165.204 52.2522 166.407 49.021C167.547 45.8531 170.019 44.1425 173.377 43.8256C177.051 43.4455 180.092 44.6493 181.993 47.9439C182.817 49.5279 183.071 51.2385 182.88 53.1392ZM178.826 50.795C178.699 48.1973 176.608 46.4233 174.01 46.6134C171.603 46.8034 169.639 48.7041 169.829 50.795C172.806 50.795 175.784 50.795 178.826 50.795Z" fill="#170710"/>
<path fill-rule="evenodd" clip-rule="evenodd" d="M61.2971 61.1223H51.3499V60.0452H54.2644C54.2644 60.0452 55.8483 59.7917 55.088 58.3345C55.0247 58.2711 54.7712 58.2078 54.7712 58.2078H50.653L44.7607 60.9955V67.2679H56.2918C56.2918 67.2679 60.8536 66.2542 61.2971 61.1223Z" fill="#170710"/>
<path fill-rule="evenodd" clip-rule="evenodd" d="M26.3242 61.1223H36.2714V60.0452H33.3569C33.3569 60.0452 31.773 59.7917 32.5332 58.3345C32.5966 58.2711 32.8501 58.2078 32.8501 58.2078H36.9683L42.8605 60.9955V67.2679H31.3295C31.3295 67.2679 26.7677 66.2542 26.3242 61.1223Z" fill="#170710"/>
<path fill-rule="evenodd" clip-rule="evenodd" d="M37.3479 56.9406H27.3374V58.0177H30.2518C30.2518 58.0177 31.8358 58.2711 31.0754 59.7283C31.0121 59.7917 30.7587 59.8551 30.7587 59.8551H26.7038L20.8115 57.0673V50.7949H32.3426C32.3426 50.7949 36.841 51.8086 37.3479 56.9406Z" fill="#170710"/>
<path fill-rule="evenodd" clip-rule="evenodd" d="M61.2971 37.87H51.3499V38.9471H54.2644C54.2644 38.9471 55.8483 39.2006 55.088 40.6578C55.0247 40.7211 54.7712 40.7845 54.7712 40.7845H50.653L44.7607 37.9968V31.7244H56.2918C56.2918 31.7244 60.8536 32.7381 61.2971 37.87Z" fill="#170710"/>
<path fill-rule="evenodd" clip-rule="evenodd" d="M26.3242 37.87H36.2714V38.9471H33.3569C33.3569 38.9471 31.773 39.2006 32.5332 40.6578C32.5966 40.7211 32.8501 40.7845 32.8501 40.7845H36.9683L42.8605 37.9968V31.7244H31.3295C31.3295 31.7244 26.7677 32.7381 26.3242 37.87Z" fill="#170710"/>
<path fill-rule="evenodd" clip-rule="evenodd" d="M37.3479 42.0514H27.3374V40.9743H30.2518C30.2518 40.9743 31.8358 40.7209 31.0754 39.2637C31.0121 39.2003 30.7587 39.137 30.7587 39.137H26.7038L20.8115 41.9247V48.1971H32.3426C32.3426 48.1971 36.841 47.1834 37.3479 42.0514Z" fill="#170710"/>
<path fill-rule="evenodd" clip-rule="evenodd" d="M50.5254 42.0514H60.4726V40.9743H57.5581C57.5581 40.9743 55.9742 40.7209 56.7344 39.2637C56.7978 39.2003 57.0513 39.137 57.0513 39.137H61.1695L67.0617 41.9247V48.1971H55.5941C55.5941 48.1971 51.0323 47.1834 50.5254 42.0514Z" fill="#170710"/>
<path fill-rule="evenodd" clip-rule="evenodd" d="M50.5254 56.9406H60.4726V58.0177H57.5581C57.5581 58.0177 55.9742 58.2711 56.7344 59.7283C56.7978 59.7917 57.0513 59.8551 57.0513 59.8551H61.1695L67.0617 57.0673V50.7949H55.5941C55.5941 50.7949 51.0323 51.8086 50.5254 56.9406Z" fill="#170710"/>
</svg>
