<svg width="222" height="99" viewBox="0 0 222 99" fill="none" xmlns="http://www.w3.org/2000/svg">
<path d="M36.3802 40.4036H24.5523L22 59.6254H27.2603L28.2563 52.1326H34.2326L34.7928 47.8963H28.8166L29.2524 44.6399H35.82L36.3802 40.4036Z" fill="#170710"/>
<path d="M57.2551 40.4036H51.9947L50.563 51.3545C50.1583 54.3805 49.1312 55.3891 46.5166 55.3891C44.2133 55.3891 43.0615 54.3805 43.0615 52.3632C43.0615 51.7869 43.0927 51.3257 43.1549 50.7782L44.5245 40.4036H39.2953L37.9258 50.7782C37.7701 51.8733 37.6768 52.9108 37.6768 53.4295C37.6768 57.5217 40.945 60.0001 46.3298 60.0001C49.3802 60.0001 51.9325 59.222 53.4265 57.8387C54.765 56.6283 55.2941 55.1586 55.7922 51.5275L57.2551 40.4036Z" fill="#170710"/>
<path d="M68.7962 44.6399H73.1539L73.7142 40.4036H59.6452L59.085 44.6399H63.536L61.5439 59.6254H66.8042L68.7962 44.6399Z" fill="#170710"/>
<path d="M94.0343 40.4036H88.774L87.3422 51.3545C86.9376 54.3805 85.9105 55.3891 83.2959 55.3891C80.9925 55.3891 79.8408 54.3805 79.8408 52.3632C79.8408 51.7869 79.8719 51.3257 79.9342 50.7782L81.3038 40.4036H76.0746L74.705 50.7782C74.5494 51.8733 74.4561 52.9108 74.4561 53.4295C74.4561 57.5217 77.7242 60.0001 83.1091 60.0001C86.1594 60.0001 88.7118 59.222 90.2058 57.8387C91.5443 56.6283 92.0734 55.1586 92.5714 51.5275L94.0343 40.4036Z" fill="#170710"/>
<path d="M108.066 52.1615C111.053 51.1816 112.486 49.3084 112.486 46.369C112.486 42.3056 110.151 40.4036 105.14 40.4036H98.3853L95.833 59.6254H101.093L102.089 51.9885L107.07 59.6254H113.17L108.066 52.1615ZM103.117 44.2364H104.113C106.323 44.2364 107.101 44.8128 107.101 46.4842C107.101 48.3286 105.918 49.1931 103.397 49.1931H102.463L103.117 44.2364Z" fill="#170710"/>
<path d="M129.292 40.4036H117.931L115.378 59.6254H126.988L127.548 55.3891H121.199L121.634 52.1902H127.548L128.109 47.954H122.194L122.631 44.6399H128.731L129.292 40.4036Z" fill="#170710"/>
<path d="M141.722 48.9337L141.225 52.7666H146.018C145.582 54.5821 143.808 55.7636 141.535 55.7636C138.33 55.7636 136.058 53.5446 136.058 50.4034C136.058 46.8876 138.579 44.1498 141.816 44.1498C144.15 44.1498 145.707 45.1297 146.765 47.291L151.309 45.6484C149.597 41.902 146.516 40.0288 142.002 40.0288C135.435 40.0288 130.673 44.4668 130.673 50.5763C130.673 56.1094 134.937 59.9999 140.944 59.9999C145.52 59.9999 149.193 57.8386 150.687 54.2651C151.341 52.6513 151.652 51.0374 151.683 48.9337H141.722Z" fill="#170710"/>
<path d="M165.907 40C158.997 40 154.142 44.2363 154.142 50.2594C154.142 56.0807 158.717 59.9999 165.471 59.9999C172.163 59.9999 176.739 55.706 176.739 49.4524C176.739 43.8328 172.35 40 165.907 40ZM165.627 44.6109C169.082 44.6109 171.355 46.7435 171.355 49.9712C171.355 53.1412 168.864 55.389 165.347 55.389C161.861 55.389 159.526 53.2565 159.526 50.0864C159.526 46.9452 162.109 44.6109 165.627 44.6109Z" fill="#170710"/>
<path d="M200.26 40.4036H194.378L189.055 50.0577C188.557 50.9223 188.214 51.6716 187.873 52.6802C187.717 51.124 187.623 50.6053 187.25 49.1643L184.853 40.4036H179.25L184.697 59.6254H189.117L200.26 40.4036Z" fill="#170710"/>
</svg>
