<svg width="222" height="99" viewBox="0 0 222 99" fill="none" xmlns="http://www.w3.org/2000/svg">
<path d="M116.979 62.638C118.977 62.638 120.638 63.2771 121.964 64.5517C123.297 65.8262 123.96 67.4222 123.96 69.3453C123.96 71.2628 123.292 72.8531 121.949 74.1126C120.608 75.3721 118.909 76 116.869 76C114.924 76 113.3 75.3703 111.997 74.1126C110.694 72.8531 110.052 71.274 110.052 69.381C110.052 67.4448 110.694 65.8281 111.997 64.5686C113.3 63.2903 114.943 62.6511 116.945 62.6511L116.979 62.638ZM82.6561 62.8467V70.2191C82.6561 71.2126 82.5805 71.9699 82.4293 72.476C82.2781 73.0008 82.108 73.4132 81.8812 73.7506C81.6544 74.088 81.4088 74.3879 81.0875 74.6691C80.067 75.5689 78.7252 76 77.0621 76C75.3802 76 74.0195 75.5689 72.999 74.6879C72.6966 74.4254 72.432 74.1068 72.2241 73.7881C72.0162 73.4507 71.8273 73.0383 71.695 72.5509C71.5627 72.0636 71.4871 71.295 71.4871 70.2453V62.858H73.3391V70.2247C73.3391 71.4431 73.4714 72.2923 73.7549 72.774C74.0384 73.2426 74.4541 73.6307 75.0211 73.9174C75.588 74.2061 76.2495 74.3486 77.0243 74.3486C78.1204 74.3486 79.0087 74.0618 79.7079 73.4863C80.067 73.1733 80.3316 72.8115 80.4884 72.3879C80.6396 71.9642 80.7228 71.2444 80.7228 70.221V62.8542L80.7965 62.8467H82.6561ZM154.84 62.8467L158.301 67.306L161.799 62.8467H164L159.241 68.9407V75.7912H157.36V68.9407L152.62 62.8467H154.84ZM152.199 62.8486V64.4939H147.708V75.7912H145.867V64.4939H141.451V62.8486H152.199ZM139.536 62.8467V75.7912H137.677V62.8467H139.536ZM107.734 62.8467V75.7912H105.884V70.1539H98.6253V75.7875H96.7753V62.8486H98.6253V68.4429H105.884V62.8467H107.734ZM94.8787 62.8467V64.4939H90.3954V75.7912H88.5412V64.4939H84.1312V62.8467H94.8787ZM63.5492 62.638L63.551 62.6398H64.8496L70.6441 75.7912H68.7453L67.024 71.91H61.5126L59.9007 75.7893H58L63.5492 62.638ZM129.404 62.8467C130.727 62.8467 131.773 63.17 132.549 63.8183C133.322 64.4667 133.707 65.343 133.707 66.4528C133.707 67.2039 133.517 67.8541 133.14 68.4034C132.758 68.9453 132.215 69.3563 131.506 69.6366C131.926 69.8982 132.33 70.2719 132.73 70.739C133.13 71.2061 133.688 72.0282 134.411 73.1866C134.849 73.9153 135.211 74.4758 135.497 74.8495L136.183 75.7651H133.953L133.382 74.9056C133.363 74.8682 133.324 74.8122 133.267 74.7374L132.905 74.233L132.314 73.28L131.686 72.2711C131.285 71.7293 130.942 71.2995 130.618 71.0006C130.294 70.6829 130.009 70.4587 129.742 70.3092C129.475 70.1598 129.037 70.085 128.427 70.085H127.931V75.7482L126.136 75.7482L126.136 62.8467H129.404ZM117.059 64.517C115.569 64.517 114.346 64.9793 113.39 65.9039C112.429 66.836 111.948 68.0104 111.948 69.4457C111.948 70.8438 112.424 71.9996 113.374 72.9317C114.325 73.8637 115.542 74.3298 116.987 74.3298C118.432 74.3298 119.649 73.8637 120.619 72.913C121.588 71.9623 122.064 70.8065 122.064 69.3898C122.064 68.029 121.569 66.8732 120.6 65.9412C119.63 65.0091 118.432 64.5431 117.025 64.5431L117.059 64.517ZM64.1378 65.5609L62.2147 70.3629H66.2149L66.2187 70.3591L64.1378 65.5609ZM128.728 64.3082H128.175V68.4838H128.88C129.833 68.4838 130.481 68.4017 130.825 68.2356C131.187 68.0733 131.454 67.8251 131.663 67.4948C131.873 67.1626 131.968 66.7846 131.968 66.3626C131.968 65.9426 131.873 65.5703 131.644 65.2323C131.434 64.9077 131.129 64.6595 130.729 64.5259C130.329 64.3922 129.681 64.3158 128.766 64.3158L128.728 64.3082ZM79.8312 44.0564C82.4299 44.0564 84.5338 44.843 86.1429 46.4142C87.7521 47.9787 88.5567 49.8077 88.5567 51.8923C88.5567 54.0077 87.7409 55.8367 86.1095 57.388C84.4603 58.9371 82.3875 59.715 79.8245 59.715C77.2392 59.715 75.1219 58.9438 73.5172 57.3968C71.8902 55.8543 71.0656 54.021 71.0656 51.8923C71.0656 49.7989 71.8679 47.9699 73.4726 46.4054C75.0773 44.8408 77.1946 44.0586 79.8022 44.0586L79.8312 44.0564ZM136.089 44.0564C138.691 44.0564 140.797 44.843 142.409 46.4142C144.02 47.9787 144.823 49.8077 144.823 51.8923C144.823 54.0077 144.009 55.8367 142.375 57.388C140.746 58.9371 138.648 59.715 136.089 59.715C133.505 59.715 131.398 58.9438 129.773 57.3968C128.144 55.8543 127.332 54.021 127.332 51.8923C127.332 49.7989 128.135 47.9699 129.742 46.4054C131.349 44.8408 133.469 44.0586 136.08 44.0586L136.089 44.0564ZM151.038 44.2651L159.16 53.5813V44.2673H162.946V59.5062H159.745L151.349 49.7414V59.5062H147.563V44.2651H151.038ZM116.79 44.2651C119.39 44.2651 121.443 44.9756 122.96 46.3988C124.47 47.8175 125.225 49.6542 125.225 51.911C125.225 54.2734 124.457 56.1276 122.926 57.4826C121.393 58.8243 119.207 59.5062 116.366 59.5062H110.056V44.2673L110.052 44.2651H116.79ZM94.7694 44.2651L102.889 53.5769V44.2673L106.678 44.2673L106.678 59.5062H103.478L95.0871 49.7414V59.5062H91.2962V44.2651H94.7694ZM61.7879 44.2651V56.7131H69.5905V59.5062H58V44.2651H61.7879ZM135.972 47.1881C134.52 47.1881 133.359 47.6165 132.465 48.4754C131.572 49.3344 131.125 50.4685 131.125 51.8779C131.125 53.2762 131.55 54.4303 132.443 55.2738C133.314 56.1394 134.498 56.5833 135.95 56.5833L136.003 56.5677C137.446 56.5677 138.612 56.1349 139.497 55.2715C140.379 54.4104 140.819 53.2784 140.819 51.8757C140.819 50.4685 140.372 49.3344 139.479 48.4798C138.585 47.6187 137.424 47.1881 135.972 47.1881ZM116.252 46.9793H113.845V56.5833H116.296C117.893 56.5833 119.11 56.1353 119.955 55.2612C120.799 54.3653 121.221 53.2071 121.221 51.7868C121.221 50.3008 120.792 49.1208 119.94 48.2686C119.079 47.4163 117.857 46.9793 116.252 46.9793ZM79.7181 47.1881C78.2599 47.1881 77.0843 47.6165 76.1959 48.4754C75.3075 49.3344 74.8588 50.4685 74.8588 51.8779C74.8588 53.2762 75.3075 54.4303 76.1959 55.2738C77.0843 56.1394 78.2599 56.5833 79.7181 56.5833V56.5677C81.1674 56.5677 82.3384 56.1349 83.2246 55.2715C84.113 54.4104 84.5527 53.2784 84.5527 51.8757C84.5527 50.4685 84.113 49.3344 83.2246 48.4798C82.3384 47.6187 81.1674 47.1881 79.7181 47.1881ZM67.508 23C68.5018 23 69.4389 23.1021 70.3323 23.319C71.2257 23.5487 72.3508 23.9316 73.7127 24.5186V27.0963C71.6119 25.8712 69.5239 25.2587 67.4565 25.2587C65.5307 25.2587 63.9087 25.9223 62.5905 27.2494C61.2723 28.5766 60.6132 30.1845 60.6132 32.0986C60.6132 34.1148 61.2723 35.7483 62.5956 37.0244C63.9138 38.3005 65.6079 38.9385 67.6882 38.9385C68.6974 38.9385 69.9023 38.7088 71.3081 38.2494L71.5398 38.1729V34.4696H68.1439V32.1981H74.0655V39.6914C71.9028 40.6357 69.7479 41.1079 67.611 41.1079C64.6939 41.1079 62.3588 40.2657 60.6158 38.5557C58.8754 36.8432 58 34.7248 58 32.2237C58 29.5796 58.9063 27.3821 60.711 25.6288C62.5184 23.8729 64.7866 23 67.508 23ZM113.665 23.1251L121.569 40.9139H118.995L116.652 35.6615H109.134L106.917 40.9088H104.327L111.894 23.125L113.665 23.1251ZM119.401 23.1991L119.412 23.2016H134.128V25.4527H127.975V40.9088H125.452V25.4527H119.401V23.1991ZM103.339 23.2271V25.4782H95.8723V30.871H103.089V33.1348H95.8723V38.6297H103.583V40.8756H93.3492V23.2271H103.339ZM146.502 23.2271V25.4782H139.035V30.871H146.249V33.1348H139.035V38.6297H146.741V40.8756H136.512V23.2271H146.502ZM82.2424 23.2271C84.024 23.2271 85.4349 23.6687 86.4853 24.5543C87.5332 25.4399 88.0558 26.6369 88.0558 28.1529C88.0558 29.1789 87.7983 30.0671 87.2834 30.8174C86.7737 31.5575 86.0373 32.119 85.0796 32.5019C85.646 32.8592 86.1918 33.3696 86.7325 34.0077C87.2731 34.6457 88.0275 35.7687 89.0033 37.351C89.616 38.3464 90.1103 39.1121 90.4785 39.6225L91.4105 40.8731H88.4059L87.6387 39.6991C87.613 39.648 87.5615 39.5715 87.4842 39.4694L86.9951 38.7548L86.215 37.4531L85.3653 36.0749C84.8504 35.3399 84.3613 34.7733 83.9236 34.3394C83.4859 33.9056 83.0997 33.5993 82.7393 33.4028C82.3788 33.2241 81.7867 33.122 80.9628 33.122H80.2934V40.8501H77.8244V23.2271H82.2424ZM153.916 23.2271C155.698 23.2271 157.114 23.6687 158.159 24.5543C159.207 25.4399 159.73 26.6369 159.73 28.1529C159.73 29.1789 159.472 30.0671 158.958 30.8174C158.443 31.5575 157.711 32.119 156.751 32.5019C157.318 32.8592 157.866 33.3696 158.404 34.0077C158.945 34.6457 159.699 35.7687 160.67 37.351C161.288 38.3464 161.777 39.1121 162.15 39.6225L163.082 40.8731H160.083L159.315 39.6991C159.29 39.648 159.238 39.5715 159.161 39.4694L158.672 38.7548L157.894 37.4787L157.045 36.1005C156.525 35.3603 156.041 34.7988 155.613 34.365C155.181 33.9311 154.789 33.6248 154.439 33.4206C154.086 33.2267 153.499 33.1399 152.676 33.1399H152.016V40.8501L149.501 40.8499L149.501 23.2271H153.916ZM112.756 27.0095L110.12 33.4104H115.601L112.756 27.0095ZM81.107 25.3761H80.35V30.9578H81.3284C82.6157 30.9578 83.491 30.848 83.9545 30.626C84.4436 30.409 84.8041 30.0773 85.0615 29.6357C85.3448 29.1916 85.4735 28.6863 85.4735 28.1223C85.4735 27.5608 85.3448 27.0631 85.0358 26.6114C84.7526 26.1775 84.3407 25.8457 83.8 25.6671C83.2593 25.4884 82.384 25.3863 81.1482 25.3863L81.107 25.3761ZM152.781 25.3761H152.024V30.9578H152.984C154.264 30.9578 155.139 30.848 155.611 30.626C156.089 30.409 156.46 30.0773 156.723 29.6357C156.991 29.1916 157.122 28.6863 157.122 28.1223C157.122 27.5608 156.973 27.0631 156.684 26.6114C156.386 26.1775 155.974 25.8457 155.438 25.6671C154.897 25.4884 154.017 25.3863 152.781 25.3863V25.3761Z" fill="#170710"/>
</svg>
