<svg width="222" height="99" viewBox="0 0 222 99" fill="none" xmlns="http://www.w3.org/2000/svg">
<g clip-path="url(#clip0)">
<path fill-rule="evenodd" clip-rule="evenodd" d="M52.1539 47.2694C52.1539 41.0618 48.7425 35.6801 43.7518 33V43.7322H29.402V33C24.4105 35.6801 21 41.0627 21 47.2694C21 53.4778 24.4096 58.8613 29.402 61.5405V50.8084H43.7518V61.5405C48.7425 58.8613 52.1539 53.4778 52.1539 47.2694ZM57.3461 33.8919H65.0126V42.9267H72.178V33.8919H79.8461V59.7567H72.1771V49.5624H65.0134V59.7567H57.3461V33.8919ZM99.763 47.4352C99.763 43.8391 99.8322 40.1351 91.0356 40.1351C86.6723 40.1351 81.776 40.9985 81.5639 46.249H88.0907C88.1279 45.4347 88.5528 44.311 90.7171 44.311C91.8508 44.311 93.0217 44.781 93.0217 46.0501C93.0217 47.2453 92.0637 47.5351 91.1066 47.7171C87.5221 48.4056 80.7116 48.188 80.7116 54.128C80.7116 58.0407 83.6556 59.7567 87.2054 59.7567C89.4744 59.7567 91.6361 59.2537 93.1263 57.5404H93.199C93.1618 58.0059 93.27 58.7623 93.4466 59.2653H100.615C99.8322 58.0764 99.763 56.4924 99.763 55.0904V47.4352ZM93.0217 52.61C92.9152 54.5517 91.6751 55.5229 90.0768 55.5229C88.802 55.5229 87.8787 54.6578 87.8787 53.7962C87.8787 52.5378 88.6956 52.1427 90.255 51.7841C91.2121 51.5692 92.1701 51.3159 93.0217 50.886V52.61ZM113.518 47.6984C113.444 46.942 113.192 46.3311 112.721 45.9458C112.289 45.5507 111.676 45.3357 110.918 45.3357C108.176 45.3357 107.777 47.7046 107.777 49.9655C107.777 52.2265 108.176 54.5561 110.918 54.5561C112.469 54.5561 113.552 53.2994 113.697 51.8314H120.519C119.832 56.9089 115.827 59.7567 110.773 59.7567C105.136 59.7567 100.615 55.8663 100.615 49.9611C100.615 44.0612 105.136 40.1351 110.773 40.1351C115.681 40.1351 119.869 42.5486 120.302 47.6984H113.518ZM120.519 33.8919H127.656V46.3926L132.188 40.9699H140.244L133.59 48.056L141.289 59.7567H132.727L128.914 52.9347L127.656 54.3126V59.7567H120.519V33.8919ZM141.289 40.6275H148.033V43.0498H148.102C149.402 41.1322 151.266 40.1351 154.042 40.1351C157.324 40.1351 160.327 42.2382 160.327 46.6334V59.7567H153.334V49.7283C153.334 47.5182 153.088 45.969 151.053 45.969C149.859 45.969 148.279 46.5951 148.279 49.6561V59.7567H141.289V40.6275ZM181.096 51.5201C181.096 44.2458 177.983 40.1351 170.778 40.1351C165.04 40.1351 161.192 44.5321 161.192 49.9762C161.192 56.2445 165.567 59.7567 171.372 59.7567C175.499 59.7567 179.312 57.8927 180.713 53.881H174.24C173.686 54.7737 172.46 55.2134 171.341 55.2134C169.17 55.2134 167.981 53.6749 167.804 51.5201H181.096ZM167.843 47.825C168.156 45.7977 169.344 44.6757 171.406 44.6757C173.191 44.6757 174.448 46.0868 174.448 47.825H167.843ZM194.903 58.4385C194.336 60.1099 193.699 62.2531 192.6 63.6739C190.758 66.0365 187.922 66 185.192 66H182.003V60.2544H183.632C184.341 60.2544 185.262 60.3284 185.761 60.0734C186.184 59.8566 186.432 59.4918 186.432 58.657C186.432 57.7473 183.739 50.8057 183.35 49.7149L180.231 41.027H187.743L190.687 51.859H190.758L193.734 41.027H201L194.903 58.4385Z" fill="#170710"/>
</g>
<defs>
<clipPath id="clip0">
<rect x="21" y="33" width="180" height="33" fill="white"/>
</clipPath>
</defs>
</svg>
