<svg width="222" height="99" viewBox="0 0 222 99" fill="none" xmlns="http://www.w3.org/2000/svg">
<path d="M66.4993 45.5616C63.6517 45.5616 61.9791 47.1253 61.0899 48.0837V37.7123H56.3564V63.2864H61.0899V51.6706C61.4468 51.2079 62.8328 49.5039 64.6838 49.5039C66.3564 49.5039 66.9613 50.3937 66.9613 52.1324V63.2864H71.6955V51.1748C71.6955 47.9765 70.3065 45.5616 66.4993 45.5616Z" fill="#170710"/>
<path d="M107.361 41.2974C108.643 41.2974 109.461 41.6505 109.744 41.7939L110.848 38.2433C110.421 37.9927 109.174 37.4252 106.65 37.4252C102.237 37.4252 99.8171 40.1948 99.8171 44.3515V46.1257H97.2197V49.6432H99.8171V63.4241H104.55V49.6432H108.679V46.1257H104.55V44.7062C104.55 42.4694 105.44 41.2974 107.361 41.2974Z" fill="#170710"/>
<path d="M79.9234 46.5707C79.9234 47.7064 80.3436 48.4836 81.5133 49.7111C83.2523 51.5046 87.866 55.4238 89.9944 56.9805C91.3425 55.2149 92.0324 52.5031 92.234 48.9123L94.7016 50.5176C94.0233 54.2441 93.8896 56.1123 91.9119 58.3839C93.4693 59.5504 95.9593 61.1373 97.6064 62.034L94.0086 64.0703C92.8104 63.29 90.6858 61.8065 89.425 60.7857C86.9683 62.8189 84.4498 63.5599 81.3626 63.5599C76.5967 63.5599 73.3906 61.1373 73.3906 57.8156C73.3906 55.0645 75.3699 52.9426 78.6363 51.685C76.9869 50.0404 76.2074 48.5761 76.2074 46.7812C76.2074 43.7587 79.1446 41.4262 83.4601 41.4262C85.23 41.4262 86.8176 41.6653 87.9881 42.1433L87.0873 44.7155C86.188 44.2961 84.8708 44.0887 83.7606 44.0887C81.0629 44.0887 79.9234 45.1064 79.9234 46.5707ZM87.4171 59.2528C85.4981 57.73 81.7821 54.6767 80.1636 53.2086C77.9464 54.2873 77.0178 55.4847 77.0178 57.2188C77.0178 59.4032 79.2358 60.926 81.813 60.926C84.0898 60.926 85.6495 60.6584 87.4171 59.2528Z" fill="#170710"/>
<path d="M92.2197 39.7644C92.2197 39.7644 95.33 31.0515 103.46 31.1587C103.46 31.1587 106.91 31.2751 109.241 33.1557C109.241 33.1557 99.0398 28.2758 94.9924 41.5686L92.2197 39.7644Z" fill="#170710"/>
<path d="M146.901 46.3269C140.505 54.2132 133.099 54.0482 127.579 52.237C123.019 50.7411 119.142 47.202 115.461 39.1724C111.498 30.5205 104.373 30.3832 104.373 30.3832C105.713 30.404 107.161 30.7302 108.757 31.3694C118.583 35.2971 117.95 42.7893 124.237 47.7186C129.417 51.7813 136.93 52.9078 141.324 50.5021C142.569 49.8074 144.782 48.5406 146.901 46.3269Z" fill="#170710"/>
<path d="M151.546 34.6528C149.877 35.5673 147.885 39.3061 147.885 39.3061C146.306 42.1921 145.134 44.937 144.041 46.7721C143.456 47.7529 142.681 48.6535 141.764 49.177C141.764 49.177 146.457 47.0443 148.551 42.6624C149.929 39.7787 150.12 37.1379 151.546 34.6528Z" fill="#170710"/>
<path d="M166 24.8333C156.013 25.225 151.399 31.3031 147.97 37.7729C147.97 37.7729 152.652 28.8419 164.321 29.266L166 24.8333Z" fill="#170710"/>
<path d="M60.3283 74.3904H59.4113V71.4619C59.4113 70.6763 59.1401 70.283 58.6009 70.283C58.2015 70.283 57.7449 70.5059 57.2319 70.9538V74.3904H56.335V67.1919H57.2319V70.1304C57.8082 69.6824 58.3621 69.4588 58.8913 69.4588C59.2923 69.4588 59.6175 69.5845 59.8702 69.8358C60.1753 70.1404 60.3283 70.6045 60.3283 71.2283V74.3904Z" fill="#170710"/>
<path d="M64.2407 73.2719V72.113L63.3731 72.1431C62.633 72.17 62.2645 72.4314 62.2645 72.9264C62.2645 73.1709 62.3402 73.3675 62.4908 73.5163C62.6423 73.6651 62.8586 73.7399 63.1413 73.7399C63.5577 73.7399 63.9239 73.5841 64.2407 73.2719ZM65.2597 74.3907H64.5049L64.311 73.9327C63.917 74.3058 63.4318 74.4924 62.8547 74.4924C62.4337 74.4924 62.0767 74.3544 61.7855 74.0807C61.4927 73.8062 61.3467 73.4454 61.3467 72.9974C61.3467 72.5162 61.5159 72.1384 61.8542 71.8639C62.1926 71.5894 62.677 71.4422 63.3067 71.4214L64.2407 71.3913V71.2078C64.2407 70.537 63.9092 70.2016 63.2456 70.2016C62.8053 70.2016 62.3865 70.3404 61.9871 70.6179L61.6526 70.008C62.1756 69.6426 62.7628 69.4591 63.414 69.4591C64.576 69.4591 65.1569 70.015 65.1569 71.1268V72.7437C65.1569 73.6651 65.1901 74.2141 65.2597 74.3907Z" fill="#170710"/>
<path d="M73.3883 74.3904H72.4721V71.3C72.4721 70.9608 72.428 70.7102 72.3399 70.5475C72.2264 70.3501 72.0232 70.2522 71.7343 70.2522C71.3039 70.2522 70.8404 70.4727 70.3429 70.913V71.1574V74.3904H69.4243V71.3193C69.4243 70.6076 69.1763 70.2522 68.678 70.2522C68.2616 70.2522 67.8012 70.4758 67.2959 70.923V74.3904H66.3789V69.5814H67.1321L67.2449 70.1404C67.822 69.6862 68.3899 69.4588 68.9461 69.4588C69.551 69.4588 69.9551 69.7202 70.1582 70.2422C70.7353 69.7202 71.3163 69.4588 71.9011 69.4588C72.8923 69.4588 73.3883 69.9777 73.3883 71.0147V74.3904Z" fill="#170710"/>
<path d="M81.6504 74.3904H80.7342V71.3C80.7342 70.9608 80.6901 70.7102 80.6021 70.5475C80.4885 70.3501 80.2869 70.2522 79.9972 70.2522C79.5661 70.2522 79.1018 70.4727 78.605 70.913V71.1574V74.3904H77.688V71.3193C77.688 70.6076 77.4385 70.2522 76.9417 70.2522C76.5245 70.2522 76.0633 70.4758 75.5588 70.923V74.3904H74.6426V69.5814H75.3958L75.5071 70.1404C76.0857 69.6862 76.652 69.4588 77.209 69.4588C77.8139 69.4588 78.2172 69.7202 78.4219 70.2422C78.999 69.7202 79.58 69.4588 80.1633 69.4588C81.1552 69.4588 81.6504 69.9777 81.6504 71.0147V74.3904Z" fill="#170710"/>
<path d="M85.7355 71.4727C85.7355 71.1265 85.6482 70.8351 85.4713 70.5984C85.2766 70.327 85.0155 70.1913 84.6918 70.1913C84.3665 70.1913 84.1054 70.3154 83.9053 70.5629C83.706 70.8104 83.6063 71.1134 83.6063 71.4727H85.7355ZM86.6935 72.1744H83.6063C83.6063 72.6123 83.7415 72.9786 84.0135 73.2754C84.2854 73.5723 84.6562 73.7196 85.1236 73.7196C85.5246 73.7196 85.9163 73.6116 86.2964 73.3942L86.5513 73.9941C86.1094 74.3264 85.5764 74.4929 84.9514 74.4929C84.2112 74.4929 83.6334 74.2323 83.2193 73.7095C82.8461 73.2415 82.6592 72.6447 82.6592 71.9199C82.6592 71.2152 82.8461 70.6292 83.2193 70.1604C83.5932 69.6932 84.0853 69.4588 84.6972 69.4588C85.3214 69.4588 85.8097 69.6847 86.1643 70.1357C86.5166 70.5868 86.6935 71.1882 86.6935 71.94V72.1744Z" fill="#170710"/>
<path d="M90.4928 69.622L90.1375 70.4562C89.9953 70.3814 89.8292 70.3437 89.6415 70.3437C89.3101 70.3437 88.9755 70.5202 88.6387 70.8726V74.3909H87.7217V69.5811H88.4749L88.5869 70.1208C89.0698 69.6798 89.5202 69.4593 89.942 69.4593C90.1521 69.4593 90.3368 69.5132 90.4928 69.622Z" fill="#170710"/>
<path d="M93.9468 73.048C93.9468 73.5299 93.7598 73.8993 93.3867 74.1568C93.0606 74.3804 92.6257 74.4922 92.0834 74.4922C91.4916 74.4922 90.9755 74.3603 90.5352 74.0959L90.8612 73.4143C91.2366 73.6649 91.6422 73.7905 92.0787 73.7905C92.3653 73.7905 92.5948 73.7335 92.7686 73.6178C92.9424 73.5029 93.0297 73.3433 93.0297 73.1398C93.0297 72.856 92.8389 72.6178 92.4573 72.4289C92.1027 72.2515 91.7473 72.0757 91.3935 71.8999C91.0111 71.6285 90.8202 71.2553 90.8202 70.7811C90.8202 70.3948 90.9632 70.0779 91.2529 69.8304C91.5418 69.5829 91.9567 69.4588 92.5005 69.4588C92.9625 69.4588 93.3867 69.5444 93.7745 69.7132V70.4866C93.3048 70.29 92.8907 70.1913 92.5314 70.1913C91.9806 70.1913 91.7064 70.3748 91.7064 70.7403C91.7064 70.9978 91.9003 71.2222 92.2858 71.4119C92.9865 71.7573 93.3457 71.9369 93.3674 71.9508C93.7529 72.2215 93.9468 72.5877 93.9468 73.048Z" fill="#170710"/>
<path d="M101.922 74.3904H101.006V71.3C101.006 70.9608 100.962 70.7102 100.874 70.5475C100.76 70.3501 100.558 70.2522 100.269 70.2522C99.8383 70.2522 99.374 70.4727 98.8765 70.913V71.1574V74.3904H97.9602V71.3193C97.9602 70.6076 97.7107 70.2522 97.2132 70.2522C96.7968 70.2522 96.3348 70.4758 95.8311 70.923V74.3904H94.9141V69.5814H95.6673L95.7793 70.1404C96.3572 69.6862 96.9235 69.4588 97.4813 69.4588C98.0854 69.4588 98.4895 69.7202 98.6934 70.2422C99.2705 69.7202 99.8515 69.4588 100.436 69.4588C101.427 69.4588 101.922 69.9777 101.922 71.0147V74.3904Z" fill="#170710"/>
<path d="M104.205 74.3904H103.308V69.5814H104.205V74.3904ZM103.757 67.4764C103.92 67.4764 104.061 67.5342 104.18 67.6491C104.298 67.7648 104.358 67.9028 104.358 68.0662C104.358 68.2289 104.298 68.3692 104.18 68.4888C104.061 68.6067 103.92 68.6661 103.757 68.6661C103.587 68.6661 103.444 68.6083 103.329 68.4934C103.213 68.3778 103.156 68.2359 103.156 68.0662C103.156 67.9028 103.213 67.7648 103.329 67.6491C103.444 67.5342 103.587 67.4764 103.757 67.4764Z" fill="#170710"/>
<path d="M108.453 74.0039C108.005 74.33 107.543 74.4919 107.068 74.4919C106.341 74.4919 105.978 74.1396 105.978 73.4348V70.3028H105.173V69.5812H105.978V68.5032L106.894 68.2179V69.5812H108.372L108.079 70.3028H106.894V73.138C106.894 73.5258 107.049 73.7186 107.36 73.7186C107.629 73.7186 107.906 73.6114 108.19 73.394L108.453 74.0039Z" fill="#170710"/>
<path d="M113.242 74.3904H112.324V71.4619C112.324 70.6763 112.055 70.283 111.514 70.283C111.115 70.283 110.658 70.5059 110.144 70.9538V74.3904H109.248V67.1919H110.144V70.1304C110.721 69.6824 111.275 69.4588 111.805 69.4588C112.206 69.4588 112.532 69.5845 112.783 69.8358C113.088 70.1404 113.242 70.6045 113.242 71.2283V74.3904Z" fill="#170710"/>
<path d="M120.189 69.1439C120.189 68.9411 120.128 68.7676 120.008 68.6258C119.853 68.4361 119.631 68.3413 119.344 68.3413C119.074 68.3413 118.864 68.423 118.711 68.5849C118.581 68.7206 118.518 68.8794 118.518 69.0622C118.518 69.3675 118.746 69.7877 119.203 70.3236C119.86 69.9844 120.189 69.5911 120.189 69.1439ZM120.709 73.1225C120.043 72.5142 119.435 71.8834 118.885 71.2288C118.206 71.5118 117.866 71.9405 117.866 72.5142C117.866 72.8658 117.987 73.1564 118.228 73.3862C118.469 73.6152 118.793 73.7301 119.2 73.7301C119.765 73.7301 120.267 73.5273 120.709 73.1225ZM123.561 74.3068C123.405 74.3963 123.201 74.4418 122.95 74.4418C122.501 74.4418 121.954 74.1673 121.31 73.6183C120.616 74.2081 119.843 74.5027 118.987 74.5027C118.356 74.5027 117.847 74.3092 117.459 73.9229C117.098 73.5566 116.919 73.1094 116.919 72.5805C116.919 71.713 117.414 71.0731 118.406 70.659C118.121 70.3475 117.927 70.0992 117.825 69.9173C117.675 69.6597 117.601 69.3745 117.601 69.0622C117.601 68.6628 117.766 68.322 118.096 68.0413C118.425 67.7599 118.85 67.6188 119.374 67.6188C119.89 67.6188 120.307 67.7568 120.626 68.0305C120.946 68.305 121.105 68.6597 121.105 69.093C121.105 69.7847 120.64 70.3745 119.71 70.8626C120.226 71.4794 120.786 72.0515 121.39 72.5805C121.9 72.0515 122.223 71.5303 122.359 71.0145L123.123 71.2057C122.953 71.8025 122.562 72.4193 121.952 73.0562C122.454 73.505 122.875 73.7301 123.215 73.7301H123.387L123.561 74.3068Z" fill="#170710"/>
<path d="M129.529 67.3751L129.348 68.066C129.166 67.9781 128.97 67.9341 128.761 67.9341C128.35 67.9341 128.145 68.1924 128.145 68.7067V69.5811H129.398L129.114 70.3136H128.145V74.3909H127.228V70.3136H126.597V69.5811H127.228V68.7885C127.228 68.2055 127.4 67.7753 127.746 67.4969C128.012 67.2934 128.341 67.1924 128.735 67.1924C129.027 67.1924 129.292 67.2525 129.529 67.3751Z" fill="#170710"/>
<path d="M134.083 74.3907H133.351L133.158 73.9026C132.703 74.2958 132.189 74.4924 131.619 74.4924C131.218 74.4924 130.886 74.3775 130.62 74.1462C130.274 73.8486 130.101 73.3806 130.101 72.7437V69.5816H131.018V72.672C131.018 73.3837 131.317 73.7399 131.92 73.7399C132.366 73.7399 132.754 73.5533 133.086 73.1809V69.5816H133.983V72.6011C133.983 73.6042 134.015 74.201 134.083 74.3907Z" fill="#170710"/>
<path d="M137.009 74.2989C136.764 74.4277 136.516 74.4924 136.265 74.4924C135.647 74.4924 135.338 74.1771 135.338 73.5464V67.1922H136.234V73.15C136.234 73.3258 136.254 73.4515 136.296 73.5255C136.344 73.6281 136.448 73.679 136.611 73.679C136.707 73.679 136.801 73.6651 136.896 73.6381L137.009 74.2989Z" fill="#170710"/>
<path d="M141.787 74.3904H140.869V71.4619C140.869 70.6763 140.6 70.283 140.058 70.283C139.659 70.283 139.203 70.5059 138.69 70.9538V74.3904H137.793V67.1919H138.69V70.1304C139.266 69.6824 139.819 69.4588 140.35 69.4588C140.751 69.4588 141.077 69.5845 141.328 69.8358C141.633 70.1404 141.787 70.6045 141.787 71.2283V74.3904Z" fill="#170710"/>
<path d="M145.699 73.2719V72.113L144.831 72.1431C144.091 72.17 143.722 72.4314 143.722 72.9264C143.722 73.1709 143.798 73.3675 143.949 73.5163C144.1 73.6651 144.317 73.7399 144.599 73.7399C145.016 73.7399 145.382 73.5841 145.699 73.2719ZM146.718 74.3907H145.963L145.769 73.9327C145.375 74.3058 144.89 74.4924 144.313 74.4924C143.892 74.4924 143.536 74.3544 143.243 74.0807C142.95 73.8062 142.805 73.4454 142.805 72.9974C142.805 72.5162 142.974 72.1384 143.312 71.8639C143.651 71.5894 144.134 71.4422 144.765 71.4214L145.699 71.3913V71.2078C145.699 70.537 145.367 70.2016 144.704 70.2016C144.263 70.2016 143.844 70.3404 143.445 70.6179L143.111 70.008C143.633 69.6426 144.222 69.4591 144.872 69.4591C146.035 69.4591 146.615 70.015 146.615 71.1268V72.7437C146.615 73.6651 146.648 74.2141 146.718 74.3907Z" fill="#170710"/>
<path d="M154.846 74.3904H153.929V71.3C153.929 70.9608 153.886 70.7102 153.798 70.5475C153.684 70.3501 153.481 70.2522 153.192 70.2522C152.762 70.2522 152.298 70.4727 151.8 70.913V71.1574V74.3904H150.883V71.3193C150.883 70.6076 150.634 70.2522 150.136 70.2522C149.72 70.2522 149.259 70.4758 148.754 70.923V74.3904H147.837V69.5814H148.59L148.703 70.1404C149.28 69.6862 149.848 69.4588 150.403 69.4588C151.008 69.4588 151.413 69.7202 151.615 70.2422C152.193 69.7202 152.774 69.4588 153.359 69.4588C154.35 69.4588 154.846 69.9777 154.846 71.0147V74.3904Z" fill="#170710"/>
</svg>
