<svg width="216" height="76" viewBox="0 0 216 76" fill="none" xmlns="http://www.w3.org/2000/svg">
<path d="M40.4174 31.7717C36.0983 31.7717 33.5614 34.1434 32.2127 35.597V19.8663H25.0332V58.6558H32.2127V41.0375C32.754 40.3358 34.8562 37.7512 37.6638 37.7512C40.2006 37.7512 41.1181 39.1008 41.1181 41.738V58.6558H48.2988V40.2855C48.2988 35.4345 46.1919 31.7717 40.4174 31.7717Z" fill="#170710"/>
<path d="M102.395 25.3038C104.339 25.3038 105.579 25.8394 106.01 26.057L107.684 20.6715C107.036 20.2914 105.145 19.4307 101.317 19.4307C94.6222 19.4307 90.9522 23.6314 90.9522 29.9361V32.6271H87.0127V37.9623H90.9522V58.8645H98.1305V37.9623H104.394V32.6271H98.1305V30.4741C98.1305 27.0814 99.4815 25.3038 102.395 25.3038Z" fill="#170710"/>
<path d="M60.7777 33.3019C60.7777 35.0245 61.4151 36.2034 63.1892 38.0652C65.8268 40.7854 72.8247 46.7299 76.0529 49.0911C78.0977 46.413 79.1441 42.2999 79.4499 36.8536L83.1925 39.2885C82.1637 44.9406 81.961 47.7742 78.9613 51.2195C81.3236 52.989 85.1002 55.3958 87.5984 56.7559L82.1415 59.8445C80.324 58.661 77.1017 56.4109 75.1893 54.8625C71.4631 57.9464 67.6431 59.0703 62.9607 59.0703C55.732 59.0703 50.8691 55.3958 50.8691 50.3576C50.8691 46.1849 53.8712 42.9665 58.8255 41.0591C56.3238 38.5645 55.1414 36.3437 55.1414 33.6211C55.1414 29.0368 59.5965 25.4991 66.1421 25.4991C68.8266 25.4991 71.2346 25.8616 73.0098 26.5867L71.6435 30.4881C70.2796 29.8519 68.2817 29.5373 66.5979 29.5373C62.506 29.5373 60.7777 31.081 60.7777 33.3019ZM72.1439 52.5375C69.2332 50.2278 63.597 45.5967 61.1421 43.37C57.7791 45.0061 56.3706 46.8223 56.3706 49.4524C56.3706 52.7656 59.7348 55.0753 63.6438 55.0753C67.097 55.0753 69.4629 54.6695 72.1439 52.5375Z" fill="#170710"/>
<path d="M79.4287 22.9785C79.4287 22.9785 84.1463 9.76332 96.4769 9.92588C96.4769 9.92588 101.71 10.1025 105.246 12.9548C105.246 12.9548 89.7731 5.55318 83.6342 25.7151L79.4287 22.9785Z" fill="#170710"/>
<path d="M162.366 32.9323C152.665 44.8938 141.432 44.6435 133.06 41.8964C126.144 39.6276 120.263 34.2597 114.68 22.0806C108.668 8.95786 97.8623 8.7497 97.8623 8.7497C99.8942 8.78127 102.091 9.27596 104.512 10.2455C119.416 16.2028 118.455 27.5667 127.991 35.0432C135.848 41.2052 147.243 42.9138 153.907 39.2651C155.796 38.2113 159.153 36.2899 162.366 32.9323Z" fill="#170710"/>
<path d="M169.411 15.2255C166.88 16.6126 163.859 22.2834 163.859 22.2834C161.463 26.6608 159.687 30.8241 158.029 33.6075C157.142 35.0951 155.965 36.461 154.574 37.2551C154.574 37.2551 161.693 34.0203 164.869 27.3742C166.959 23.0003 167.248 18.9948 169.411 15.2255Z" fill="#170710"/>
<path d="M191.335 0.331965C176.187 0.926063 169.189 10.1451 163.987 19.9583C163.987 19.9583 171.089 6.41212 188.788 7.05533L191.335 0.331965Z" fill="#170710"/>
<path d="M31.0569 75.4978H29.666V71.0561C29.666 69.8644 29.2547 69.268 28.4368 69.268C27.831 69.268 27.1385 69.6059 26.3604 70.2854V75.4978H25V64.5795H26.3604V69.0364C27.2346 68.3569 28.0747 68.0178 28.8774 68.0178C29.4856 68.0178 29.9789 68.2084 30.362 68.5897C30.8249 69.0516 31.0569 69.7556 31.0569 70.7017V75.4978Z" fill="#170710"/>
<path d="M36.991 73.8013V72.0436L35.6751 72.0892C34.5526 72.1301 33.9936 72.5266 33.9936 73.2774C33.9936 73.6481 34.1085 73.9463 34.337 74.172C34.5666 74.3977 34.8947 74.5112 35.3236 74.5112C35.9552 74.5112 36.5106 74.2749 36.991 73.8013V73.8013ZM38.5366 75.4982H37.3918L37.0977 74.8035C36.5001 75.3696 35.7642 75.6526 34.8889 75.6526C34.2502 75.6526 33.7089 75.4433 33.2671 75.0281C32.823 74.6117 32.6016 74.0644 32.6016 73.385C32.6016 72.6552 32.8582 72.0822 33.3714 71.6658C33.8847 71.2495 34.6194 71.0261 35.5744 70.9945L36.991 70.9489V70.6706C36.991 69.6531 36.4883 69.1444 35.4818 69.1444C34.8139 69.1444 34.1788 69.3549 33.573 69.7759L33.0656 68.8509C33.8589 68.2965 34.7494 68.0182 35.7372 68.0182C37.4996 68.0182 38.3808 68.8614 38.3808 70.5478V73.0002C38.3808 74.3977 38.4311 75.2304 38.5366 75.4982" fill="#170710"/>
<path d="M50.8659 75.4978H49.4762V70.8105C49.4762 70.2959 49.4094 69.9159 49.2758 69.6691C49.1035 69.3697 48.7954 69.2212 48.3571 69.2212C47.7044 69.2212 47.0014 69.5556 46.2468 70.2234V70.5942V75.4978H44.8535V70.8397C44.8535 69.7603 44.4774 69.2212 43.7216 69.2212C43.09 69.2212 42.3916 69.5603 41.6253 70.2386V75.4978H40.2344V68.2037H41.3769L41.5479 69.0516C42.4232 68.3628 43.2845 68.0178 44.1282 68.0178C45.0457 68.0178 45.6585 68.4142 45.9667 69.206C46.842 68.4142 47.7232 68.0178 48.6102 68.0178C50.1136 68.0178 50.8659 68.8048 50.8659 70.3778V75.4978Z" fill="#170710"/>
<path d="M63.3967 75.4978H62.007V70.8105C62.007 70.2959 61.9402 69.9159 61.8066 69.6691C61.6344 69.3697 61.3286 69.2212 60.8891 69.2212C60.2353 69.2212 59.5311 69.5556 58.7776 70.2234V70.5942V75.4978H57.3867V70.8397C57.3867 69.7603 57.0082 69.2212 56.2548 69.2212C55.622 69.2212 54.9225 69.5603 54.1573 70.2386V75.4978H52.7676V68.2037H53.9101L54.0788 69.0516C54.9565 68.3628 55.8154 68.0178 56.6602 68.0178C57.5777 68.0178 58.1894 68.4142 58.4999 69.206C59.3752 68.4142 60.2564 68.0178 61.1411 68.0178C62.6456 68.0178 63.3967 68.8048 63.3967 70.3778V75.4978Z" fill="#170710"/>
<path d="M69.5928 71.0722C69.5928 70.5471 69.4604 70.105 69.192 69.746C68.8967 69.3344 68.5007 69.1285 68.0097 69.1285C67.5164 69.1285 67.1203 69.3168 66.8168 69.6922C66.5145 70.0676 66.3634 70.5272 66.3634 71.0722H69.5928ZM71.0458 72.1364H66.3634C66.3634 72.8007 66.5684 73.3562 66.9809 73.8065C67.3933 74.2567 67.9558 74.4801 68.6647 74.4801C69.2729 74.4801 69.867 74.3164 70.4435 73.9866L70.8302 74.8964C70.1599 75.4005 69.3514 75.6531 68.4034 75.6531C67.2809 75.6531 66.4044 75.2578 65.7763 74.4649C65.2103 73.755 64.9268 72.8498 64.9268 71.7505C64.9268 70.6816 65.2103 69.7928 65.7763 69.0817C66.3434 68.373 67.0899 68.0175 68.0179 68.0175C68.9647 68.0175 69.7053 68.3602 70.2431 69.0443C70.7774 69.7285 71.0458 70.6407 71.0458 71.7809V72.1364Z" fill="#170710"/>
<path d="M76.8096 68.265L76.2706 69.5304C76.055 69.417 75.803 69.3597 75.5183 69.3597C75.0156 69.3597 74.5082 69.6275 73.9973 70.1619V75.4983H72.6064V68.2031H73.7489L73.9188 69.0217C74.6512 68.3527 75.3343 68.0183 75.9741 68.0183C76.2929 68.0183 76.5729 68.1001 76.8096 68.265Z" fill="#170710"/>
<path d="M82.0476 73.4617C82.0476 74.1926 81.764 74.7528 81.1981 75.1434C80.7036 75.4825 80.0439 75.6521 79.2213 75.6521C78.3237 75.6521 77.541 75.4521 76.873 75.051L77.3675 74.0172C77.937 74.3972 78.5522 74.5879 79.2143 74.5879C79.649 74.5879 79.997 74.5013 80.2607 74.3259C80.5243 74.1517 80.6567 73.9096 80.6567 73.6008C80.6567 73.1705 80.3673 72.8091 79.7884 72.5226C79.2506 72.2536 78.7116 71.9869 78.1749 71.7203C77.5949 71.3086 77.3054 70.7426 77.3054 70.0234C77.3054 69.4375 77.5222 68.9568 77.9616 68.5814C78.3999 68.206 79.0291 68.0177 79.854 68.0177C80.5548 68.0177 81.1981 68.1475 81.7863 68.4036V69.5766C81.0739 69.2784 80.4458 69.1287 79.9009 69.1287C79.0654 69.1287 78.6495 69.407 78.6495 69.9614C78.6495 70.352 78.9436 70.6923 79.5283 70.98C80.5911 71.5039 81.136 71.7764 81.1688 71.7975C81.7535 72.208 82.0476 72.7635 82.0476 73.4617Z" fill="#170710"/>
<path d="M94.1448 75.4978H92.7551V70.8105C92.7551 70.2959 92.6883 69.9159 92.5547 69.6691C92.3824 69.3697 92.0766 69.2212 91.6384 69.2212C90.9845 69.2212 90.2803 69.5556 89.5257 70.2234V70.5942V75.4978H88.1359V70.8397C88.1359 69.7603 87.7574 69.2212 87.0028 69.2212C86.3712 69.2212 85.6705 69.5603 84.9065 70.2386V75.4978H83.5156V68.2037H84.6581L84.828 69.0516C85.7045 68.3628 86.5634 68.0178 87.4094 68.0178C88.3258 68.0178 88.9386 68.4142 89.2479 69.206C90.1233 68.4142 91.0044 68.0178 91.8903 68.0178C93.3949 68.0178 94.1448 68.8048 94.1448 70.3778V75.4978Z" fill="#170710"/>
<path d="M97.6079 75.4978H96.2474V68.2037H97.6079V75.4978ZM96.9283 65.011C97.1755 65.011 97.3888 65.0987 97.5692 65.2729C97.7485 65.4484 97.8387 65.6577 97.8387 65.9057C97.8387 66.1524 97.7485 66.3652 97.5692 66.5465C97.3888 66.7254 97.1755 66.8155 96.9283 66.8155C96.6705 66.8155 96.4525 66.7278 96.2779 66.5536C96.1033 66.3781 96.0166 66.1629 96.0166 65.9057C96.0166 65.6577 96.1033 65.4484 96.2779 65.2729C96.4525 65.0987 96.6705 65.011 96.9283 65.011Z" fill="#170710"/>
<path d="M104.051 74.9116C103.371 75.4063 102.67 75.6519 101.95 75.6519C100.847 75.6519 100.296 75.1174 100.296 74.0485V69.298H99.0752V68.2034H100.296V66.5685L101.686 66.1358V68.2034H103.928L103.483 69.298H101.686V73.5982C101.686 74.1865 101.921 74.4789 102.392 74.4789C102.8 74.4789 103.221 74.3163 103.652 73.9865L104.051 74.9116Z" fill="#170710"/>
<path d="M111.314 75.4978H109.922V71.0561C109.922 69.8644 109.513 69.268 108.693 69.268C108.087 69.268 107.394 69.6059 106.615 70.2854V75.4978H105.256V64.5795H106.615V69.0364C107.49 68.3569 108.331 68.0178 109.134 68.0178C109.743 68.0178 110.237 68.2084 110.618 68.5897C111.081 69.0516 111.314 69.7556 111.314 70.7017V75.4978Z" fill="#170710"/>
<path d="M121.851 67.54C121.851 67.2325 121.758 66.9693 121.575 66.7542C121.341 66.4665 121.005 66.3226 120.569 66.3226C120.16 66.3226 119.841 66.4466 119.608 66.6922C119.412 66.898 119.316 67.1389 119.316 67.4161C119.316 67.8792 119.662 68.5166 120.354 69.3294C121.352 68.8148 121.851 68.2183 121.851 67.54ZM122.639 73.5746C121.629 72.6519 120.707 71.6952 119.873 70.7023C118.843 71.1315 118.327 71.7818 118.327 72.6519C118.327 73.1852 118.511 73.626 118.877 73.9746C119.241 74.3219 119.733 74.4961 120.351 74.4961C121.207 74.4961 121.969 74.1886 122.639 73.5746V73.5746ZM126.966 75.3709C126.728 75.5066 126.419 75.5756 126.038 75.5756C125.358 75.5756 124.528 75.1592 123.551 74.3266C122.499 75.2212 121.326 75.668 120.027 75.668C119.07 75.668 118.298 75.3744 117.71 74.7885C117.162 74.233 116.891 73.5547 116.891 72.7524C116.891 71.4368 117.642 70.4661 119.146 69.8381C118.714 69.3656 118.42 68.989 118.265 68.713C118.038 68.3224 117.925 67.8897 117.925 67.4161C117.925 66.8103 118.175 66.2934 118.675 65.8677C119.174 65.4408 119.82 65.2268 120.615 65.2268C121.397 65.2268 122.03 65.4361 122.514 65.8513C122.999 66.2676 123.24 66.8056 123.24 67.4629C123.24 68.5119 122.534 69.4065 121.124 70.1468C121.907 71.0824 122.757 71.9502 123.673 72.7524C124.446 71.9502 124.935 71.1596 125.142 70.3772L126.301 70.6673C126.043 71.5724 125.45 72.508 124.525 73.474C125.285 74.1547 125.925 74.4961 126.441 74.4961H126.701L126.966 75.3709Z" fill="#170710"/>
<path d="M136.017 64.8572L135.742 65.905C135.467 65.7717 135.169 65.705 134.853 65.705C134.229 65.705 133.918 66.0968 133.918 66.8769V68.203H135.818L135.388 69.3141H133.918V75.4983H132.527V69.3141H131.569V68.203H132.527V67.0008C132.527 66.1167 132.788 65.4641 133.313 65.0419C133.716 64.7332 134.215 64.58 134.813 64.58C135.256 64.58 135.658 64.6712 136.017 64.8572Z" fill="#170710"/>
<path d="M142.924 75.498H141.813L141.521 74.7577C140.83 75.3541 140.051 75.6523 139.186 75.6523C138.579 75.6523 138.074 75.4781 137.671 75.1272C137.146 74.6758 136.884 73.9659 136.884 72.9999V68.2039H138.275V72.8912C138.275 73.9706 138.729 74.5109 139.643 74.5109C140.319 74.5109 140.908 74.2279 141.412 73.663V68.2039H142.772V72.7836C142.772 74.3051 142.821 75.2103 142.924 75.498Z" fill="#170710"/>
<path d="M147.362 75.359C146.99 75.5544 146.614 75.6526 146.233 75.6526C145.296 75.6526 144.827 75.1743 144.827 74.2176V64.5799H146.186V73.6165C146.186 73.8832 146.217 74.0738 146.28 74.1861C146.353 74.3416 146.511 74.4188 146.758 74.4188C146.904 74.4188 147.046 74.3977 147.191 74.3568L147.362 75.359Z" fill="#170710"/>
<path d="M154.61 75.4978H153.218V71.0561C153.218 69.8644 152.809 69.268 151.987 69.268C151.383 69.268 150.69 69.6059 149.912 70.2854V75.4978H148.552V64.5795H149.912V69.0364C150.786 68.3569 151.625 68.0178 152.43 68.0178C153.038 68.0178 153.533 68.2084 153.914 68.5897C154.377 69.0516 154.61 69.7556 154.61 70.7017V75.4978Z" fill="#170710"/>
<path d="M160.543 73.8013V72.0436L159.227 72.0892C158.104 72.1301 157.545 72.5266 157.545 73.2774C157.545 73.6481 157.66 73.9463 157.889 74.172C158.118 74.3977 158.446 74.5112 158.875 74.5112C159.507 74.5112 160.062 74.2749 160.543 73.8013V73.8013ZM162.088 75.4982H160.944L160.649 74.8035C160.052 75.3696 159.316 75.6526 158.441 75.6526C157.802 75.6526 157.262 75.4433 156.819 75.0281C156.374 74.6117 156.153 74.0644 156.153 73.385C156.153 72.6552 156.41 72.0822 156.923 71.6658C157.436 71.2495 158.17 71.0261 159.126 70.9945L160.543 70.9489V70.6706C160.543 69.6531 160.04 69.1444 159.035 69.1444C158.366 69.1444 157.729 69.3549 157.125 69.7759L156.617 68.8509C157.409 68.2965 158.302 68.0182 159.289 68.0182C161.053 68.0182 161.933 68.8614 161.933 70.5478V73.0002C161.933 74.3977 161.983 75.2304 162.088 75.4982" fill="#170710"/>
<path d="M174.417 75.4978H173.026V70.8105C173.026 70.2959 172.96 69.9159 172.827 69.6691C172.654 69.3697 172.346 69.2212 171.908 69.2212C171.255 69.2212 170.551 69.5556 169.796 70.2234V70.5942V75.4978H168.405V70.8397C168.405 69.7603 168.028 69.2212 167.272 69.2212C166.641 69.2212 165.942 69.5603 165.176 70.2386V75.4978H163.785V68.2037H164.928L165.099 69.0516C165.974 68.3628 166.835 68.0178 167.678 68.0178C168.595 68.0178 169.209 68.4142 169.516 69.206C170.393 68.4142 171.273 68.0178 172.161 68.0178C173.664 68.0178 174.417 68.8048 174.417 70.3778V75.4978Z" fill="#170710"/>
</svg>
