<svg width="222" height="99" viewBox="0 0 222 99" fill="none" xmlns="http://www.w3.org/2000/svg">
<circle cx="129.337" cy="68.3375" r="20.6625" fill="#170710"/>
<path fill-rule="evenodd" clip-rule="evenodd" d="M114.325 53.1635C114.325 53.1635 114.729 38.5716 114.729 32.6625C114.729 21.2509 105.074 12 93.6625 12C82.2509 12 73 21.2509 73 32.6625C73 44.074 82.2509 53.5671 93.6625 53.5671C99.1649 53.5671 114.325 53.1635 114.325 53.1635ZM93.9855 44.4466C100.404 44.4466 105.608 39.2429 105.608 32.8239C105.608 26.4049 100.404 21.2013 93.9855 21.2013C87.5664 21.2013 82.3628 26.4049 82.3628 32.8239C82.3628 39.2429 87.5664 44.4466 93.9855 44.4466Z" fill="#170710" fill-opacity="0.69"/>
</svg>
