<svg width="46" height="47" viewBox="0 0 46 47" fill="none" xmlns="http://www.w3.org/2000/svg">
<path fill-rule="evenodd" clip-rule="evenodd" d="M23 16.3817C26.9313 16.3817 30.1183 19.5686 30.1183 23.5C30.1183 27.4313 26.9313 30.6182 23 30.6182C19.0687 30.6182 15.8817 27.4313 15.8817 23.5C15.8817 19.5686 19.0687 16.3817 23 16.3817ZM31.6183 23.5C31.6183 18.7402 27.7598 14.8817 23 14.8817C18.2403 14.8817 14.3817 18.7402 14.3817 23.5C14.3817 28.2597 18.2403 32.1182 23 32.1182C27.7598 32.1182 31.6183 28.2597 31.6183 23.5Z" fill="#170710"/>
<path d="M23 17.6363C19.7625 17.6363 17.1364 20.2624 17.1364 23.5C17.1364 26.7375 19.7625 29.3636 23 29.3636C26.2375 29.3636 28.8636 26.7375 28.8636 23.5C28.8636 20.2624 26.2375 17.6363 23 17.6363ZM23 15.6317C27.3501 15.6317 30.8683 19.1498 30.8683 23.5C30.8683 27.8501 27.3501 31.3682 23 31.3682C18.6499 31.3682 15.1317 27.8501 15.1317 23.5C15.1317 19.1498 18.6499 15.6317 23 15.6317Z" fill="#170710"/>
<path fill-rule="evenodd" clip-rule="evenodd" d="M31.6183 23.5C31.6183 18.7356 27.7643 14.8817 23 14.8817C18.2357 14.8817 14.3817 18.7356 14.3817 23.5C14.3817 28.2643 18.2357 32.1182 23 32.1182C27.7643 32.1182 31.6183 28.2643 31.6183 23.5ZM23 16.3817C26.9359 16.3817 30.1183 19.564 30.1183 23.5C30.1183 27.4359 26.9359 30.6182 23 30.6182C19.0641 30.6182 15.8817 27.4359 15.8817 23.5C15.8817 19.564 19.0641 16.3817 23 16.3817ZM23 18.3863C25.8233 18.3863 28.1136 20.6766 28.1136 23.5C28.1136 26.3233 25.8233 28.6136 23 28.6136C20.1767 28.6136 17.8864 26.3233 17.8864 23.5C17.8864 20.6766 20.1767 18.3863 23 18.3863ZM29.6136 23.5C29.6136 19.8482 26.6518 16.8863 23 16.8863C19.3483 16.8863 16.3864 19.8482 16.3864 23.5C16.3864 27.1517 19.3483 30.1136 23 30.1136C26.6518 30.1136 29.6136 27.1517 29.6136 23.5Z" fill="#170710"/>
<path d="M21.9975 7.11185H24.0021V15.6317H21.9975V7.11185Z" fill="#170710"/>
<path d="M22.9989 7.31229C21.5319 7.31229 20.3427 6.12308 20.3427 4.65612C20.3427 3.18915 21.5319 1.99994 22.9989 1.99994C24.4659 1.99994 25.6551 3.18915 25.6551 4.65612C25.6551 6.12308 24.4659 7.31229 22.9989 7.31229Z" fill="#170710"/>
<path fill-rule="evenodd" clip-rule="evenodd" d="M18.8427 4.65612C18.8427 6.95151 20.7035 8.81229 22.9989 8.81229C25.2943 8.81229 27.1551 6.95151 27.1551 4.65612C27.1551 2.36072 25.2943 0.499939 22.9989 0.499939C20.7035 0.499939 18.8427 2.36072 18.8427 4.65612ZM20.3427 4.65612C20.3427 6.12308 21.5319 7.31229 22.9989 7.31229C24.4659 7.31229 25.6551 6.12308 25.6551 4.65612C25.6551 3.18915 24.4659 1.99994 22.9989 1.99994C21.5319 1.99994 20.3427 3.18915 20.3427 4.65612Z" fill="#170710"/>
<path d="M21.9975 31.3682H24.0021V39.888H21.9975V31.3682Z" fill="#170710"/>
<path d="M22.9999 45C21.533 45 20.3438 43.8107 20.3438 42.3438C20.3438 40.8768 21.533 39.6876 22.9999 39.6876C24.4669 39.6876 25.6561 40.8768 25.6561 42.3438C25.6561 43.8107 24.4669 45 22.9999 45Z" fill="#170710"/>
<path fill-rule="evenodd" clip-rule="evenodd" d="M18.8438 42.3438C18.8438 44.6392 20.7045 46.5 22.9999 46.5C25.2953 46.5 27.1561 44.6392 27.1561 42.3438C27.1561 40.0484 25.2953 38.1876 22.9999 38.1876C20.7045 38.1876 18.8438 40.0484 18.8438 42.3438ZM20.3438 42.3438C20.3438 43.8107 21.533 45 22.9999 45C24.4669 45 25.6561 43.8107 25.6561 42.3438C25.6561 40.8768 24.4669 39.6876 22.9999 39.6876C21.533 39.6876 20.3438 40.8768 20.3438 42.3438Z" fill="#170710"/>
<path d="M6.61171 22.4976H15.1315V24.5023H6.61171V22.4976Z" fill="#170710"/>
<path d="M4.15618 26.1562C2.68921 26.1562 1.5 24.9669 1.5 23.5C1.5 22.033 2.68921 20.8438 4.15618 20.8438C5.62314 20.8438 6.81236 22.033 6.81236 23.5C6.81236 24.9669 5.62314 26.1562 4.15618 26.1562Z" fill="#170710"/>
<path fill-rule="evenodd" clip-rule="evenodd" d="M0 23.5C0 25.7954 1.86078 27.6562 4.15618 27.6562C6.45157 27.6562 8.31236 25.7954 8.31236 23.5C8.31236 21.2046 6.45157 19.3438 4.15618 19.3438C1.86078 19.3438 0 21.2046 0 23.5ZM1.5 23.5C1.5 24.9669 2.68921 26.1562 4.15618 26.1562C5.62314 26.1562 6.81236 24.9669 6.81236 23.5C6.81236 22.033 5.62314 20.8438 4.15618 20.8438C2.68921 20.8438 1.5 22.033 1.5 23.5Z" fill="#170710"/>
<path d="M30.8682 22.4976H39.388V24.5023H30.8682V22.4976Z" fill="#170710"/>
<path d="M41.8437 26.1561C40.3768 26.1561 39.1876 24.9669 39.1876 23.5C39.1876 22.033 40.3768 20.8438 41.8437 20.8438C43.3107 20.8438 44.4999 22.033 44.4999 23.5C44.4999 24.9669 43.3107 26.1561 41.8437 26.1561Z" fill="#170710"/>
<path fill-rule="evenodd" clip-rule="evenodd" d="M37.6876 23.5C37.6876 25.7953 39.5483 27.6561 41.8437 27.6561C44.1391 27.6561 45.9999 25.7953 45.9999 23.5C45.9999 21.2046 44.1391 19.3438 41.8437 19.3438C39.5483 19.3438 37.6876 21.2046 37.6876 23.5ZM39.1876 23.5C39.1876 24.9669 40.3768 26.1561 41.8437 26.1561C43.3107 26.1561 44.4999 24.9669 44.4999 23.5C44.4999 22.033 43.3107 20.8438 41.8437 20.8438C40.3768 20.8438 39.1876 22.033 39.1876 23.5Z" fill="#170710"/>
<path d="M33.8854 11.2031L35.3029 12.6206L29.2785 18.645L27.861 17.2275L33.8854 11.2031Z" fill="#170710"/>
<path d="M36.3209 12.8352C34.8539 12.8352 33.6647 11.646 33.6647 10.179C33.6647 8.71204 34.8539 7.52283 36.3209 7.52283C37.7878 7.52283 38.9771 8.71204 38.9771 10.179C38.9771 11.646 37.7878 12.8352 36.3209 12.8352Z" fill="#170710"/>
<path fill-rule="evenodd" clip-rule="evenodd" d="M32.1647 10.179C32.1647 12.4744 34.0255 14.3352 36.3209 14.3352C38.6163 14.3352 40.4771 12.4744 40.4771 10.179C40.4771 7.88361 38.6163 6.02283 36.3209 6.02283C34.0255 6.02283 32.1647 7.88361 32.1647 10.179ZM33.6647 10.179C33.6647 11.646 34.8539 12.8352 36.3209 12.8352C37.7878 12.8352 38.9771 11.646 38.9771 10.179C38.9771 8.71204 37.7878 7.52283 36.3209 7.52283C34.8539 7.52283 33.6647 8.71204 33.6647 10.179Z" fill="#170710"/>
<path d="M16.7221 28.3548L18.1396 29.7723L12.1153 35.7966L10.6978 34.3791L16.7221 28.3548Z" fill="#170710"/>
<path d="M9.6791 39.4771C8.21214 39.4771 7.02293 38.2879 7.02293 36.8209C7.02293 35.3539 8.21214 34.1647 9.6791 34.1647C11.1461 34.1647 12.3353 35.3539 12.3353 36.8209C12.3353 38.2879 11.1461 39.4771 9.6791 39.4771Z" fill="#170710"/>
<path fill-rule="evenodd" clip-rule="evenodd" d="M5.52293 36.8209C5.52293 39.1163 7.38371 40.9771 9.6791 40.9771C11.9745 40.9771 13.8353 39.1163 13.8353 36.8209C13.8353 34.5255 11.9745 32.6647 9.6791 32.6647C7.38371 32.6647 5.52293 34.5255 5.52293 36.8209ZM7.02293 36.8209C7.02293 38.2879 8.21214 39.4771 9.6791 39.4771C11.1461 39.4771 12.3353 38.2879 12.3353 36.8209C12.3353 35.3539 11.1461 34.1647 9.6791 34.1647C8.21214 34.1647 7.02293 35.3539 7.02293 36.8209Z" fill="#170710"/>
<path d="M12.1208 11.1975L18.1451 17.2219L16.7276 18.6394L10.7033 12.615L12.1208 11.1975Z" fill="#170710"/>
<path d="M9.67902 12.8351C8.21205 12.8351 7.02284 11.6459 7.02284 10.1789C7.02284 8.71195 8.21205 7.52274 9.67902 7.52274C11.146 7.52274 12.3352 8.71195 12.3352 10.1789C12.3352 11.6459 11.146 12.8351 9.67902 12.8351Z" fill="#170710"/>
<path fill-rule="evenodd" clip-rule="evenodd" d="M5.52284 10.1789C5.52284 12.4743 7.38362 14.3351 9.67902 14.3351C11.9744 14.3351 13.8352 12.4743 13.8352 10.1789C13.8352 7.88353 11.9744 6.02274 9.67902 6.02274C7.38362 6.02274 5.52284 7.88353 5.52284 10.1789ZM7.02284 10.1789C7.02284 11.6459 8.21205 12.8351 9.67902 12.8351C11.146 12.8351 12.3352 11.6459 12.3352 10.1789C12.3352 8.71195 11.146 7.52274 9.67902 7.52274C8.21205 7.52274 7.02284 8.71195 7.02284 10.1789Z" fill="#170710"/>
<path d="M29.2729 28.3605L35.2972 34.3848L33.8797 35.8023L27.8554 29.778L29.2729 28.3605Z" fill="#170710"/>
<path d="M36.3209 39.4771C34.854 39.4771 33.6647 38.2878 33.6647 36.8209C33.6647 35.3539 34.854 34.1647 36.3209 34.1647C37.7879 34.1647 38.9771 35.3539 38.9771 36.8209C38.9771 38.2878 37.7879 39.4771 36.3209 39.4771Z" fill="#170710"/>
<path fill-rule="evenodd" clip-rule="evenodd" d="M32.1647 36.8209C32.1647 39.1163 34.0255 40.9771 36.3209 40.9771C38.6163 40.9771 40.4771 39.1163 40.4771 36.8209C40.4771 34.5255 38.6163 32.6647 36.3209 32.6647C34.0255 32.6647 32.1647 34.5255 32.1647 36.8209ZM33.6647 36.8209C33.6647 38.2878 34.854 39.4771 36.3209 39.4771C37.7879 39.4771 38.9771 38.2878 38.9771 36.8209C38.9771 35.3539 37.7879 34.1647 36.3209 34.1647C34.854 34.1647 33.6647 35.3539 33.6647 36.8209Z" fill="#170710"/>
</svg>
