<svg width="222" height="99" viewBox="0 0 222 99" fill="none" xmlns="http://www.w3.org/2000/svg">
<path d="M55.7234 55.4029C57.6563 56.5547 57.898 56.6506 58.8644 56.6506C60.3625 56.6506 61.6672 55.4509 61.6672 54.0592C61.6672 52.6195 60.5558 51.5636 57.1731 49.8839C54.0319 48.3003 53.2588 47.3885 53.2588 45.1807C53.2588 42.4453 54.5635 41.2935 58.7195 40.3817C59.0094 40.3338 59.4927 40.2378 60.1208 40.0457C55.7234 39.1339 54.2252 37.6463 54.2252 34.1428L54.2736 32.7031V32.3192C54.2736 30.1596 53.8387 29.3918 52.6789 29.3918C50.7944 29.3918 49.5379 31.8873 49.5379 35.5826V51.7077L55.7234 55.4029ZM44.4154 71L44.0288 69.9442C42.8207 66.1529 42.5308 64.9531 41.9993 61.5938C41.8542 60.6339 41.7093 59.4822 41.516 58.0904L41.371 56.9866C38.2783 55.595 36.297 54.923 35.3305 54.923C34.1224 54.923 33.3975 55.8829 33.1075 57.8505H32.6727C33.0109 52.6195 35.9104 49.0201 39.728 49.0201C40.1145 49.0201 40.5495 49.0201 41.1294 49.0681L41.0327 39.6139C40.9845 34.9108 40.5978 32.7992 39.5347 31.2155C38.8098 30.1117 37.5535 29.4398 36.152 29.4398C34.1707 29.4398 32.576 30.6395 32.576 32.0792C32.576 32.8471 33.0109 33.471 34.1707 34.2869L35.6205 35.3906C38.2783 37.3583 39.0997 38.7021 39.0997 41.0056C39.0997 44.7489 36.442 47.5804 31.8995 48.6363V48.2043C34.7022 47.2444 35.5237 46.6686 35.5237 45.7568C35.5237 45.1328 35.1372 44.7969 34.0741 44.2689C30.6914 42.7332 29 40.2857 29 37.1663C29 31.8394 33.2525 28.24 39.5347 28.24C42.6275 28.24 45.4786 29.1037 47.1216 30.5435C47.8465 31.1674 48.1848 31.6953 48.9579 32.991C50.1178 29.3918 51.9539 28 55.82 28C60.0242 28 62.5371 29.9196 62.5371 33.087C62.5371 33.8549 62.4405 34.6227 62.1988 35.5347L61.9089 36.7344C61.8123 37.0704 61.7639 37.4543 61.7639 37.7903C61.7639 39.182 62.2954 39.6618 63.7936 39.6618C64.2768 39.6618 64.5666 39.6618 65.4848 39.5179V40.0457L64.8084 40.1418L62.4887 40.3338C60.4107 40.4777 59.4444 40.8136 59.4444 41.4855C59.4444 41.9654 59.8309 42.2534 62.247 43.2611C64.3734 44.173 65.2916 45.3248 65.2916 47.2444C65.2916 51.1317 62.7304 55.595 58.8161 58.6663C56.6415 60.346 54.7569 61.1139 52.9205 61.1139C51.9057 61.1139 50.6976 60.7299 48.7646 59.7701C48.2814 62.0737 47.9915 63.2735 46.8317 66.6329C46.0585 68.9364 45.9135 69.4164 45.2371 71H44.4154Z" fill="#170710"/>
<path d="M79.1736 44.272V37.912H83.6136C86.8056 37.912 88.6296 35.704 88.6296 33.088C88.6296 30.472 86.8296 28.264 83.6136 28.264H77.1816V44.272H79.1736ZM83.3736 36.136H79.1736V30.04H83.3736C85.2696 30.04 86.5656 31.288 86.5656 33.088C86.5656 34.888 85.2696 36.136 83.3736 36.136Z" fill="#170710"/>
<path d="M107.252 44.272V28.264H105.26V35.152H95.8996V28.264H93.9076V44.272H95.8996V36.928H105.26V44.272H107.252Z" fill="#170710"/>
<path d="M120.93 44.56C125.658 44.56 128.898 41.008 128.898 36.28C128.898 31.552 125.658 28 120.93 28C116.202 28 112.986 31.552 112.986 36.28C112.986 41.008 116.202 44.56 120.93 44.56ZM120.93 42.784C117.33 42.784 115.05 40 115.05 36.28C115.05 32.536 117.33 29.776 120.93 29.776C124.506 29.776 126.834 32.536 126.834 36.28C126.834 40 124.506 42.784 120.93 42.784Z" fill="#170710"/>
<path d="M145.113 44.272V42.496H136.617V36.976H144.945V35.2H136.617V30.04H145.113V28.264H134.625V44.272H145.113Z" fill="#170710"/>
<path d="M164.177 44.272V28.264H162.185V40.768L152.969 28.264H150.929V44.272H152.921V31.504L162.257 44.272H164.177Z" fill="#170710"/>
<path d="M172.553 44.272V28.264H170.561V44.272H172.553Z" fill="#170710"/>
<path d="M192.432 44.272L186.192 36.04L192.072 28.264H189.624L184.896 34.648L180.144 28.264H177.72L183.6 36.064L177.36 44.272H179.784L184.896 37.456L190.008 44.272H192.432Z" fill="#170710"/>
<path d="M99.7764 70.56C102.608 70.56 104.528 69.216 105.872 67.368L104.192 66.456C103.28 67.8 101.6 68.784 99.7764 68.784C96.2724 68.784 93.6084 66.072 93.6084 62.28C93.6084 58.44 96.2724 55.776 99.7764 55.776C101.6 55.776 103.28 56.736 104.192 58.104L105.848 57.168C104.576 55.344 102.608 54 99.7764 54C95.1684 54 91.5444 57.36 91.5444 62.28C91.5444 67.2 95.1684 70.56 99.7764 70.56Z" fill="#170710"/>
<path d="M118.347 70.56C123.075 70.56 126.315 67.008 126.315 62.28C126.315 57.552 123.075 54 118.347 54C113.619 54 110.403 57.552 110.403 62.28C110.403 67.008 113.619 70.56 118.347 70.56ZM118.347 68.784C114.747 68.784 112.467 66 112.467 62.28C112.467 58.536 114.747 55.776 118.347 55.776C121.923 55.776 124.251 58.536 124.251 62.28C124.251 66 121.923 68.784 118.347 68.784Z" fill="#170710"/>
<path d="M138.571 70.56C142.915 70.56 145.123 68.016 145.123 64.032V54.264H143.107V64.008C143.107 66.936 141.523 68.784 138.571 68.784C135.619 68.784 134.059 66.936 134.059 64.008V54.264H132.043V64.056C132.043 67.992 134.251 70.56 138.571 70.56Z" fill="#170710"/>
<path d="M163.127 70.272L158.807 63.744C160.991 63.552 162.983 61.968 162.983 59.088C162.983 56.136 160.871 54.264 157.943 54.264H151.511V70.272H153.503V63.912H156.719L160.775 70.272H163.127ZM157.703 62.16H153.503V56.04H157.703C159.599 56.04 160.919 57.264 160.919 59.088C160.919 60.888 159.599 62.16 157.703 62.16Z" fill="#170710"/>
<path d="M174.493 70.272V56.04H179.581V54.264H167.437V56.04H172.501V70.272H174.493Z" fill="#170710"/>
</svg>
