<svg width="222" height="99" viewBox="0 0 222 99" fill="none" xmlns="http://www.w3.org/2000/svg">
<path d="M38.3033 36.6575C42.4122 36.6575 45.4099 37.4438 47.2964 39.0166C49.1829 40.5893 50.1261 43.0129 50.1261 46.2873C50.1261 49.5617 49.1571 51.9595 47.2189 53.4807C45.3065 55.0018 42.3605 55.7624 38.3808 55.7624H33.5741V63.6906H29V36.6575H38.3033ZM38.8847 51.6243C41.4173 51.6243 43.1358 51.1473 44.0403 50.1934C44.9706 49.2136 45.4358 47.7956 45.4358 45.9392C45.4358 44.0571 44.8543 42.7293 43.6914 41.9558C42.5285 41.1823 40.7066 40.7956 38.2257 40.7956H33.5741V51.6243H38.8847Z" fill="#170710"/>
<path d="M67.7866 57.5028C69.027 58.9466 70.7068 59.6685 72.8258 59.6685C74.9449 59.6685 76.6247 58.9466 77.8651 57.5028C79.1055 56.0589 79.7258 54.0994 79.7258 51.6243V36.6575H84.2999V51.8177C84.2999 55.7109 83.2274 58.7145 81.0825 60.8287C78.9376 62.9171 76.1854 63.9613 72.8258 63.9613C69.4663 63.9613 66.7141 62.9171 64.5692 60.8287C62.4243 58.7145 61.3518 55.7109 61.3518 51.8177V36.6575H65.9259V51.6243C65.9259 54.0994 66.5462 56.0589 67.7866 57.5028Z" fill="#170710"/>
<path d="M109.519 63.6906H97.6569V36.6575H108.201C110.035 36.6575 111.612 36.8766 112.93 37.3149C114.274 37.7532 115.269 38.3462 115.915 39.0939C117.155 40.4862 117.775 42.0589 117.775 43.8122C117.775 45.9263 117.103 47.4991 115.76 48.5304C115.269 48.8913 114.933 49.1234 114.752 49.2265C114.571 49.3039 114.248 49.4457 113.783 49.6519C115.462 50.0129 116.793 50.7735 117.775 51.9337C118.783 53.0681 119.287 54.4862 119.287 56.1878C119.287 58.07 118.641 59.733 117.349 61.1768C115.824 62.8527 113.214 63.6906 109.519 63.6906ZM102.231 47.8729H108.046C111.353 47.8729 113.007 46.7514 113.007 44.5083C113.007 43.2192 112.607 42.291 111.806 41.7238C111.005 41.1565 109.764 40.8729 108.084 40.8729H102.231V47.8729ZM102.231 59.4751H109.402C111.082 59.4751 112.361 59.2173 113.24 58.7017C114.144 58.1602 114.597 57.1547 114.597 55.6851C114.597 53.2873 112.671 52.0884 108.821 52.0884H102.231V59.4751Z" fill="#170710"/>
<path d="M131.228 63.6906V36.6575H135.802V59.3591H148.168V63.6906H131.228Z" fill="#170710"/>
<path d="M159.386 36.6575H163.961V63.6906H159.386V36.6575Z" fill="#170710"/>
<path d="M190.03 59.5525C191.606 59.5525 192.963 59.2947 194.1 58.779C195.237 58.2376 196.426 57.3867 197.666 56.2265L200.612 59.2431C197.744 62.4144 194.255 64 190.146 64C186.063 64 182.665 62.6851 179.951 60.0552C177.264 57.4254 175.92 54.0994 175.92 50.0773C175.92 46.0552 177.29 42.7035 180.029 40.0221C182.794 37.3407 186.27 36 190.456 36C194.669 36 198.183 37.547 201 40.6409L198.093 43.8122C196.801 42.5746 195.573 41.7109 194.41 41.221C193.273 40.7311 191.929 40.4862 190.379 40.4862C187.639 40.4862 185.34 41.3757 183.479 43.1547C181.618 44.9079 180.688 47.1639 180.688 49.9227C180.688 52.6556 181.605 54.9503 183.44 56.8066C185.301 58.6372 187.497 59.5525 190.03 59.5525Z" fill="#170710"/>
</svg>
