<svg width="222" height="99" viewBox="0 0 222 99" fill="none" xmlns="http://www.w3.org/2000/svg">
<path fill-rule="evenodd" clip-rule="evenodd" d="M78.2408 64.8505L99.0761 86.8611L97.9845 57.9751L87.6938 53.2248L96.1329 49.5171L98.2064 16.9539L74.8361 41.2215L76.1386 44.8541L72.3175 41.3826L41.9688 52.0089L70.4788 62.9128L79.618 54.5811L83.2091 51.3101L83.2172 51.2895L83.222 51.2989L83.2091 51.3101L81.5113 55.9435L78.2408 64.8505Z" fill="#CBCCCB"/>
<path fill-rule="evenodd" clip-rule="evenodd" d="M77.415 52.2008L78.1596 54.3691L79.4917 53.7586L81.3535 48.4614L77.415 52.2008Z" fill="#170710"/>
<path fill-rule="evenodd" clip-rule="evenodd" d="M97.1075 83.9074L96.0242 55.1584L85.8113 50.4307L79.6763 53.1365L76.4307 62.0017L97.1075 83.9074Z" fill="#170710"/>
<path fill-rule="evenodd" clip-rule="evenodd" d="M70.1604 39.5999L40 50.2907L68.3327 61.2613L77.4152 52.8785L73.9578 43.0929L70.1604 39.5999Z" fill="#170710"/>
<path fill-rule="evenodd" clip-rule="evenodd" d="M81.009 48.374L85.4929 50.4306L94.0267 46.707L96.1228 14L72.4922 38.3749L73.8092 42.0235L80.9668 48.4872L81.009 48.374Z" fill="#170710"/>
<path fill-rule="evenodd" clip-rule="evenodd" d="M81.3331 48.4614L81.2867 48.5778L81.292 48.5871L81.2776 48.5992L79.3848 53.3845L86.277 50.5764L81.3331 48.4614Z" fill="#170710"/>
<path fill-rule="evenodd" clip-rule="evenodd" d="M81.3534 49.4013L73.4766 43.5383L77.3478 52.3998L81.3444 49.4202L81.3534 49.4013Z" fill="#170710"/>
<path fill-rule="evenodd" clip-rule="evenodd" d="M80.8742 48.9506L80.8644 48.9319L80.8477 48.9752L80.8742 48.9506Z" fill="#170710"/>
<path fill-rule="evenodd" clip-rule="evenodd" d="M104.753 61.3636C105.629 61.8879 107.285 62.445 108.664 62.445C110.356 62.445 111.106 61.7651 111.106 60.7736C111.106 59.7523 110.478 59.2267 108.6 58.5769C105.629 57.5552 104.375 55.9453 104.406 54.1807C104.406 51.5186 106.63 49.446 110.167 49.446C111.857 49.446 113.33 49.8786 114.205 50.3427L113.453 53.0345C112.795 52.6644 111.575 52.1693 110.229 52.1693C108.851 52.1693 108.1 52.8191 108.1 53.7482C108.1 54.7064 108.822 55.1705 110.76 55.8522C113.516 56.8419 114.798 58.2355 114.831 60.4646C114.831 63.1879 112.671 65.1998 108.633 65.1998C106.785 65.1998 105.126 64.7353 104 64.1179L104.753 61.3636Z" fill="#170710"/>
<path fill-rule="evenodd" clip-rule="evenodd" d="M119.866 57.338C119.866 60.2484 121.33 62.445 123.723 62.445C125.954 62.445 127.519 60.31 127.519 57.2768C127.519 54.9241 126.434 52.23 123.753 52.23C120.982 52.23 119.866 54.8301 119.866 57.338ZM131.568 57.1819C131.568 62.7238 127.55 65.1998 123.595 65.1998C119.195 65.1998 115.814 62.2612 115.814 57.4315C115.814 52.4787 119.164 49.446 123.849 49.446C128.475 49.446 131.568 52.6024 131.568 57.1819Z" fill="#170710"/>
<path fill-rule="evenodd" clip-rule="evenodd" d="M133.538 64.2151H137.477V41.5691H133.538V64.2151Z" fill="#170710"/>
<path fill-rule="evenodd" clip-rule="evenodd" d="M149.296 56.5097C146.637 56.4471 144.103 57.0353 144.103 59.3255C144.103 60.8112 145.05 61.4915 146.241 61.4915C147.737 61.4915 148.836 60.5018 149.173 59.4176C149.266 59.1402 149.296 58.8304 149.296 58.584V56.5097ZM152.952 60.2536C153.014 61.617 153.077 62.9467 153.231 63.9053H149.838L149.593 62.0528H149.502C148.586 63.3802 147.028 64.2152 145.103 64.2152C142.11 64.2152 140.431 62.0181 140.431 59.7284C140.431 55.9215 143.759 54.0009 149.296 54.0315V53.7855C149.258 52.7935 148.862 51.1536 146.234 51.1536C144.768 51.1536 143.239 51.6181 142.231 52.2674L141.498 49.7915C142.598 49.1103 144.523 48.4614 146.875 48.4614C151.641 48.4614 153.014 51.5246 152.952 54.8049V60.2536Z" fill="#170710"/>
<path fill-rule="evenodd" clip-rule="evenodd" d="M167.969 63.4121C167.183 63.7831 165.636 64.2152 163.787 64.2152C159.182 64.2152 156.184 61.1822 156.184 56.5097C156.184 51.9895 159.214 48.4614 164.394 48.4614C165.759 48.4614 167.153 48.7699 167.999 49.1733L167.335 52.0196C166.726 51.7418 165.849 51.4319 164.516 51.4319C161.669 51.4319 159.973 53.5679 160.003 56.3216C160.003 59.4176 161.971 61.1822 164.516 61.1822C165.817 61.1822 166.726 60.9034 167.456 60.594L167.969 63.4121Z" fill="#170710"/>
<path fill-rule="evenodd" clip-rule="evenodd" d="M178.216 54.6258C178.246 53.2318 177.63 50.9411 175.108 50.9411C172.768 50.9411 171.784 53.0771 171.63 54.6258H178.216ZM171.63 57.4047C171.724 60.1284 173.847 61.3076 176.246 61.3076C178 61.3076 179.262 61.0598 180.4 60.6244L180.952 63.256C179.661 63.7835 177.876 64.2152 175.722 64.2152C170.861 64.2152 167.999 61.1821 167.999 56.571C167.999 52.3916 170.522 48.4614 175.323 48.4614C180.217 48.4614 181.784 52.4843 181.784 55.7962C181.784 56.5099 181.723 57.0661 181.661 57.4047H171.63Z" fill="#170710"/>
</svg>
