<svg width="222" height="99" viewBox="0 0 222 99" fill="none" xmlns="http://www.w3.org/2000/svg">
<path fill-rule="evenodd" clip-rule="evenodd" d="M80.9296 63.6631L100.049 83.8612L99.0475 57.3539L89.6042 52.9948L97.3484 49.5924L99.2511 19.7107L77.8053 41.98L79.0005 45.3134L75.4941 42.1278L47.6445 51.879L73.8068 61.885L82.1934 54.2394L85.4888 51.2378L85.4962 51.2188L85.5006 51.2274L85.4888 51.2378L83.9308 55.4896L80.9296 63.6631Z" fill="#CBCCCB"/>
<path fill-rule="evenodd" clip-rule="evenodd" d="M80.1719 52.055L80.8552 54.0447L82.0775 53.4845L83.786 48.6235L80.1719 52.055Z" fill="#170710"/>
<path fill-rule="evenodd" clip-rule="evenodd" d="M98.2427 81.1506L97.2486 54.7691L87.8767 50.4307L82.2469 52.9136L79.2686 61.0488L98.2427 81.1506Z" fill="#170710"/>
<path fill-rule="evenodd" clip-rule="evenodd" d="M73.5147 40.4917L45.8379 50.3022L71.8374 60.3693L80.172 52.6769L76.9993 43.6971L73.5147 40.4917Z" fill="#170710"/>
<path fill-rule="evenodd" clip-rule="evenodd" d="M83.4697 48.5433L87.5844 50.4306L95.4155 47.0136L97.339 17L75.6543 39.3677L76.8628 42.7158L83.4311 48.6472L83.4697 48.5433Z" fill="#170710"/>
<path fill-rule="evenodd" clip-rule="evenodd" d="M83.7674 48.6235L83.7248 48.7304L83.7297 48.7388L83.7164 48.75L81.9795 53.1412L88.3042 50.5643L83.7674 48.6235Z" fill="#170710"/>
<path fill-rule="evenodd" clip-rule="evenodd" d="M83.7858 49.4862L76.5576 44.106L80.1101 52.2377L83.7775 49.5034L83.7858 49.4862Z" fill="#170710"/>
<path fill-rule="evenodd" clip-rule="evenodd" d="M83.3457 49.0723L83.3366 49.0552L83.3213 49.0949L83.3457 49.0723Z" fill="#170710"/>
<path fill-rule="evenodd" clip-rule="evenodd" d="M105.258 60.4633C106.063 60.9444 107.582 61.4556 108.847 61.4556C110.4 61.4556 111.088 60.8317 111.088 59.9218C111.088 58.9847 110.512 58.5023 108.789 57.906C106.063 56.9685 104.911 55.4912 104.94 53.8719C104.94 51.429 106.981 49.5271 110.226 49.5271C111.777 49.5271 113.129 49.9241 113.932 50.3499L113.242 52.82C112.638 52.4804 111.518 52.0261 110.283 52.0261C109.019 52.0261 108.33 52.6224 108.33 53.4749C108.33 54.3543 108.992 54.7801 110.771 55.4057C113.299 56.314 114.476 57.5928 114.506 59.6383C114.506 62.1373 112.525 63.9836 108.819 63.9836C107.123 63.9836 105.601 63.5573 104.567 62.9908L105.258 60.4633Z" fill="#170710"/>
<path fill-rule="evenodd" clip-rule="evenodd" d="M119.127 56.7691C119.127 59.4399 120.471 61.4556 122.667 61.4556C124.714 61.4556 126.15 59.4964 126.15 56.713C126.15 54.554 125.155 52.0818 122.694 52.0818C120.151 52.0818 119.127 54.4678 119.127 56.7691ZM129.866 56.6259C129.866 61.7115 126.178 63.9836 122.549 63.9836C118.511 63.9836 115.409 61.2869 115.409 56.855C115.409 52.31 118.483 49.5271 122.782 49.5271C127.027 49.5271 129.866 52.4235 129.866 56.6259Z" fill="#170710"/>
<path fill-rule="evenodd" clip-rule="evenodd" d="M131.673 63.08H135.287V42.2988H131.673V63.08Z" fill="#170710"/>
<path fill-rule="evenodd" clip-rule="evenodd" d="M146.133 56.009C143.693 55.9516 141.368 56.4914 141.368 58.5929C141.368 59.9563 142.237 60.5806 143.33 60.5806C144.703 60.5806 145.712 59.6724 146.021 58.6775C146.105 58.4229 146.133 58.1386 146.133 57.9125V56.009ZM149.488 59.4446C149.546 60.6958 149.603 61.9159 149.744 62.7957H146.631L146.406 61.0957H146.323C145.482 62.3137 144.052 63.08 142.286 63.08C139.539 63.08 137.998 61.0638 137.998 58.9627C137.998 55.4693 141.053 53.7068 146.133 53.7349V53.5092C146.098 52.5989 145.736 51.094 143.324 51.094C141.978 51.094 140.575 51.5203 139.65 52.1161L138.977 49.8441C139.987 49.2189 141.753 48.6235 143.912 48.6235C148.286 48.6235 149.546 51.4344 149.488 54.4446V59.4446Z" fill="#170710"/>
<path fill-rule="evenodd" clip-rule="evenodd" d="M163.269 62.3431C162.548 62.6835 161.128 63.08 159.432 63.08C155.206 63.08 152.454 60.2967 152.454 56.009C152.454 51.8611 155.235 48.6235 159.989 48.6235C161.241 48.6235 162.521 48.9066 163.296 49.2767L162.687 51.8887C162.128 51.6337 161.323 51.3494 160.1 51.3494C157.487 51.3494 155.931 53.3095 155.959 55.8365C155.959 58.6775 157.765 60.2967 160.1 60.2967C161.295 60.2967 162.128 60.0409 162.798 59.757L163.269 62.3431Z" fill="#170710"/>
<path fill-rule="evenodd" clip-rule="evenodd" d="M172.671 54.2803C172.7 53.0011 172.133 50.899 169.82 50.899C167.672 50.899 166.769 52.8591 166.628 54.2803H172.671ZM166.628 56.8303C166.714 59.3298 168.662 60.4118 170.863 60.4118C172.473 60.4118 173.631 60.1844 174.675 59.7849L175.182 62.1998C173.998 62.6839 172.36 63.08 170.383 63.08C165.922 63.08 163.296 60.2966 163.296 56.0653C163.296 52.2301 165.611 48.6235 170.016 48.6235C174.508 48.6235 175.945 52.3151 175.945 55.3543C175.945 56.0092 175.89 56.5197 175.832 56.8303H166.628Z" fill="#170710"/>
</svg>
