<svg width="222" height="99" viewBox="0 0 222 99" fill="none" xmlns="http://www.w3.org/2000/svg">
<path fill-rule="evenodd" clip-rule="evenodd" d="M52 26.735C52 28.4588 52.0014 28.4715 52.2195 28.6879L52.4388 28.9058H54.7225H57.0061V37.8714C57.0061 43.7893 57.0365 46.837 57.0955 46.837C57.1446 46.837 57.1848 46.8997 57.1848 46.9764C57.1848 47.3349 57.3658 47.3696 59.2386 47.3696C61.0287 47.3696 61.0379 47.3686 61.2563 47.1516L61.4758 46.9338V38.0466C61.4758 30.4627 61.4945 29.1409 61.6035 29.0326C61.7074 28.9294 62.1497 28.9058 63.9765 28.9058H66.2218L66.4411 28.6879C66.657 28.4736 66.6606 28.4454 66.6606 26.9529C66.6606 25.4604 66.657 25.4322 66.4411 25.2179L66.2218 25H59.1108H52V26.735ZM69.5212 25.0888C69.5212 25.1376 69.4408 25.1775 69.3424 25.1775C69.2233 25.1775 69.1636 25.2367 69.1636 25.3551C69.1636 25.4527 69.1234 25.5326 69.0742 25.5326C69.0152 25.5326 68.9848 29.1425 68.9848 36.1848C68.9848 43.227 69.0152 46.837 69.0742 46.837C69.1234 46.837 69.1636 46.8997 69.1636 46.9764C69.1636 47.3756 69.0666 47.3696 75.4596 47.3696C79.427 47.3696 81.5 47.3391 81.5 47.2808C81.5 47.232 81.5805 47.192 81.6788 47.192C81.8516 47.192 81.8576 47.1328 81.8576 45.4167C81.8576 43.7005 81.8516 43.6413 81.6788 43.6413C81.5805 43.6413 81.5 43.6014 81.5 43.5525C81.5 43.4947 80.1421 43.4638 77.605 43.4638C74.3485 43.4638 73.689 43.443 73.5823 43.3369C73.3933 43.1493 73.3933 38.2746 73.5823 38.087C73.6882 37.9817 74.2596 37.9601 76.9386 37.9601H80.1672L80.3866 37.7422C80.6025 37.5279 80.6061 37.4998 80.6061 36.0049C80.6061 34.4268 80.5625 34.2319 80.2101 34.2319C80.1329 34.2319 80.0697 34.1919 80.0697 34.1431C80.0697 34.0856 78.9501 34.0543 76.8899 34.0543C74.2531 34.0543 73.6881 34.0327 73.5823 33.9275C73.3936 33.7402 73.3936 29.2199 73.5823 29.0326C73.6889 28.9267 74.343 28.9058 77.5643 28.9058H81.4187L81.6381 28.6879C81.8553 28.4723 81.8576 28.4533 81.8576 26.8237C81.8576 25.2367 81.8511 25.1775 81.6788 25.1775C81.5805 25.1775 81.5 25.1376 81.5 25.0888C81.5 25.0304 79.4439 25 75.5106 25C71.5773 25 69.5212 25.0304 69.5212 25.0888ZM90.0818 25.0888C90.0818 25.1381 89.8434 25.1775 89.5455 25.1775C89.2475 25.1775 89.0091 25.2169 89.0091 25.2663C89.0091 25.3151 88.8884 25.3551 88.7409 25.3551C88.5934 25.3551 88.4727 25.395 88.4727 25.4438C88.4727 25.4927 88.352 25.5326 88.2045 25.5326C88.057 25.5326 87.9364 25.5726 87.9364 25.6214C87.9364 25.6702 87.8648 25.7101 87.7773 25.7101C87.6898 25.7101 87.5603 25.79 87.4894 25.8877C87.4185 25.9853 87.3082 26.0652 87.2443 26.0652C87.0928 26.0652 86.1485 27.0029 86.1485 27.1533C86.1485 27.2168 86.068 27.3263 85.9697 27.3967C85.8647 27.4719 85.7909 27.6266 85.7909 27.7714C85.7909 27.9071 85.7507 28.0181 85.7015 28.0181C85.6523 28.0181 85.6121 28.098 85.6121 28.1957C85.6121 28.2933 85.5719 28.3732 85.5227 28.3732C85.4736 28.3732 85.4333 28.533 85.4333 28.7283C85.4333 28.9236 85.3931 29.0833 85.3439 29.0833C85.2851 29.0833 85.2545 31.5096 85.2545 36.1848C85.2545 40.8599 85.2851 43.2862 85.3439 43.2862C85.3931 43.2862 85.4333 43.446 85.4333 43.6413C85.4333 43.8366 85.4736 43.9964 85.5227 43.9964C85.5719 43.9964 85.6121 44.0763 85.6121 44.1739C85.6121 44.2716 85.6523 44.3514 85.7015 44.3514C85.7507 44.3514 85.7909 44.4625 85.7909 44.5981C85.7909 44.743 85.8647 44.8976 85.9697 44.9728C86.068 45.0432 86.1485 45.1528 86.1485 45.2162C86.1485 45.3667 87.0928 46.3043 87.2443 46.3043C87.3082 46.3043 87.4185 46.3842 87.4894 46.4819C87.5603 46.5795 87.6898 46.6594 87.7773 46.6594C87.8648 46.6594 87.9364 46.6994 87.9364 46.7482C87.9364 46.797 88.057 46.837 88.2045 46.837C88.352 46.837 88.4727 46.8769 88.4727 46.9257C88.4727 46.9745 88.5934 47.0145 88.7409 47.0145C88.8884 47.0145 89.0091 47.0544 89.0091 47.1033C89.0091 47.1526 89.2475 47.192 89.5455 47.192C89.8434 47.192 90.0818 47.2314 90.0818 47.2808C90.0818 47.3381 91.0949 47.3696 92.9424 47.3696C94.7899 47.3696 95.803 47.3381 95.803 47.2808C95.803 47.232 96.0042 47.192 96.25 47.192C96.4958 47.192 96.697 47.1521 96.697 47.1033C96.697 47.0544 96.8176 47.0145 96.9651 47.0145C97.1126 47.0145 97.2333 46.9745 97.2333 46.9257C97.2333 46.8769 97.354 46.837 97.5015 46.837C97.649 46.837 97.7697 46.797 97.7697 46.7482C97.7697 46.6994 97.8413 46.6594 97.9287 46.6594C98.0162 46.6594 98.1458 46.5795 98.2167 46.4819C98.2876 46.3842 98.3979 46.3043 98.4618 46.3043C98.6133 46.3043 99.5576 45.3667 99.5576 45.2162C99.5576 45.1528 99.638 45.0432 99.7364 44.9728C99.8347 44.9024 99.9151 44.7738 99.9151 44.6869C99.9151 44.6001 99.9554 44.529 100.005 44.529C100.054 44.529 100.094 44.4091 100.094 44.2627C100.094 44.1162 100.134 43.9964 100.183 43.9964C100.232 43.9964 100.273 43.8765 100.273 43.7301C100.273 43.5836 100.313 43.4638 100.362 43.4638C100.412 43.4638 100.452 43.227 100.452 42.9312C100.452 42.6353 100.491 42.3986 100.541 42.3986C100.596 42.3986 100.63 41.9251 100.63 41.1558C100.63 40.3864 100.596 39.913 100.541 39.913C100.492 39.913 100.452 39.8503 100.452 39.7736C100.452 39.5439 100.216 39.3804 99.8843 39.3804C99.7128 39.3804 99.549 39.3305 99.5203 39.2695C99.4786 39.1807 99.4577 39.1807 99.4161 39.2695C99.3774 39.3517 98.9817 39.3804 97.8899 39.3804C96.7317 39.3804 96.3886 39.4076 96.2883 39.5073C96.1893 39.6055 96.1606 39.9248 96.1606 40.9276C96.1606 41.7307 96.1267 42.221 96.0712 42.221C96.022 42.221 95.9818 42.3222 95.9818 42.4459C95.9818 42.6959 95.4502 43.2862 95.2249 43.2862C95.1496 43.2862 95.0879 43.3262 95.0879 43.375C95.0879 43.4318 94.2833 43.4638 92.853 43.4638C91.4227 43.4638 90.6182 43.4318 90.6182 43.375C90.6182 43.3262 90.556 43.2862 90.4801 43.2862C90.3012 43.2862 89.903 42.8909 89.903 42.7132C89.903 42.6378 89.8628 42.5761 89.8136 42.5761C89.7641 42.5761 89.7242 42.3418 89.7242 42.0508C89.7242 41.7139 89.6842 41.5095 89.6125 41.4806C89.5281 41.4467 89.5336 41.4106 89.6348 41.3333C89.7361 41.2561 89.7416 41.22 89.6572 41.1861C89.5136 41.1282 89.4915 30.6812 89.6348 30.6812C89.684 30.6812 89.7242 30.4814 89.7242 30.2373C89.7242 29.9932 89.7645 29.7935 89.8136 29.7935C89.8628 29.7935 89.903 29.7318 89.903 29.6563C89.903 29.4787 90.3012 29.0833 90.4801 29.0833C90.556 29.0833 90.6182 29.0434 90.6182 28.9946C90.6182 28.9378 91.4227 28.9058 92.853 28.9058C94.2833 28.9058 95.0879 28.9378 95.0879 28.9946C95.0879 29.0434 95.1496 29.0833 95.2249 29.0833C95.3004 29.0833 95.5015 29.2218 95.6719 29.3911C95.9086 29.6261 95.9818 29.7729 95.9818 30.0125C95.9818 30.1849 96.022 30.3261 96.0712 30.3261C96.1265 30.3261 96.1606 30.7868 96.1606 31.5308C96.1606 32.4565 96.1902 32.7649 96.2883 32.8623C96.391 32.9642 96.7873 32.9891 98.3061 32.9891C100.276 32.9891 100.452 32.957 100.452 32.596C100.452 32.5193 100.492 32.4565 100.541 32.4565C100.596 32.4565 100.63 32.0127 100.63 31.3025C100.63 30.5924 100.596 30.1486 100.541 30.1486C100.49 30.1486 100.452 29.8822 100.452 29.5272C100.452 29.1721 100.413 28.9058 100.362 28.9058C100.313 28.9058 100.273 28.786 100.273 28.6395C100.273 28.493 100.232 28.3732 100.183 28.3732C100.134 28.3732 100.094 28.2534 100.094 28.1069C100.094 27.9604 100.054 27.8406 100.005 27.8406C99.9554 27.8406 99.9151 27.7695 99.9151 27.6827C99.9151 27.5958 99.8347 27.4671 99.7364 27.3967C99.638 27.3263 99.5576 27.2168 99.5576 27.1533C99.5576 27.0029 98.6133 26.0652 98.4618 26.0652C98.3979 26.0652 98.2876 25.9853 98.2167 25.8877C98.1458 25.79 98.0162 25.7101 97.9287 25.7101C97.8413 25.7101 97.7697 25.6702 97.7697 25.6214C97.7697 25.5726 97.649 25.5326 97.5015 25.5326C97.354 25.5326 97.2333 25.4927 97.2333 25.4438C97.2333 25.395 97.1126 25.3551 96.9651 25.3551C96.8176 25.3551 96.697 25.3151 96.697 25.2663C96.697 25.2175 96.4958 25.1775 96.25 25.1775C96.0042 25.1775 95.803 25.1376 95.803 25.0888C95.803 25.0314 94.7899 25 92.9424 25C91.0949 25 90.0818 25.0314 90.0818 25.0888ZM104.564 25.0888C104.564 25.1376 104.483 25.1775 104.385 25.1775C104.246 25.1775 104.206 25.2367 104.206 25.4438C104.206 25.5903 104.166 25.7101 104.117 25.7101C104.058 25.7101 104.027 29.2609 104.027 36.1848C104.027 43.1087 104.058 46.6594 104.117 46.6594C104.166 46.6594 104.206 46.7793 104.206 46.9257C104.206 47.1328 104.246 47.192 104.385 47.192C104.483 47.192 104.564 47.232 104.564 47.2808C104.564 47.337 105.206 47.3696 106.311 47.3696C108.047 47.3696 108.06 47.3681 108.278 47.1516L108.497 46.9338V42.6625C108.497 39.0792 108.518 38.3709 108.625 38.2645C108.814 38.076 114.973 38.076 115.163 38.2645C115.27 38.3709 115.291 39.0792 115.291 42.6625V46.9338L115.51 47.1516C115.729 47.3686 115.738 47.3696 117.526 47.3696C119.313 47.3696 119.323 47.3686 119.541 47.1516L119.761 46.9338V36.1848V25.4358L119.541 25.2179C119.323 25.001 119.313 25 117.526 25C115.738 25 115.729 25.001 115.51 25.2179L115.291 25.4358V29.8339V34.2319H112.022C109.308 34.2319 108.731 34.2103 108.625 34.105C108.518 33.9987 108.497 33.2904 108.497 29.707V25.4358L108.278 25.2179C108.06 25.0014 108.047 25 106.311 25C105.206 25 104.564 25.0326 104.564 25.0888ZM147.652 51.3641C147.652 51.413 147.571 51.4529 147.473 51.4529C147.374 51.4529 147.294 51.4928 147.294 51.5417C147.294 51.5905 147.213 51.6304 147.115 51.6304C147.017 51.6304 146.936 51.6704 146.936 51.7192C146.936 51.768 146.856 51.808 146.758 51.808C146.659 51.808 146.579 51.8479 146.579 51.8967C146.579 51.9456 146.498 51.9855 146.4 51.9855C146.302 51.9855 146.221 52.0255 146.221 52.0743C146.221 52.1231 146.15 52.163 146.062 52.163C145.975 52.163 145.845 52.2429 145.774 52.3406C145.703 52.4382 145.583 52.5181 145.506 52.5181C145.429 52.5181 145.309 52.598 145.238 52.6957C145.167 52.7933 145.037 52.8732 144.95 52.8732C144.863 52.8732 144.791 52.9131 144.791 52.962C144.791 53.0108 144.719 53.0507 144.632 53.0507C144.544 53.0507 144.415 53.1306 144.344 53.2283C144.273 53.3259 144.152 53.4058 144.076 53.4058C143.999 53.4058 143.878 53.4857 143.808 53.5833C143.737 53.681 143.626 53.7609 143.561 53.7609C143.497 53.7609 143.305 53.8993 143.134 54.0686L142.824 54.3763V55.9834C142.824 57.7662 142.847 57.8442 143.379 57.8442C143.576 57.8442 143.723 57.7834 143.808 57.6667C143.878 57.569 144.008 57.4891 144.096 57.4891C144.183 57.4891 144.255 57.4492 144.255 57.4004C144.255 57.3515 144.335 57.3116 144.433 57.3116C144.532 57.3116 144.612 57.2716 144.612 57.2228C144.612 57.174 144.684 57.1341 144.771 57.1341C144.859 57.1341 144.988 57.0542 145.059 56.9565C145.13 56.8589 145.26 56.779 145.347 56.779C145.434 56.779 145.506 56.739 145.506 56.6902C145.506 56.6414 145.587 56.6014 145.685 56.6014C145.783 56.6014 145.864 56.5615 145.864 56.5127C145.864 56.4639 145.944 56.4239 146.042 56.4239C146.141 56.4239 146.221 56.384 146.221 56.3351C146.221 56.2863 146.293 56.2464 146.38 56.2464C146.468 56.2464 146.597 56.1665 146.668 56.0688C146.739 55.9712 146.869 55.8913 146.956 55.8913C147.107 55.8913 147.115 56.3087 147.115 64.5525C147.115 73.7459 147.103 73.4674 147.511 73.4674C147.588 73.4674 147.652 73.5073 147.652 73.5562C147.652 73.6121 148.247 73.6449 149.261 73.6449C150.274 73.6449 150.87 73.6121 150.87 73.5562C150.87 73.5073 150.95 73.4674 151.048 73.4674C151.188 73.4674 151.227 73.4082 151.227 73.2011C151.227 73.0546 151.267 72.9348 151.317 72.9348C151.376 72.9348 151.406 69.3545 151.406 62.3714C151.406 55.3883 151.376 51.808 151.317 51.808C151.267 51.808 151.227 51.7281 151.227 51.6304C151.227 51.5121 151.168 51.4529 151.048 51.4529C150.95 51.4529 150.87 51.413 150.87 51.3641C150.87 51.3082 150.274 51.2754 149.261 51.2754C148.247 51.2754 147.652 51.3082 147.652 51.3641ZM160.524 51.3641C160.524 51.4135 160.286 51.4529 159.988 51.4529C159.69 51.4529 159.452 51.4923 159.452 51.5417C159.452 51.5905 159.25 51.6304 159.005 51.6304C158.759 51.6304 158.558 51.6704 158.558 51.7192C158.558 51.768 158.437 51.808 158.289 51.808C158.142 51.808 158.021 51.8479 158.021 51.8967C158.021 51.9456 157.941 51.9855 157.842 51.9855C157.744 51.9855 157.664 52.0255 157.664 52.0743C157.664 52.1231 157.583 52.163 157.485 52.163C157.387 52.163 157.306 52.203 157.306 52.2518C157.306 52.3006 157.245 52.3406 157.17 52.3406C157.004 52.3406 156.055 53.267 156.055 53.4287C156.055 53.4922 155.974 53.6017 155.876 53.6721C155.777 53.7425 155.697 53.8711 155.697 53.958C155.697 54.0448 155.657 54.1159 155.608 54.1159C155.558 54.1159 155.518 54.2358 155.518 54.3822C155.518 54.5287 155.478 54.6485 155.429 54.6485C155.38 54.6485 155.339 54.7684 155.339 54.9149C155.339 55.0613 155.299 55.1812 155.25 55.1812C155.196 55.1812 155.161 55.5362 155.161 56.0688C155.161 56.6014 155.125 56.9565 155.071 56.9565C155.016 56.9565 154.982 57.4596 154.982 58.288C154.982 59.1165 155.016 59.6196 155.071 59.6196C155.126 59.6196 155.161 60.0338 155.161 60.6848C155.161 61.3357 155.195 61.75 155.25 61.75C155.299 61.75 155.339 61.9098 155.339 62.1051C155.339 62.3004 155.38 62.4601 155.429 62.4601C155.478 62.4601 155.518 62.54 155.518 62.6377C155.518 62.7353 155.558 62.8152 155.608 62.8152C155.657 62.8152 155.697 62.8863 155.697 62.9731C155.697 63.06 155.777 63.1887 155.876 63.2591C155.974 63.3294 156.055 63.439 156.055 63.5025C156.055 63.6529 156.999 64.5906 157.15 64.5906C157.214 64.5906 157.325 64.6705 157.395 64.7681C157.466 64.8658 157.596 64.9456 157.683 64.9456C157.771 64.9456 157.842 64.9856 157.842 65.0344C157.842 65.0832 157.963 65.1232 158.111 65.1232C158.258 65.1232 158.379 65.1631 158.379 65.212C158.379 65.2608 158.54 65.3007 158.736 65.3007C158.933 65.3007 159.094 65.3407 159.094 65.3895C159.094 65.447 160.214 65.4783 162.274 65.4783C164.911 65.4783 165.476 65.4999 165.581 65.6051C165.68 65.7034 165.709 66.0227 165.709 67.0254C165.709 67.8285 165.675 68.3188 165.62 68.3188C165.571 68.3188 165.53 68.4786 165.53 68.6739C165.53 68.8692 165.49 69.029 165.441 69.029C165.392 69.029 165.352 69.0917 165.352 69.1684C165.352 69.3478 165.136 69.5616 164.956 69.5616C164.878 69.5616 164.815 69.6015 164.815 69.6504C164.815 69.6992 164.694 69.7391 164.547 69.7391C164.399 69.7391 164.279 69.7791 164.279 69.8279C164.279 69.8858 162.878 69.9167 160.256 69.9167C156.293 69.9167 156.233 69.9193 156.233 70.0942C156.233 70.1918 156.193 70.2717 156.144 70.2717C156.088 70.2717 156.055 70.7748 156.055 71.6033C156.055 72.4317 156.088 72.9348 156.144 72.9348C156.193 72.9348 156.233 72.9965 156.233 73.0719C156.233 73.1474 156.332 73.3072 156.453 73.427L156.672 73.6449H160.565C163.1 73.6449 164.458 73.6139 164.458 73.5562C164.458 73.5055 164.726 73.4674 165.083 73.4674C165.441 73.4674 165.709 73.4293 165.709 73.3786C165.709 73.3298 165.91 73.2899 166.156 73.2899C166.402 73.2899 166.603 73.2499 166.603 73.2011C166.603 73.1523 166.683 73.1123 166.782 73.1123C166.88 73.1123 166.961 73.0724 166.961 73.0235C166.961 72.9747 167.072 72.9348 167.209 72.9348C167.355 72.9348 167.511 72.8615 167.586 72.7572C167.657 72.6596 167.767 72.5797 167.831 72.5797C167.994 72.5797 169.106 71.4582 169.106 71.2943C169.106 71.22 169.146 71.1594 169.195 71.1594C169.245 71.1594 169.285 71.0795 169.285 70.9819C169.285 70.8842 169.325 70.8043 169.374 70.8043C169.423 70.8043 169.464 70.7245 169.464 70.6268C169.464 70.5292 169.504 70.4493 169.553 70.4493C169.602 70.4493 169.642 70.3294 169.642 70.183C169.642 70.0365 169.683 69.9167 169.732 69.9167C169.781 69.9167 169.821 69.7169 169.821 69.4728C169.821 69.2287 169.861 69.029 169.911 69.029C169.969 69.029 170 66.8098 170 62.5489C170 58.288 169.969 56.0688 169.911 56.0688C169.861 56.0688 169.821 55.8321 169.821 55.5362C169.821 55.2404 169.782 55.0036 169.732 55.0036C169.683 55.0036 169.642 54.8838 169.642 54.7373C169.642 54.5908 169.602 54.471 169.553 54.471C169.504 54.471 169.464 54.3911 169.464 54.2935C169.464 54.1958 169.423 54.1159 169.374 54.1159C169.325 54.1159 169.285 54.036 169.285 53.9384C169.285 53.8408 169.245 53.7609 169.195 53.7609C169.146 53.7609 169.106 53.7002 169.106 53.626C169.106 53.4505 167.988 52.3406 167.812 52.3406C167.737 52.3406 167.676 52.3006 167.676 52.2518C167.676 52.203 167.595 52.163 167.497 52.163C167.399 52.163 167.318 52.1231 167.318 52.0743C167.318 52.0255 167.238 51.9855 167.139 51.9855C167.041 51.9855 166.961 51.9456 166.961 51.8967C166.961 51.8479 166.84 51.808 166.692 51.808C166.545 51.808 166.424 51.768 166.424 51.7192C166.424 51.6704 166.263 51.6304 166.067 51.6304C165.87 51.6304 165.709 51.5905 165.709 51.5417C165.709 51.4923 165.471 51.4529 165.173 51.4529C164.875 51.4529 164.636 51.4135 164.636 51.3641C164.636 51.3075 163.891 51.2754 162.58 51.2754C161.269 51.2754 160.524 51.3075 160.524 51.3641ZM54.436 51.7632C54.3746 51.8326 54.3242 51.9509 54.3242 52.0262C54.3242 52.1014 54.284 52.163 54.2348 52.163C54.1758 52.163 54.1455 55.773 54.1455 62.8152C54.1455 69.8575 54.1758 73.4674 54.2348 73.4674C54.284 73.4674 54.3242 73.5301 54.3242 73.6068C54.3242 73.9655 54.5051 74 56.3803 74C58.2555 74 58.4364 73.9655 58.4364 73.6068C58.4364 73.5301 58.4766 73.4674 58.5258 73.4674C58.584 73.4674 58.6152 72.0767 58.6152 69.4728V65.4783H61.8821H65.149L65.3684 65.2603C65.5843 65.046 65.5879 65.0179 65.5879 63.5231C65.5879 61.9449 65.5443 61.75 65.192 61.75C65.1147 61.75 65.0515 61.7101 65.0515 61.6612C65.0515 61.5197 59.3597 61.5417 59.293 61.6834C59.2514 61.7722 59.2304 61.7722 59.1888 61.6834C59.1601 61.6224 59.0193 61.5725 58.8759 61.5725H58.6152V58.5543V55.5362H62.4207C66.4284 55.5362 66.4818 55.5311 66.4818 55.1431C66.4818 55.0664 66.522 55.0036 66.5712 55.0036C66.6271 55.0036 66.6606 54.471 66.6606 53.5833C66.6606 52.6957 66.6271 52.163 66.5712 52.163C66.522 52.163 66.4818 52.1003 66.4818 52.0236C66.4818 51.6248 66.5662 51.6303 60.387 51.6338C55.4584 51.6366 54.5303 51.6568 54.436 51.7632ZM74.1697 51.7192C74.1697 51.768 73.9686 51.808 73.7227 51.808C73.4769 51.808 73.2758 51.8479 73.2758 51.8967C73.2758 51.9456 73.1551 51.9855 73.0076 51.9855C72.8601 51.9855 72.7394 52.0255 72.7394 52.0743C72.7394 52.1231 72.6187 52.163 72.4712 52.163C72.3237 52.163 72.203 52.203 72.203 52.2518C72.203 52.3006 72.1314 52.3406 72.044 52.3406C71.9565 52.3406 71.827 52.4205 71.7561 52.5181C71.6852 52.6158 71.5747 52.6957 71.5105 52.6957C71.3586 52.6957 70.5939 53.455 70.5939 53.6058C70.5939 53.6695 70.5135 53.7792 70.4152 53.8496C70.3168 53.92 70.2364 54.0487 70.2364 54.1356C70.2364 54.2224 70.1961 54.2935 70.147 54.2935C70.0978 54.2935 70.0576 54.3734 70.0576 54.471C70.0576 54.5687 70.0173 54.6485 69.9682 54.6485C69.919 54.6485 69.8788 54.7684 69.8788 54.9149C69.8788 55.0613 69.8386 55.1812 69.7894 55.1812C69.7402 55.1812 69.7 55.3409 69.7 55.5362C69.7 55.7315 69.6598 55.8913 69.6106 55.8913C69.5518 55.8913 69.5212 58.2585 69.5212 62.8152C69.5212 67.3719 69.5518 69.7391 69.6106 69.7391C69.6598 69.7391 69.7 69.8989 69.7 70.0942C69.7 70.2895 69.7402 70.4493 69.7894 70.4493C69.8386 70.4493 69.8788 70.5691 69.8788 70.7156C69.8788 70.862 69.919 70.9819 69.9682 70.9819C70.0173 70.9819 70.0576 71.0618 70.0576 71.1594C70.0576 71.2571 70.0978 71.337 70.147 71.337C70.1961 71.337 70.2364 71.4168 70.2364 71.5145C70.2364 71.6121 70.2766 71.692 70.3258 71.692C70.3749 71.692 70.4152 71.7528 70.4152 71.8271C70.4152 71.9916 71.3482 72.9348 71.5109 72.9348C71.5749 72.9348 71.6852 73.0147 71.7561 73.1123C71.827 73.21 71.9565 73.2899 72.044 73.2899C72.1314 73.2899 72.203 73.3298 72.203 73.3786C72.203 73.4274 72.3237 73.4674 72.4712 73.4674C72.6187 73.4674 72.7394 73.5073 72.7394 73.5562C72.7394 73.605 72.8601 73.6449 73.0076 73.6449C73.1551 73.6449 73.2758 73.6849 73.2758 73.7337C73.2758 73.7825 73.4769 73.8225 73.7227 73.8225C73.9686 73.8225 74.1697 73.8624 74.1697 73.9112C74.1697 73.9686 75.2127 74 77.1197 74C79.0267 74 80.0697 73.9686 80.0697 73.9112C80.0697 73.8624 80.2708 73.8225 80.5167 73.8225C80.7625 73.8225 80.9636 73.7825 80.9636 73.7337C80.9636 73.6849 81.0843 73.6449 81.2318 73.6449C81.3793 73.6449 81.5 73.605 81.5 73.5562C81.5 73.5073 81.6207 73.4674 81.7682 73.4674C81.9157 73.4674 82.0364 73.4274 82.0364 73.3786C82.0364 73.3298 82.108 73.2899 82.1954 73.2899C82.2829 73.2899 82.4124 73.21 82.4833 73.1123C82.5542 73.0147 82.6647 72.9348 82.7289 72.9348C82.8808 72.9348 83.6455 72.1755 83.6455 72.0246C83.6455 71.9609 83.7259 71.8512 83.8242 71.7808C83.9226 71.7104 84.003 71.5818 84.003 71.4949C84.003 71.4081 84.0433 71.337 84.0924 71.337C84.1416 71.337 84.1818 71.2571 84.1818 71.1594C84.1818 71.0618 84.222 70.9819 84.2712 70.9819C84.3204 70.9819 84.3606 70.862 84.3606 70.7156C84.3606 70.5691 84.4008 70.4493 84.45 70.4493C84.4992 70.4493 84.5394 70.2895 84.5394 70.0942C84.5394 69.8989 84.5796 69.7391 84.6288 69.7391C84.6876 69.7391 84.7182 67.3719 84.7182 62.8152C84.7182 58.2585 84.6876 55.8913 84.6288 55.8913C84.5796 55.8913 84.5394 55.7315 84.5394 55.5362C84.5394 55.3409 84.4992 55.1812 84.45 55.1812C84.4008 55.1812 84.3606 55.0613 84.3606 54.9149C84.3606 54.7684 84.3204 54.6485 84.2712 54.6485C84.222 54.6485 84.1818 54.5687 84.1818 54.471C84.1818 54.3734 84.1416 54.2935 84.0924 54.2935C84.0433 54.2935 84.003 54.2224 84.003 54.1356C84.003 54.0487 83.9226 53.92 83.8242 53.8496C83.7259 53.7792 83.6455 53.6695 83.6455 53.6058C83.6455 53.455 82.8808 52.6957 82.7289 52.6957C82.6647 52.6957 82.5542 52.6158 82.4833 52.5181C82.4124 52.4205 82.2829 52.3406 82.1954 52.3406C82.108 52.3406 82.0364 52.3006 82.0364 52.2518C82.0364 52.203 81.9559 52.163 81.8576 52.163C81.7592 52.163 81.6788 52.1231 81.6788 52.0743C81.6788 52.0255 81.5179 51.9855 81.3212 51.9855C81.1245 51.9855 80.9636 51.9456 80.9636 51.8967C80.9636 51.8479 80.7625 51.808 80.5167 51.808C80.2708 51.808 80.0697 51.768 80.0697 51.7192C80.0697 51.6619 79.0267 51.6304 77.1197 51.6304C75.2127 51.6304 74.1697 51.6619 74.1697 51.7192ZM89.2102 51.8546L89.0091 52.068V62.8161V73.5642L89.2285 73.7821C89.4465 73.9986 89.4593 74 91.1952 74C92.3004 74 92.9424 73.9674 92.9424 73.9112C92.9424 73.8624 93.0229 73.8225 93.1212 73.8225C93.2972 73.8225 93.3 73.7633 93.3 70.0054C93.3 67.5199 93.3312 66.1884 93.3894 66.1884C93.4386 66.1884 93.4788 66.1085 93.4788 66.0109C93.4788 65.8951 93.5384 65.8333 93.6502 65.8333C93.7444 65.8333 93.8449 65.7834 93.8736 65.7224C93.9153 65.6336 93.9362 65.6336 93.9779 65.7224C94.0152 65.8017 94.3228 65.8333 95.057 65.8333C96.1171 65.8333 96.3394 65.9015 96.3394 66.2265C96.3394 66.3032 96.3796 66.3659 96.4288 66.3659C96.478 66.3659 96.5182 66.4858 96.5182 66.6322C96.5182 66.7787 96.5584 66.8985 96.6076 66.8985C96.6567 66.8985 96.697 66.9784 96.697 67.0761C96.697 67.1737 96.7372 67.2536 96.7864 67.2536C96.8355 67.2536 96.8758 67.3335 96.8758 67.4312C96.8758 67.5288 96.916 67.6087 96.9651 67.6087C97.0143 67.6087 97.0545 67.6886 97.0545 67.7862C97.0545 67.8839 97.0948 67.9638 97.1439 67.9638C97.1931 67.9638 97.2333 68.0437 97.2333 68.1413C97.2333 68.2389 97.2736 68.3188 97.3227 68.3188C97.3719 68.3188 97.4121 68.3987 97.4121 68.4964C97.4121 68.594 97.4523 68.6739 97.5015 68.6739C97.5507 68.6739 97.5909 68.7937 97.5909 68.9402C97.5909 69.0867 97.6311 69.2065 97.6803 69.2065C97.7295 69.2065 97.7697 69.2864 97.7697 69.3841C97.7697 69.4817 97.8099 69.5616 97.8591 69.5616C97.9083 69.5616 97.9485 69.6415 97.9485 69.7391C97.9485 69.8368 97.9887 69.9167 98.0379 69.9167C98.087 69.9167 98.1273 69.9966 98.1273 70.0942C98.1273 70.1918 98.1675 70.2717 98.2167 70.2717C98.2658 70.2717 98.3061 70.3516 98.3061 70.4493C98.3061 70.5469 98.3463 70.6268 98.3955 70.6268C98.4446 70.6268 98.4848 70.7067 98.4848 70.8043C98.4848 70.902 98.5251 70.9819 98.5742 70.9819C98.6234 70.9819 98.6636 71.1017 98.6636 71.2482C98.6636 71.3947 98.7039 71.5145 98.753 71.5145C98.8022 71.5145 98.8424 71.5944 98.8424 71.692C98.8424 71.7897 98.8826 71.8696 98.9318 71.8696C98.981 71.8696 99.0212 71.9495 99.0212 72.0471C99.0212 72.1447 99.0614 72.2246 99.1106 72.2246C99.1598 72.2246 99.2 72.3045 99.2 72.4022C99.2 72.4998 99.2402 72.5797 99.2894 72.5797C99.3386 72.5797 99.3788 72.6596 99.3788 72.7572C99.3788 72.8549 99.419 72.9348 99.4682 72.9348C99.5173 72.9348 99.5576 73.0147 99.5576 73.1123C99.5576 73.21 99.5978 73.2899 99.647 73.2899C99.6961 73.2899 99.7364 73.3526 99.7364 73.4293C99.7364 73.6087 99.9516 73.8225 100.132 73.8225C100.21 73.8225 100.273 73.8624 100.273 73.9112C100.273 73.9676 100.958 74 102.15 74C103.342 74 104.027 73.9676 104.027 73.9112C104.027 73.8624 104.108 73.8225 104.206 73.8225C104.355 73.8225 104.385 73.7633 104.385 73.4674C104.385 73.2721 104.345 73.1123 104.295 73.1123C104.246 73.1123 104.206 73.0324 104.206 72.9348C104.206 72.8371 104.166 72.7572 104.117 72.7572C104.067 72.7572 104.027 72.6774 104.027 72.5797C104.027 72.4821 103.987 72.4022 103.938 72.4022C103.889 72.4022 103.848 72.3223 103.848 72.2246C103.848 72.127 103.808 72.0471 103.759 72.0471C103.71 72.0471 103.67 71.9672 103.67 71.8696C103.67 71.7719 103.629 71.692 103.58 71.692C103.531 71.692 103.491 71.6121 103.491 71.5145C103.491 71.4168 103.451 71.337 103.402 71.337C103.352 71.337 103.312 71.2571 103.312 71.1594C103.312 71.0618 103.272 70.9819 103.223 70.9819C103.174 70.9819 103.133 70.862 103.133 70.7156C103.133 70.5691 103.093 70.4493 103.044 70.4493C102.995 70.4493 102.955 70.3694 102.955 70.2717C102.955 70.1741 102.914 70.0942 102.865 70.0942C102.816 70.0942 102.776 70.0143 102.776 69.9167C102.776 69.819 102.736 69.7391 102.686 69.7391C102.637 69.7391 102.597 69.6592 102.597 69.5616C102.597 69.4639 102.557 69.3841 102.508 69.3841C102.458 69.3841 102.418 69.3042 102.418 69.2065C102.418 69.1089 102.378 69.029 102.329 69.029C102.28 69.029 102.239 68.9491 102.239 68.8514C102.239 68.7538 102.199 68.6739 102.15 68.6739C102.101 68.6739 102.061 68.594 102.061 68.4964C102.061 68.3987 102.02 68.3188 101.971 68.3188C101.922 68.3188 101.882 68.199 101.882 68.0525C101.882 67.9061 101.842 67.7862 101.792 67.7862C101.743 67.7862 101.703 67.7063 101.703 67.6087C101.703 67.511 101.663 67.4312 101.614 67.4312C101.564 67.4312 101.524 67.3513 101.524 67.2536C101.524 67.156 101.484 67.0761 101.435 67.0761C101.386 67.0761 101.345 66.9962 101.345 66.8985C101.345 66.8009 101.305 66.721 101.256 66.721C101.207 66.721 101.167 66.6411 101.167 66.5435C101.167 66.4458 101.126 66.3659 101.077 66.3659C101.028 66.3659 100.988 66.286 100.988 66.1884C100.988 66.0908 100.948 66.0109 100.898 66.0109C100.849 66.0109 100.809 65.931 100.809 65.8333C100.809 65.7357 100.769 65.6558 100.72 65.6558C100.671 65.6558 100.63 65.536 100.63 65.3895C100.63 65.1824 100.67 65.1232 100.809 65.1232C100.907 65.1232 100.988 65.0832 100.988 65.0344C100.988 64.9856 101.068 64.9456 101.167 64.9456C101.265 64.9456 101.345 64.9057 101.345 64.8569C101.345 64.8081 101.407 64.7681 101.481 64.7681C101.658 64.7681 102.776 63.6582 102.776 63.4827C102.776 63.4085 102.816 63.3478 102.865 63.3478C102.914 63.3478 102.955 63.2679 102.955 63.1703C102.955 63.0726 102.995 62.9928 103.044 62.9928C103.093 62.9928 103.133 62.9129 103.133 62.8152C103.133 62.7176 103.174 62.6377 103.223 62.6377C103.272 62.6377 103.312 62.5178 103.312 62.3714C103.312 62.2249 103.352 62.1051 103.402 62.1051C103.451 62.1051 103.491 61.9053 103.491 61.6612C103.491 61.4171 103.531 61.2174 103.58 61.2174C103.638 61.2174 103.67 60.3001 103.67 58.6431C103.67 56.9861 103.638 56.0688 103.58 56.0688C103.531 56.0688 103.491 55.9091 103.491 55.7138C103.491 55.5185 103.451 55.3587 103.402 55.3587C103.352 55.3587 103.312 55.2389 103.312 55.0924C103.312 54.9459 103.272 54.8261 103.223 54.8261C103.174 54.8261 103.133 54.7462 103.133 54.6485C103.133 54.5509 103.093 54.471 103.044 54.471C102.995 54.471 102.955 54.3911 102.955 54.2935C102.955 54.1958 102.914 54.1159 102.865 54.1159C102.816 54.1159 102.776 54.0554 102.776 53.9814C102.776 53.806 101.479 52.5181 101.302 52.5181C101.228 52.5181 101.167 52.4782 101.167 52.4293C101.167 52.3805 101.086 52.3406 100.988 52.3406C100.89 52.3406 100.809 52.3006 100.809 52.2518C100.809 52.203 100.729 52.163 100.63 52.163C100.532 52.163 100.452 52.1231 100.452 52.0743C100.452 52.0255 100.331 51.9855 100.183 51.9855C100.036 51.9855 99.9151 51.9456 99.9151 51.8967C99.9151 51.8479 99.714 51.808 99.4682 51.808C99.2223 51.808 99.0212 51.768 99.0212 51.7192C99.0212 51.6611 97.3636 51.6323 94.2163 51.6358L89.4114 51.6413L89.2102 51.8546ZM112.252 51.7192C112.252 51.768 112.091 51.808 111.894 51.808C111.697 51.808 111.536 51.8479 111.536 51.8967C111.536 51.9456 111.375 51.9855 111.179 51.9855C110.982 51.9855 110.821 52.0255 110.821 52.0743C110.821 52.1231 110.741 52.163 110.642 52.163C110.544 52.163 110.464 52.203 110.464 52.2518C110.464 52.3006 110.383 52.3406 110.285 52.3406C110.187 52.3406 110.106 52.3805 110.106 52.4293C110.106 52.4782 110.042 52.5181 109.963 52.5181C109.885 52.5181 109.707 52.638 109.57 52.7844C109.432 52.9309 109.255 53.0507 109.176 53.0507C109.098 53.0507 109.033 53.1145 109.033 53.1927C109.033 53.2707 108.913 53.4465 108.765 53.5833C108.618 53.7201 108.497 53.896 108.497 53.974C108.497 54.0521 108.457 54.1159 108.408 54.1159C108.358 54.1159 108.318 54.1958 108.318 54.2935C108.318 54.3911 108.278 54.471 108.229 54.471C108.18 54.471 108.139 54.5509 108.139 54.6485C108.139 54.7462 108.099 54.8261 108.05 54.8261C108.001 54.8261 107.961 54.9459 107.961 55.0924C107.961 55.2389 107.92 55.3587 107.871 55.3587C107.822 55.3587 107.782 55.5954 107.782 55.8913C107.782 56.1872 107.742 56.4239 107.692 56.4239C107.634 56.4239 107.603 58.6136 107.603 62.8152C107.603 67.0169 107.634 69.2065 107.692 69.2065C107.742 69.2065 107.782 69.4433 107.782 69.7391C107.782 70.035 107.822 70.2717 107.871 70.2717C107.92 70.2717 107.961 70.3916 107.961 70.538C107.961 70.6845 108.001 70.8043 108.05 70.8043C108.099 70.8043 108.139 70.9154 108.139 71.051C108.139 71.1959 108.213 71.3505 108.318 71.4257C108.417 71.4961 108.497 71.616 108.497 71.692C108.497 71.7681 108.577 71.8879 108.676 71.9583C108.774 72.0287 108.855 72.1402 108.855 72.2062C108.855 72.3535 109.072 72.5797 109.215 72.5797C109.272 72.5797 109.432 72.6995 109.57 72.846C109.707 72.9925 109.885 73.1123 109.963 73.1123C110.042 73.1123 110.106 73.1523 110.106 73.2011C110.106 73.2499 110.187 73.2899 110.285 73.2899C110.383 73.2899 110.464 73.3298 110.464 73.3786C110.464 73.4274 110.544 73.4674 110.642 73.4674C110.741 73.4674 110.821 73.5073 110.821 73.5562C110.821 73.605 110.942 73.6449 111.089 73.6449C111.237 73.6449 111.358 73.6849 111.358 73.7337C111.358 73.783 111.596 73.8225 111.894 73.8225C112.192 73.8225 112.43 73.8619 112.43 73.9112C112.43 73.9685 113.414 74 115.202 74C116.989 74 117.973 73.9685 117.973 73.9112C117.973 73.8619 118.211 73.8225 118.509 73.8225C118.807 73.8225 119.045 73.783 119.045 73.7337C119.045 73.6849 119.166 73.6449 119.314 73.6449C119.461 73.6449 119.582 73.605 119.582 73.5562C119.582 73.5073 119.662 73.4674 119.761 73.4674C119.859 73.4674 119.939 73.4274 119.939 73.3786C119.939 73.3298 120.02 73.2899 120.118 73.2899C120.217 73.2899 120.297 73.2499 120.297 73.2011C120.297 73.1523 120.361 73.1123 120.44 73.1123C120.518 73.1123 120.696 72.9925 120.833 72.846C120.971 72.6995 121.131 72.5797 121.188 72.5797C121.323 72.5797 121.548 72.3563 121.548 72.2222C121.548 72.1651 121.669 72.0064 121.817 71.8696C121.964 71.7328 122.085 71.5569 122.085 71.4789C122.085 71.4008 122.125 71.337 122.174 71.337C122.223 71.337 122.264 71.2571 122.264 71.1594C122.264 71.0618 122.304 70.9819 122.353 70.9819C122.402 70.9819 122.442 70.862 122.442 70.7156C122.442 70.5691 122.483 70.4493 122.532 70.4493C122.581 70.4493 122.621 70.2495 122.621 70.0054C122.621 69.7613 122.661 69.5616 122.711 69.5616C122.767 69.5616 122.8 68.9529 122.8 67.9131C122.8 66.1264 122.77 66.0109 122.315 66.0109C122.188 66.0109 122.085 65.9709 122.085 65.9221C122.085 65.8664 121.519 65.8333 120.565 65.8333C119.612 65.8333 119.045 65.8664 119.045 65.9221C119.045 65.9709 118.982 66.0109 118.905 66.0109C118.572 66.0109 118.509 66.227 118.509 67.3805C118.509 68.0652 118.475 68.4964 118.42 68.4964C118.371 68.4964 118.33 68.6562 118.33 68.8514C118.33 69.0467 118.29 69.2065 118.241 69.2065C118.192 69.2065 118.152 69.2682 118.152 69.3437C118.152 69.5213 117.753 69.9167 117.574 69.9167C117.498 69.9167 117.436 69.9566 117.436 70.0054C117.436 70.0622 116.632 70.0942 115.202 70.0942C113.771 70.0942 112.967 70.0622 112.967 70.0054C112.967 69.9566 112.905 69.9167 112.829 69.9167C112.611 69.9167 112.252 69.5041 112.252 69.2549C112.252 69.1306 112.211 69.029 112.162 69.029C112.103 69.029 112.073 66.869 112.073 62.7264C112.073 58.5839 112.103 56.4239 112.162 56.4239C112.211 56.4239 112.252 56.3622 112.252 56.2868C112.252 56.1091 112.65 55.7138 112.829 55.7138C112.905 55.7138 112.967 55.6738 112.967 55.625C112.967 55.5682 113.771 55.5362 115.202 55.5362C116.632 55.5362 117.436 55.5682 117.436 55.625C117.436 55.6738 117.498 55.7138 117.574 55.7138C117.753 55.7138 118.152 56.1091 118.152 56.2868C118.152 56.3622 118.192 56.4239 118.241 56.4239C118.29 56.4239 118.33 56.6236 118.33 56.8678C118.33 57.1119 118.371 57.3116 118.42 57.3116C118.474 57.3116 118.509 57.7132 118.509 58.3387C118.509 59.3992 118.577 59.6196 118.905 59.6196C118.982 59.6196 119.045 59.6595 119.045 59.7083C119.045 59.7643 119.641 59.7971 120.655 59.7971C121.668 59.7971 122.264 59.7643 122.264 59.7083C122.264 59.6595 122.327 59.6196 122.404 59.6196C122.758 59.6196 122.8 59.4268 122.8 57.8061C122.8 56.8255 122.767 56.2464 122.711 56.2464C122.661 56.2464 122.621 56.0466 122.621 55.8025C122.621 55.5584 122.581 55.3587 122.532 55.3587C122.483 55.3587 122.442 55.2389 122.442 55.0924C122.442 54.9459 122.402 54.8261 122.353 54.8261C122.304 54.8261 122.264 54.7062 122.264 54.5598C122.264 54.4133 122.223 54.2935 122.174 54.2935C122.125 54.2935 122.085 54.2297 122.085 54.1515C122.085 54.0735 121.964 53.8977 121.817 53.7609C121.669 53.6241 121.548 53.4654 121.548 53.4082C121.548 53.2742 121.323 53.0507 121.188 53.0507C121.131 53.0507 120.971 52.9309 120.833 52.7844C120.696 52.638 120.518 52.5181 120.44 52.5181C120.361 52.5181 120.297 52.4782 120.297 52.4293C120.297 52.3805 120.217 52.3406 120.118 52.3406C120.02 52.3406 119.939 52.3006 119.939 52.2518C119.939 52.203 119.859 52.163 119.761 52.163C119.662 52.163 119.582 52.1231 119.582 52.0743C119.582 52.0255 119.461 51.9855 119.314 51.9855C119.166 51.9855 119.045 51.9456 119.045 51.8967C119.045 51.8479 118.844 51.808 118.598 51.808C118.353 51.808 118.152 51.768 118.152 51.7192C118.152 51.6619 117.109 51.6304 115.202 51.6304C113.294 51.6304 112.252 51.6619 112.252 51.7192ZM126.934 51.8546L126.733 52.068V62.8161V73.5642L126.953 73.7821L127.172 74H133.083C139.337 74 139.248 74.0056 139.248 73.6068C139.248 73.5301 139.289 73.4674 139.338 73.4674C139.394 73.4674 139.427 72.9348 139.427 72.0471C139.427 71.1594 139.394 70.6268 139.338 70.6268C139.289 70.6268 139.248 70.5469 139.248 70.4493C139.248 70.3309 139.189 70.2717 139.07 70.2717C138.971 70.2717 138.891 70.2318 138.891 70.183C138.891 70.1252 137.563 70.0942 135.085 70.0942C131.906 70.0942 131.259 70.0733 131.152 69.9674C130.963 69.7797 130.963 64.9051 131.152 64.7174C131.258 64.6122 131.823 64.5906 134.46 64.5906C136.52 64.5906 137.639 64.5593 137.639 64.5018C137.639 64.453 137.72 64.413 137.818 64.413C137.937 64.413 137.997 64.3538 137.997 64.2355C137.997 64.1379 138.037 64.058 138.086 64.058C138.142 64.058 138.176 63.5254 138.176 62.6377C138.176 61.75 138.142 61.2174 138.086 61.2174C138.037 61.2174 137.997 61.1375 137.997 61.0399C137.997 60.9215 137.937 60.8623 137.818 60.8623C137.72 60.8623 137.639 60.8224 137.639 60.7735C137.639 60.716 136.52 60.6848 134.46 60.6848C131.823 60.6848 131.258 60.6631 131.152 60.5579C130.963 60.3706 130.963 55.8504 131.152 55.6631C131.259 55.5571 131.913 55.5362 135.136 55.5362C139.199 55.5362 139.248 55.5314 139.248 55.1431C139.248 55.0664 139.289 55.0036 139.338 55.0036C139.394 55.0036 139.427 54.471 139.427 53.5833C139.427 52.6957 139.394 52.163 139.338 52.163C139.289 52.163 139.248 52.1003 139.248 52.0236C139.248 51.6244 139.34 51.6301 133.064 51.6358L127.136 51.6413L126.934 51.8546ZM164.458 55.2699C164.458 55.3187 164.538 55.3587 164.636 55.3587C164.735 55.3587 164.815 55.3986 164.815 55.4475C164.815 55.4963 164.896 55.5362 164.994 55.5362C165.113 55.5362 165.173 55.5954 165.173 55.7138C165.173 55.8114 165.213 55.8913 165.262 55.8913C165.311 55.8913 165.352 55.9712 165.352 56.0688C165.352 56.1665 165.392 56.2464 165.441 56.2464C165.499 56.2464 165.53 57.2228 165.53 58.9982V61.75H163.027C161.418 61.75 160.524 61.7183 160.524 61.6612C160.524 61.6124 160.462 61.5725 160.386 61.5725C160.207 61.5725 159.809 61.1771 159.809 60.9995C159.809 60.924 159.769 60.8623 159.72 60.8623C159.671 60.8623 159.63 60.7025 159.63 60.5072C159.63 60.312 159.59 60.1522 159.541 60.1522C159.484 60.1522 159.452 59.5012 159.452 58.3768C159.452 57.2524 159.484 56.6014 159.541 56.6014C159.59 56.6014 159.63 56.4816 159.63 56.3351C159.63 56.1887 159.671 56.0688 159.72 56.0688C159.769 56.0688 159.809 56.0071 159.809 55.9317C159.809 55.6748 160.226 55.3587 160.565 55.3587C160.739 55.3587 160.882 55.3187 160.882 55.2699C160.882 55.2137 161.537 55.1812 162.67 55.1812C163.802 55.1812 164.458 55.2137 164.458 55.2699ZM95.0879 55.4475C95.0879 55.4963 95.1683 55.5362 95.2667 55.5362C95.365 55.5362 95.4455 55.4963 95.4455 55.4475C95.4455 55.3968 95.7136 55.3587 96.0712 55.3587C96.4288 55.3587 96.697 55.3968 96.697 55.4475C96.697 55.5764 97.2088 55.5566 97.2706 55.4253C97.3123 55.3365 97.3332 55.3365 97.3748 55.4253C97.4062 55.4919 97.6024 55.5362 97.8665 55.5362C98.1083 55.5362 98.3061 55.5762 98.3061 55.625C98.3061 55.6738 98.3682 55.7138 98.4442 55.7138C98.623 55.7138 99.0212 56.1091 99.0212 56.2868C99.0212 56.3622 99.0614 56.4239 99.1106 56.4239C99.1598 56.4239 99.2 56.5437 99.2 56.6902C99.2 56.8367 99.2402 56.9565 99.2894 56.9565C99.3462 56.9565 99.3788 57.6667 99.3788 58.9094C99.3788 60.1522 99.3462 60.8623 99.2894 60.8623C99.2402 60.8623 99.2 60.9734 99.2 61.109C99.2 61.2539 99.1262 61.4085 99.0212 61.4837C98.9229 61.5541 98.8424 61.6827 98.8424 61.7696C98.8424 61.8683 98.7755 61.9275 98.6636 61.9275C98.5653 61.9275 98.4848 61.9675 98.4848 62.0163C98.4848 62.0651 98.3642 62.1051 98.2167 62.1051C98.0692 62.1051 97.9485 62.145 97.9485 62.1938C97.9485 62.2506 97.1567 62.2826 95.752 62.2826C93.9675 62.2826 93.5314 62.2588 93.4277 62.1558C93.2379 61.9673 93.2379 55.8515 93.4277 55.6631C93.5078 55.5835 93.741 55.5362 94.0535 55.5362C94.3274 55.5362 94.5515 55.4963 94.5515 55.4475C94.5515 55.3986 94.6722 55.3587 94.8197 55.3587C94.9672 55.3587 95.0879 55.3986 95.0879 55.4475ZM78.997 55.625C78.997 55.6738 79.0774 55.7138 79.1758 55.7138C79.2741 55.7138 79.3545 55.7537 79.3545 55.8025C79.3545 55.8514 79.4167 55.8913 79.4927 55.8913C79.6679 55.8913 80.0697 56.2852 80.0697 56.4568C80.0697 56.5282 80.12 56.607 80.1814 56.6317C80.2658 56.6656 80.2604 56.7018 80.1591 56.779C80.0578 56.8562 80.0524 56.8923 80.1367 56.9262C80.2804 56.9842 80.3027 69.029 80.1591 69.029C80.1099 69.029 80.0697 69.0902 80.0697 69.1651C80.0697 69.24 79.9302 69.4397 79.7598 69.6089C79.5231 69.844 79.3753 69.9167 79.134 69.9167C78.9603 69.9167 78.8182 69.9566 78.8182 70.0054C78.8182 70.0615 78.1924 70.0942 77.1197 70.0942C76.047 70.0942 75.4212 70.0615 75.4212 70.0054C75.4212 69.9566 75.3005 69.9167 75.153 69.9167C75.0055 69.9167 74.8848 69.8767 74.8848 69.8279C74.8848 69.7791 74.7642 69.7391 74.6167 69.7391C74.383 69.7391 74.3485 69.7073 74.3485 69.4924C74.3485 69.3476 74.2746 69.1929 74.1697 69.1178C73.9939 68.9919 73.9909 68.8879 73.9909 62.7956C73.9909 58.7253 74.0216 56.6014 74.0803 56.6014C74.1295 56.6014 74.1697 56.5216 74.1697 56.4239C74.1697 56.3263 74.2099 56.2464 74.2591 56.2464C74.3083 56.2464 74.3485 56.1665 74.3485 56.0688C74.3485 55.9505 74.4081 55.8913 74.5273 55.8913C74.6256 55.8913 74.7061 55.8514 74.7061 55.8025C74.7061 55.7537 74.8267 55.7138 74.9742 55.7138C75.1217 55.7138 75.2424 55.6738 75.2424 55.625C75.2424 55.5686 75.9278 55.5362 77.1197 55.5362C78.3116 55.5362 78.997 55.5686 78.997 55.625Z" fill="#170710"/>
</svg>
