<svg width="222" height="99" viewBox="0 0 222 99" fill="none" xmlns="http://www.w3.org/2000/svg">
<path fill-rule="evenodd" clip-rule="evenodd" d="M24 15.5848C24 18.1528 24.0021 18.1718 24.3236 18.4942L24.6471 18.8188H28.0145H31.3818V32.1757C31.3818 40.9922 31.4266 45.5326 31.5136 45.5326C31.5861 45.5326 31.6455 45.6261 31.6455 45.7404C31.6455 46.2745 31.9123 46.3261 34.6738 46.3261C37.3135 46.3261 37.3271 46.3246 37.6491 46.0014L37.9727 45.6769V32.4368C37.9727 21.1383 38.0004 19.169 38.1611 19.0078C38.3143 18.854 38.9665 18.8188 41.6602 18.8188H44.9711L45.2946 18.4942C45.6129 18.1749 45.6182 18.1329 45.6182 15.9094C45.6182 13.686 45.6129 13.6439 45.2946 13.3247L44.9711 13H34.4855H24V15.5848ZM49.8364 13.1322C49.8364 13.205 49.7177 13.2645 49.5727 13.2645C49.397 13.2645 49.3091 13.3527 49.3091 13.529C49.3091 13.6745 49.2498 13.7935 49.1773 13.7935C49.0901 13.7935 49.0455 19.1715 49.0455 29.663C49.0455 40.1545 49.0901 45.5326 49.1773 45.5326C49.2498 45.5326 49.3091 45.6261 49.3091 45.7404C49.3091 46.3351 49.1659 46.3261 58.5929 46.3261C64.4431 46.3261 67.5 46.2807 67.5 46.1938C67.5 46.1211 67.6186 46.0616 67.7636 46.0616C68.0184 46.0616 68.0273 45.9734 68.0273 43.4167C68.0273 40.8599 68.0184 40.7717 67.7636 40.7717C67.6186 40.7717 67.5 40.7122 67.5 40.6395C67.5 40.5534 65.4977 40.5072 61.7565 40.5072C56.9545 40.5072 55.9821 40.4763 55.8247 40.3183C55.5461 40.0387 55.5461 32.7765 55.8247 32.4969C55.9809 32.3401 56.8235 32.308 60.7738 32.308H65.5347L65.8582 31.9833C66.1765 31.6641 66.1818 31.6221 66.1818 29.3951C66.1818 27.044 66.1176 26.7536 65.598 26.7536C65.4841 26.7536 65.3909 26.6941 65.3909 26.6214C65.3909 26.5357 63.74 26.4891 60.702 26.4891C56.8139 26.4891 55.9808 26.4569 55.8247 26.3001C55.5465 26.0211 55.5465 19.2869 55.8247 19.0078C55.982 18.8499 56.9465 18.8188 61.6966 18.8188H67.3802L67.7037 18.4942C68.024 18.1729 68.0273 18.1446 68.0273 15.717C68.0273 13.3527 68.0178 13.2645 67.7636 13.2645C67.6186 13.2645 67.5 13.205 67.5 13.1322C67.5 13.0454 64.4682 13 58.6682 13C52.8682 13 49.8364 13.0454 49.8364 13.1322ZM80.1545 13.1322C80.1545 13.2058 79.803 13.2645 79.3636 13.2645C78.9243 13.2645 78.5727 13.3232 78.5727 13.3967C78.5727 13.4695 78.3948 13.529 78.1773 13.529C77.9598 13.529 77.7818 13.5885 77.7818 13.6612C77.7818 13.734 77.6039 13.7935 77.3864 13.7935C77.1689 13.7935 76.9909 13.853 76.9909 13.9257C76.9909 13.9985 76.8853 14.058 76.7564 14.058C76.6274 14.058 76.4363 14.177 76.3318 14.3225C76.2273 14.4679 76.0646 14.587 75.9704 14.587C75.7469 14.587 74.3545 15.9839 74.3545 16.208C74.3545 16.3026 74.2359 16.4658 74.0909 16.5707C73.9362 16.6827 73.8273 16.913 73.8273 17.1289C73.8273 17.3309 73.768 17.4964 73.6955 17.4964C73.623 17.4964 73.5636 17.6154 73.5636 17.7609C73.5636 17.9063 73.5043 18.0254 73.4318 18.0254C73.3593 18.0254 73.3 18.2634 73.3 18.5543C73.3 18.8453 73.2407 19.0833 73.1682 19.0833C73.0814 19.0833 73.0364 22.698 73.0364 29.663C73.0364 36.6281 73.0814 40.2428 73.1682 40.2428C73.2407 40.2428 73.3 40.4808 73.3 40.7717C73.3 41.0627 73.3593 41.3007 73.4318 41.3007C73.5043 41.3007 73.5636 41.4197 73.5636 41.5652C73.5636 41.7107 73.623 41.8297 73.6955 41.8297C73.768 41.8297 73.8273 41.9951 73.8273 42.1972C73.8273 42.413 73.9362 42.6434 74.0909 42.7554C74.2359 42.8603 74.3545 43.0235 74.3545 43.1181C74.3545 43.3422 75.7469 44.7391 75.9704 44.7391C76.0646 44.7391 76.2273 44.8581 76.3318 45.0036C76.4363 45.1491 76.6274 45.2681 76.7564 45.2681C76.8853 45.2681 76.9909 45.3276 76.9909 45.4004C76.9909 45.4731 77.1689 45.5326 77.3864 45.5326C77.6039 45.5326 77.7818 45.5921 77.7818 45.6649C77.7818 45.7376 77.9598 45.7971 78.1773 45.7971C78.3948 45.7971 78.5727 45.8566 78.5727 45.9293C78.5727 46.0029 78.9243 46.0616 79.3636 46.0616C79.803 46.0616 80.1545 46.1203 80.1545 46.1938C80.1545 46.2793 81.6484 46.3261 84.3727 46.3261C87.097 46.3261 88.5909 46.2793 88.5909 46.1938C88.5909 46.1211 88.8875 46.0616 89.25 46.0616C89.6125 46.0616 89.9091 46.0021 89.9091 45.9293C89.9091 45.8566 90.087 45.7971 90.3045 45.7971C90.522 45.7971 90.7 45.7376 90.7 45.6649C90.7 45.5921 90.878 45.5326 91.0955 45.5326C91.313 45.5326 91.4909 45.4731 91.4909 45.4004C91.4909 45.3276 91.5965 45.2681 91.7254 45.2681C91.8545 45.2681 92.0455 45.1491 92.15 45.0036C92.2545 44.8581 92.4172 44.7391 92.5114 44.7391C92.7349 44.7391 94.1273 43.3422 94.1273 43.1181C94.1273 43.0235 94.2459 42.8603 94.3909 42.7554C94.5359 42.6506 94.6545 42.4589 94.6545 42.3295C94.6545 42.2001 94.7139 42.0942 94.7864 42.0942C94.8589 42.0942 94.9182 41.9157 94.9182 41.6975C94.9182 41.4793 94.9775 41.3007 95.05 41.3007C95.1225 41.3007 95.1818 41.1222 95.1818 40.904C95.1818 40.6858 95.2411 40.5072 95.3136 40.5072C95.3869 40.5072 95.4455 40.1545 95.4455 39.7138C95.4455 39.273 95.504 38.9203 95.5773 38.9203C95.6589 38.9203 95.7091 38.215 95.7091 37.0688C95.7091 35.9227 95.6589 35.2174 95.5773 35.2174C95.5048 35.2174 95.4455 35.1239 95.4455 35.0096C95.4455 34.6674 95.0977 34.4239 94.6091 34.4239C94.3561 34.4239 94.1146 34.3496 94.0723 34.2586C94.0109 34.1264 93.98 34.1264 93.9186 34.2586C93.8617 34.3811 93.2781 34.4239 91.6682 34.4239C89.9604 34.4239 89.4544 34.4644 89.3065 34.6129C89.1605 34.7593 89.1182 35.235 89.1182 36.7288C89.1182 37.9253 89.0682 38.6558 88.9864 38.6558C88.9139 38.6558 88.8545 38.8066 88.8545 38.9908C88.8545 39.3633 88.0706 40.2428 87.7384 40.2428C87.6273 40.2428 87.5364 40.3023 87.5364 40.375C87.5364 40.4596 86.35 40.5072 84.2409 40.5072C82.1318 40.5072 80.9455 40.4596 80.9455 40.375C80.9455 40.3023 80.8538 40.2428 80.7418 40.2428C80.478 40.2428 79.8909 39.6537 79.8909 39.3891C79.8909 39.2767 79.8316 39.1848 79.7591 39.1848C79.6861 39.1848 79.6273 38.8358 79.6273 38.4023C79.6273 37.9003 79.5682 37.5958 79.4625 37.5527C79.3381 37.5022 79.3461 37.4484 79.4955 37.3333C79.6448 37.2183 79.6528 37.1645 79.5284 37.1139C79.3167 37.0277 79.284 21.4638 79.4955 21.4638C79.568 21.4638 79.6273 21.1662 79.6273 20.8025C79.6273 20.4389 79.6866 20.1413 79.7591 20.1413C79.8316 20.1413 79.8909 20.0494 79.8909 19.937C79.8909 19.6724 80.478 19.0833 80.7418 19.0833C80.8538 19.0833 80.9455 19.0238 80.9455 18.9511C80.9455 18.8664 82.1318 18.8188 84.2409 18.8188C86.35 18.8188 87.5364 18.8664 87.5364 18.9511C87.5364 19.0238 87.6273 19.0833 87.7384 19.0833C87.8497 19.0833 88.1463 19.2896 88.3975 19.5418C88.7466 19.8919 88.8545 20.1106 88.8545 20.4676C88.8545 20.7245 88.9139 20.9348 88.9864 20.9348C89.0678 20.9348 89.1182 21.6211 89.1182 22.7295C89.1182 24.1087 89.1618 24.5681 89.3065 24.7132C89.4579 24.865 90.0422 24.9022 92.2818 24.9022C95.1866 24.9022 95.4455 24.8543 95.4455 24.3165C95.4455 24.2022 95.5048 24.1087 95.5773 24.1087C95.6583 24.1087 95.7091 23.4475 95.7091 22.3895C95.7091 21.3315 95.6583 20.6703 95.5773 20.6703C95.502 20.6703 95.4455 20.2735 95.4455 19.7446C95.4455 19.2156 95.3889 18.8188 95.3136 18.8188C95.2411 18.8188 95.1818 18.6403 95.1818 18.4221C95.1818 18.2039 95.1225 18.0254 95.05 18.0254C94.9775 18.0254 94.9182 17.8468 94.9182 17.6286C94.9182 17.4104 94.8589 17.2319 94.7864 17.2319C94.7139 17.2319 94.6545 17.126 94.6545 16.9966C94.6545 16.8671 94.5359 16.6755 94.3909 16.5707C94.2459 16.4658 94.1273 16.3026 94.1273 16.208C94.1273 15.9839 92.7349 14.587 92.5114 14.587C92.4172 14.587 92.2545 14.4679 92.15 14.3225C92.0455 14.177 91.8545 14.058 91.7254 14.058C91.5965 14.058 91.4909 13.9985 91.4909 13.9257C91.4909 13.853 91.313 13.7935 91.0955 13.7935C90.878 13.7935 90.7 13.734 90.7 13.6612C90.7 13.5885 90.522 13.529 90.3045 13.529C90.087 13.529 89.9091 13.4695 89.9091 13.3967C89.9091 13.324 89.6125 13.2645 89.25 13.2645C88.8875 13.2645 88.5909 13.205 88.5909 13.1322C88.5909 13.0468 87.097 13 84.3727 13C81.6484 13 80.1545 13.0468 80.1545 13.1322ZM101.509 13.1322C101.509 13.205 101.39 13.2645 101.245 13.2645C101.04 13.2645 100.982 13.3527 100.982 13.6612C100.982 13.8794 100.922 14.058 100.85 14.058C100.763 14.058 100.718 19.3478 100.718 29.663C100.718 39.9783 100.763 45.2681 100.85 45.2681C100.922 45.2681 100.982 45.4466 100.982 45.6649C100.982 45.9734 101.04 46.0616 101.245 46.0616C101.39 46.0616 101.509 46.1211 101.509 46.1938C101.509 46.2775 102.456 46.3261 104.085 46.3261C106.645 46.3261 106.664 46.324 106.985 46.0014L107.309 45.6769V39.3136C107.309 33.9751 107.339 32.9199 107.497 32.7614C107.777 32.4806 116.859 32.4806 117.139 32.7614C117.297 32.9199 117.327 33.9751 117.327 39.3136V45.6769L117.651 46.0014C117.973 46.3246 117.987 46.3261 120.623 46.3261C123.259 46.3261 123.273 46.3246 123.595 46.0014L123.918 45.6769V29.663V13.6492L123.595 13.3247C123.273 13.0015 123.259 13 120.623 13C117.987 13 117.973 13.0015 117.651 13.3247L117.327 13.6492V20.2015V26.7536H112.507C108.504 26.7536 107.654 26.7215 107.497 26.5646C107.339 26.4062 107.309 25.351 107.309 20.0125V13.6492L106.985 13.3247C106.664 13.0021 106.645 13 104.085 13C102.456 13 101.509 13.0485 101.509 13.1322ZM165.045 52.2772C165.045 52.3499 164.927 52.4094 164.782 52.4094C164.637 52.4094 164.518 52.4689 164.518 52.5417C164.518 52.6144 164.4 52.6739 164.255 52.6739C164.11 52.6739 163.991 52.7334 163.991 52.8062C163.991 52.8789 163.872 52.9384 163.727 52.9384C163.582 52.9384 163.464 52.9979 163.464 53.0706C163.464 53.1434 163.345 53.2029 163.2 53.2029C163.055 53.2029 162.936 53.2624 162.936 53.3351C162.936 53.4079 162.831 53.4674 162.702 53.4674C162.573 53.4674 162.382 53.5864 162.277 53.7319C162.173 53.8773 161.995 53.9964 161.882 53.9964C161.769 53.9964 161.591 54.1154 161.486 54.2609C161.382 54.4063 161.191 54.5254 161.062 54.5254C160.933 54.5254 160.827 54.5849 160.827 54.6576C160.827 54.7303 160.722 54.7898 160.593 54.7898C160.464 54.7898 160.273 54.9089 160.168 55.0543C160.064 55.1998 159.886 55.3188 159.773 55.3188C159.66 55.3188 159.482 55.4379 159.377 55.5833C159.273 55.7288 159.109 55.8478 159.014 55.8478C158.919 55.8478 158.636 56.0541 158.384 56.3063L157.927 56.7647V59.159C157.927 61.8149 157.962 61.9312 158.746 61.9312C159.036 61.9312 159.252 61.8406 159.377 61.6667C159.482 61.5212 159.673 61.4022 159.802 61.4022C159.931 61.4022 160.036 61.3427 160.036 61.2699C160.036 61.1972 160.155 61.1377 160.3 61.1377C160.445 61.1377 160.564 61.0782 160.564 61.0054C160.564 60.9327 160.669 60.8732 160.798 60.8732C160.927 60.8732 161.118 60.7542 161.223 60.6087C161.327 60.4632 161.518 60.3442 161.647 60.3442C161.776 60.3442 161.882 60.2847 161.882 60.212C161.882 60.1392 162 60.0797 162.145 60.0797C162.29 60.0797 162.409 60.0202 162.409 59.9475C162.409 59.8747 162.528 59.8152 162.673 59.8152C162.818 59.8152 162.936 59.7557 162.936 59.683C162.936 59.6102 163.042 59.5507 163.171 59.5507C163.3 59.5507 163.491 59.4317 163.595 59.2862C163.7 59.1408 163.891 59.0217 164.02 59.0217C164.243 59.0217 164.255 59.6436 164.255 71.9251C164.255 85.6215 164.236 85.2065 164.838 85.2065C164.952 85.2065 165.045 85.266 165.045 85.3388C165.045 85.4221 165.924 85.471 167.418 85.471C168.912 85.471 169.791 85.4221 169.791 85.3388C169.791 85.266 169.91 85.2065 170.055 85.2065C170.26 85.2065 170.318 85.1183 170.318 84.8098C170.318 84.5916 170.377 84.413 170.45 84.413C170.537 84.413 170.582 79.0791 170.582 68.6757C170.582 58.2723 170.537 52.9384 170.45 52.9384C170.377 52.9384 170.318 52.8194 170.318 52.6739C170.318 52.4976 170.23 52.4094 170.055 52.4094C169.91 52.4094 169.791 52.3499 169.791 52.2772C169.791 52.1939 168.912 52.1449 167.418 52.1449C165.924 52.1449 165.045 52.1939 165.045 52.2772ZM184.027 52.2772C184.027 52.3507 183.676 52.4094 183.236 52.4094C182.797 52.4094 182.445 52.4681 182.445 52.5417C182.445 52.6144 182.149 52.6739 181.786 52.6739C181.424 52.6739 181.127 52.7334 181.127 52.8062C181.127 52.8789 180.949 52.9384 180.732 52.9384C180.514 52.9384 180.336 52.9979 180.336 53.0706C180.336 53.1434 180.218 53.2029 180.073 53.2029C179.928 53.2029 179.809 53.2624 179.809 53.3351C179.809 53.4079 179.69 53.4674 179.545 53.4674C179.4 53.4674 179.282 53.5269 179.282 53.5996C179.282 53.6724 179.192 53.7319 179.081 53.7319C178.837 53.7319 177.436 55.1121 177.436 55.353C177.436 55.4475 177.318 55.6107 177.173 55.7156C177.028 55.8204 176.909 56.0121 176.909 56.1415C176.909 56.2709 176.85 56.3768 176.777 56.3768C176.705 56.3768 176.645 56.5553 176.645 56.7735C176.645 56.9918 176.586 57.1703 176.514 57.1703C176.441 57.1703 176.382 57.3488 176.382 57.567C176.382 57.7852 176.322 57.9638 176.25 57.9638C176.171 57.9638 176.118 58.4927 176.118 59.2862C176.118 60.0797 176.065 60.6087 175.986 60.6087C175.904 60.6087 175.855 61.3581 175.855 62.5924C175.855 63.8266 175.904 64.5761 175.986 64.5761C176.067 64.5761 176.118 65.1933 176.118 66.163C176.118 67.1328 176.169 67.75 176.25 67.75C176.322 67.75 176.382 67.988 176.382 68.279C176.382 68.5699 176.441 68.808 176.514 68.808C176.586 68.808 176.645 68.927 176.645 69.0725C176.645 69.2179 176.705 69.3369 176.777 69.3369C176.85 69.3369 176.909 69.4429 176.909 69.5722C176.909 69.7017 177.028 69.8933 177.173 69.9982C177.318 70.1031 177.436 70.2662 177.436 70.3608C177.436 70.585 178.829 71.9819 179.052 71.9819C179.146 71.9819 179.309 72.1009 179.414 72.2464C179.518 72.3918 179.709 72.5109 179.838 72.5109C179.967 72.5109 180.073 72.5704 180.073 72.6431C180.073 72.7158 180.251 72.7754 180.468 72.7754C180.686 72.7754 180.864 72.8349 180.864 72.9076C180.864 72.9803 181.101 73.0398 181.391 73.0398C181.681 73.0398 181.918 73.0994 181.918 73.1721C181.918 73.2578 183.569 73.3043 186.607 73.3043C190.495 73.3043 191.328 73.3366 191.484 73.4933C191.63 73.6397 191.673 74.1154 191.673 75.6093C191.673 76.8057 191.623 77.5362 191.541 77.5362C191.468 77.5362 191.409 77.7743 191.409 78.0652C191.409 78.3562 191.35 78.5942 191.277 78.5942C191.205 78.5942 191.145 78.6877 191.145 78.802C191.145 79.0692 190.828 79.3877 190.562 79.3877C190.448 79.3877 190.355 79.4472 190.355 79.5199C190.355 79.5927 190.177 79.6522 189.959 79.6522C189.742 79.6522 189.564 79.7117 189.564 79.7844C189.564 79.8706 187.498 79.9167 183.632 79.9167C177.788 79.9167 177.7 79.9206 177.7 80.1812C177.7 80.3266 177.641 80.4456 177.568 80.4456C177.486 80.4456 177.436 81.1951 177.436 82.4293C177.436 83.6636 177.486 84.413 177.568 84.413C177.641 84.413 177.7 84.5049 177.7 84.6174C177.7 84.7298 177.846 84.9678 178.024 85.1463L178.347 85.471H184.087C187.826 85.471 189.827 85.4249 189.827 85.3388C189.827 85.2632 190.223 85.2065 190.75 85.2065C191.277 85.2065 191.673 85.1498 191.673 85.0743C191.673 85.0015 191.969 84.942 192.332 84.942C192.694 84.942 192.991 84.8825 192.991 84.8098C192.991 84.737 193.11 84.6775 193.255 84.6775C193.4 84.6775 193.518 84.618 193.518 84.5453C193.518 84.4725 193.683 84.413 193.885 84.413C194.1 84.413 194.329 84.3038 194.441 84.1485C194.545 84.0031 194.708 83.884 194.802 83.884C195.042 83.884 196.682 82.2132 196.682 81.969C196.682 81.8584 196.741 81.7681 196.814 81.7681C196.886 81.7681 196.945 81.6491 196.945 81.5036C196.945 81.3581 197.005 81.2391 197.077 81.2391C197.15 81.2391 197.209 81.1201 197.209 80.9746C197.209 80.8292 197.268 80.7101 197.341 80.7101C197.413 80.7101 197.473 80.5316 197.473 80.3134C197.473 80.0952 197.532 79.9167 197.605 79.9167C197.677 79.9167 197.736 79.6191 197.736 79.2554C197.736 78.8917 197.796 78.5942 197.868 78.5942C197.955 78.5942 198 75.288 198 68.9402C198 62.5924 197.955 59.2862 197.868 59.2862C197.795 59.2862 197.736 58.9335 197.736 58.4927C197.736 58.052 197.678 57.6993 197.605 57.6993C197.532 57.6993 197.473 57.5207 197.473 57.3025C197.473 57.0843 197.413 56.9058 197.341 56.9058C197.268 56.9058 197.209 56.7868 197.209 56.6413C197.209 56.4958 197.15 56.3768 197.077 56.3768C197.005 56.3768 196.945 56.2578 196.945 56.1123C196.945 55.9668 196.886 55.8478 196.814 55.8478C196.741 55.8478 196.682 55.7575 196.682 55.6469C196.682 55.3855 195.034 53.7319 194.773 53.7319C194.663 53.7319 194.573 53.6724 194.573 53.5996C194.573 53.5269 194.454 53.4674 194.309 53.4674C194.164 53.4674 194.045 53.4079 194.045 53.3351C194.045 53.2624 193.927 53.2029 193.782 53.2029C193.637 53.2029 193.518 53.1434 193.518 53.0706C193.518 52.9979 193.34 52.9384 193.123 52.9384C192.905 52.9384 192.727 52.8789 192.727 52.8062C192.727 52.7334 192.49 52.6739 192.2 52.6739C191.91 52.6739 191.673 52.6144 191.673 52.5417C191.673 52.4681 191.321 52.4094 190.882 52.4094C190.442 52.4094 190.091 52.3507 190.091 52.2772C190.091 52.1928 188.992 52.1449 187.059 52.1449C185.126 52.1449 184.027 52.1928 184.027 52.2772ZM27.592 52.8717C27.5015 52.975 27.4273 53.1513 27.4273 53.2635C27.4273 53.3756 27.368 53.4674 27.2955 53.4674C27.2083 53.4674 27.1636 58.8454 27.1636 69.3369C27.1636 79.8284 27.2083 85.2065 27.2955 85.2065C27.368 85.2065 27.4273 85.3 27.4273 85.4143C27.4273 85.9485 27.6939 86 30.4591 86C33.2242 86 33.4909 85.9485 33.4909 85.4143C33.4909 85.3 33.5502 85.2065 33.6227 85.2065C33.7087 85.2065 33.7545 83.1346 33.7545 79.2554V73.3043H38.5718H43.3893L43.7127 72.9797C44.0311 72.6604 44.0364 72.6185 44.0364 70.3915C44.0364 68.0404 43.9722 67.75 43.4525 67.75C43.3386 67.75 43.2455 67.6905 43.2455 67.6177C43.2455 67.4069 34.8525 67.4396 34.7541 67.6508C34.6927 67.7831 34.6618 67.7831 34.6004 67.6508C34.5581 67.56 34.3505 67.4855 34.1391 67.4855H33.7545V62.9891V58.4927H39.3662C45.2758 58.4927 45.3545 58.4851 45.3545 57.907C45.3545 57.7928 45.4139 57.6993 45.4864 57.6993C45.5687 57.6993 45.6182 56.9058 45.6182 55.5833C45.6182 54.2609 45.5687 53.4674 45.4864 53.4674C45.4139 53.4674 45.3545 53.3739 45.3545 53.2596C45.3545 52.6656 45.479 52.6736 36.3673 52.6789C29.0996 52.6832 27.7311 52.7132 27.592 52.8717ZM56.6909 52.8062C56.6909 52.8789 56.3943 52.9384 56.0318 52.9384C55.6693 52.9384 55.3727 52.9979 55.3727 53.0706C55.3727 53.1434 55.1948 53.2029 54.9773 53.2029C54.7598 53.2029 54.5818 53.2624 54.5818 53.3351C54.5818 53.4079 54.4039 53.4674 54.1864 53.4674C53.9689 53.4674 53.7909 53.5269 53.7909 53.5996C53.7909 53.6724 53.6853 53.7319 53.5564 53.7319C53.4274 53.7319 53.2363 53.8509 53.1318 53.9964C53.0273 54.1418 52.8644 54.2609 52.7697 54.2609C52.5458 54.2609 51.4182 55.3921 51.4182 55.6168C51.4182 55.7117 51.2995 55.8752 51.1545 55.9801C51.0095 56.0849 50.8909 56.2766 50.8909 56.406C50.8909 56.5354 50.8316 56.6413 50.7591 56.6413C50.6866 56.6413 50.6273 56.7603 50.6273 56.9058C50.6273 57.0513 50.568 57.1703 50.4955 57.1703C50.423 57.1703 50.3636 57.3488 50.3636 57.567C50.3636 57.7852 50.3043 57.9638 50.2318 57.9638C50.1593 57.9638 50.1 58.2018 50.1 58.4927C50.1 58.7837 50.0407 59.0217 49.9682 59.0217C49.8814 59.0217 49.8364 62.5483 49.8364 69.3369C49.8364 76.1256 49.8814 79.6522 49.9682 79.6522C50.0407 79.6522 50.1 79.8902 50.1 80.1812C50.1 80.4721 50.1593 80.7101 50.2318 80.7101C50.3043 80.7101 50.3636 80.8887 50.3636 81.1069C50.3636 81.3251 50.423 81.5036 50.4955 81.5036C50.568 81.5036 50.6273 81.6226 50.6273 81.7681C50.6273 81.9136 50.6866 82.0326 50.7591 82.0326C50.8316 82.0326 50.8909 82.1516 50.8909 82.2971C50.8909 82.4426 50.9502 82.5616 51.0227 82.5616C51.0952 82.5616 51.1545 82.6522 51.1545 82.7629C51.1545 83.0079 52.5303 84.413 52.7704 84.413C52.8646 84.413 53.0273 84.5321 53.1318 84.6775C53.2363 84.823 53.4274 84.942 53.5564 84.942C53.6853 84.942 53.7909 85.0015 53.7909 85.0743C53.7909 85.147 53.9689 85.2065 54.1864 85.2065C54.4039 85.2065 54.5818 85.266 54.5818 85.3388C54.5818 85.4115 54.7598 85.471 54.9773 85.471C55.1948 85.471 55.3727 85.5305 55.3727 85.6033C55.3727 85.676 55.6693 85.7355 56.0318 85.7355C56.3943 85.7355 56.6909 85.795 56.6909 85.8677C56.6909 85.9532 58.2288 86 61.0409 86C63.853 86 65.3909 85.9532 65.3909 85.8677C65.3909 85.795 65.6875 85.7355 66.05 85.7355C66.4125 85.7355 66.7091 85.676 66.7091 85.6033C66.7091 85.5305 66.887 85.471 67.1045 85.471C67.322 85.471 67.5 85.4115 67.5 85.3388C67.5 85.266 67.678 85.2065 67.8955 85.2065C68.113 85.2065 68.2909 85.147 68.2909 85.0743C68.2909 85.0015 68.3965 84.942 68.5254 84.942C68.6545 84.942 68.8455 84.823 68.95 84.6775C69.0545 84.5321 69.2175 84.413 69.3121 84.413C69.5361 84.413 70.6636 83.2818 70.6636 83.0571C70.6636 82.9622 70.7823 82.7987 70.9273 82.6938C71.0723 82.589 71.1909 82.3973 71.1909 82.2679C71.1909 82.1385 71.2502 82.0326 71.3227 82.0326C71.3952 82.0326 71.4545 81.9136 71.4545 81.7681C71.4545 81.6226 71.5139 81.5036 71.5864 81.5036C71.6589 81.5036 71.7182 81.3251 71.7182 81.1069C71.7182 80.8887 71.7775 80.7101 71.85 80.7101C71.9225 80.7101 71.9818 80.4721 71.9818 80.1812C71.9818 79.8902 72.0411 79.6522 72.1136 79.6522C72.2004 79.6522 72.2455 76.1256 72.2455 69.3369C72.2455 62.5483 72.2004 59.0217 72.1136 59.0217C72.0411 59.0217 71.9818 58.7837 71.9818 58.4927C71.9818 58.2018 71.9225 57.9638 71.85 57.9638C71.7775 57.9638 71.7182 57.7852 71.7182 57.567C71.7182 57.3488 71.6589 57.1703 71.5864 57.1703C71.5139 57.1703 71.4545 57.0513 71.4545 56.9058C71.4545 56.7603 71.3952 56.6413 71.3227 56.6413C71.2502 56.6413 71.1909 56.5354 71.1909 56.406C71.1909 56.2766 71.0723 56.0849 70.9273 55.9801C70.7823 55.8752 70.6636 55.7117 70.6636 55.6168C70.6636 55.3921 69.5361 54.2609 69.3121 54.2609C69.2175 54.2609 69.0545 54.1418 68.95 53.9964C68.8455 53.8509 68.6545 53.7319 68.5254 53.7319C68.3965 53.7319 68.2909 53.6724 68.2909 53.5996C68.2909 53.5269 68.1723 53.4674 68.0273 53.4674C67.8823 53.4674 67.7636 53.4079 67.7636 53.3351C67.7636 53.2624 67.5264 53.2029 67.2364 53.2029C66.9464 53.2029 66.7091 53.1434 66.7091 53.0706C66.7091 52.9979 66.4125 52.9384 66.05 52.9384C65.6875 52.9384 65.3909 52.8789 65.3909 52.8062C65.3909 52.7207 63.853 52.6739 61.0409 52.6739C58.2288 52.6739 56.6909 52.7207 56.6909 52.8062ZM78.8693 53.0078L78.5727 53.3257V69.3383V85.3508L78.8963 85.6753C79.2177 85.9979 79.2366 86 81.7963 86C83.426 86 84.3727 85.9515 84.3727 85.8677C84.3727 85.795 84.4914 85.7355 84.6364 85.7355C84.8959 85.7355 84.9 85.6473 84.9 80.0489C84.9 76.346 84.946 74.3623 85.0318 74.3623C85.1043 74.3623 85.1636 74.2433 85.1636 74.0978C85.1636 73.9254 85.2516 73.8333 85.4163 73.8333C85.5553 73.8333 85.7036 73.759 85.7459 73.668C85.8073 73.5358 85.8381 73.5358 85.8996 73.668C85.9545 73.7862 86.4083 73.8333 87.4909 73.8333C89.054 73.8333 89.3818 73.9349 89.3818 74.419C89.3818 74.5333 89.4411 74.6268 89.5136 74.6268C89.5861 74.6268 89.6455 74.8053 89.6455 75.0235C89.6455 75.2417 89.7048 75.4203 89.7773 75.4203C89.8498 75.4203 89.9091 75.5393 89.9091 75.6848C89.9091 75.8302 89.9684 75.9493 90.0409 75.9493C90.1134 75.9493 90.1727 76.0683 90.1727 76.2138C90.1727 76.3592 90.232 76.4783 90.3045 76.4783C90.377 76.4783 90.4364 76.5973 90.4364 76.7427C90.4364 76.8882 90.4957 77.0072 90.5682 77.0072C90.6407 77.0072 90.7 77.1263 90.7 77.2717C90.7 77.4172 90.7593 77.5362 90.8318 77.5362C90.9043 77.5362 90.9636 77.6552 90.9636 77.8007C90.9636 77.9462 91.023 78.0652 91.0955 78.0652C91.168 78.0652 91.2273 78.2437 91.2273 78.4619C91.2273 78.6802 91.2866 78.8587 91.3591 78.8587C91.4316 78.8587 91.4909 78.9777 91.4909 79.1232C91.4909 79.2687 91.5502 79.3877 91.6227 79.3877C91.6952 79.3877 91.7545 79.5067 91.7545 79.6522C91.7545 79.7976 91.8139 79.9167 91.8864 79.9167C91.9589 79.9167 92.0182 80.0357 92.0182 80.1812C92.0182 80.3266 92.0775 80.4456 92.15 80.4456C92.2225 80.4456 92.2818 80.5647 92.2818 80.7101C92.2818 80.8556 92.3411 80.9746 92.4136 80.9746C92.4861 80.9746 92.5455 81.0937 92.5455 81.2391C92.5455 81.3846 92.6048 81.5036 92.6773 81.5036C92.7498 81.5036 92.8091 81.6821 92.8091 81.9004C92.8091 82.1186 92.8684 82.2971 92.9409 82.2971C93.0134 82.2971 93.0727 82.4161 93.0727 82.5616C93.0727 82.7071 93.132 82.8261 93.2045 82.8261C93.277 82.8261 93.3364 82.9451 93.3364 83.0906C93.3364 83.236 93.3957 83.3551 93.4682 83.3551C93.5407 83.3551 93.6 83.4741 93.6 83.6196C93.6 83.765 93.6593 83.884 93.7318 83.884C93.8043 83.884 93.8636 84.0031 93.8636 84.1485C93.8636 84.294 93.923 84.413 93.9955 84.413C94.068 84.413 94.1273 84.5321 94.1273 84.6775C94.1273 84.823 94.1866 84.942 94.2591 84.942C94.3316 84.942 94.3909 85.0355 94.3909 85.1498C94.3909 85.417 94.7083 85.7355 94.9747 85.7355C95.0886 85.7355 95.1818 85.795 95.1818 85.8677C95.1818 85.9517 96.1925 86 97.95 86C99.7075 86 100.718 85.9517 100.718 85.8677C100.718 85.795 100.837 85.7355 100.982 85.7355C101.202 85.7355 101.245 85.6473 101.245 85.2065C101.245 84.9156 101.186 84.6775 101.114 84.6775C101.041 84.6775 100.982 84.5585 100.982 84.413C100.982 84.2676 100.922 84.1485 100.85 84.1485C100.777 84.1485 100.718 84.0295 100.718 83.884C100.718 83.7386 100.659 83.6196 100.586 83.6196C100.514 83.6196 100.455 83.5005 100.455 83.3551C100.455 83.2096 100.395 83.0906 100.323 83.0906C100.25 83.0906 100.191 82.9715 100.191 82.8261C100.191 82.6806 100.132 82.5616 100.059 82.5616C99.9866 82.5616 99.9273 82.4426 99.9273 82.2971C99.9273 82.1516 99.868 82.0326 99.7955 82.0326C99.723 82.0326 99.6636 81.9136 99.6636 81.7681C99.6636 81.6226 99.6043 81.5036 99.5318 81.5036C99.4593 81.5036 99.4 81.3251 99.4 81.1069C99.4 80.8887 99.3407 80.7101 99.2682 80.7101C99.1957 80.7101 99.1364 80.5911 99.1364 80.4456C99.1364 80.3002 99.077 80.1812 99.0045 80.1812C98.932 80.1812 98.8727 80.0621 98.8727 79.9167C98.8727 79.7712 98.8134 79.6522 98.7409 79.6522C98.6684 79.6522 98.6091 79.5331 98.6091 79.3877C98.6091 79.2422 98.5498 79.1232 98.4773 79.1232C98.4048 79.1232 98.3455 79.0042 98.3455 78.8587C98.3455 78.7132 98.2861 78.5942 98.2136 78.5942C98.1411 78.5942 98.0818 78.4752 98.0818 78.3297C98.0818 78.1842 98.0225 78.0652 97.95 78.0652C97.8775 78.0652 97.8182 77.9462 97.8182 77.8007C97.8182 77.6552 97.7589 77.5362 97.6864 77.5362C97.6139 77.5362 97.5545 77.3577 97.5545 77.1395C97.5545 76.9213 97.4952 76.7427 97.4227 76.7427C97.3502 76.7427 97.2909 76.6237 97.2909 76.4783C97.2909 76.3328 97.2316 76.2138 97.1591 76.2138C97.0866 76.2138 97.0273 76.0947 97.0273 75.9493C97.0273 75.8038 96.968 75.6848 96.8955 75.6848C96.823 75.6848 96.7636 75.5658 96.7636 75.4203C96.7636 75.2748 96.7043 75.1558 96.6318 75.1558C96.5593 75.1558 96.5 75.0368 96.5 74.8913C96.5 74.7458 96.4407 74.6268 96.3682 74.6268C96.2957 74.6268 96.2364 74.5078 96.2364 74.3623C96.2364 74.2168 96.177 74.0978 96.1045 74.0978C96.032 74.0978 95.9727 73.9788 95.9727 73.8333C95.9727 73.6879 95.9134 73.5688 95.8409 73.5688C95.7684 73.5688 95.7091 73.3903 95.7091 73.1721C95.7091 72.8636 95.7676 72.7754 95.9727 72.7754C96.1177 72.7754 96.2364 72.7158 96.2364 72.6431C96.2364 72.5704 96.355 72.5109 96.5 72.5109C96.645 72.5109 96.7636 72.4514 96.7636 72.3786C96.7636 72.3059 96.8537 72.2464 96.9639 72.2464C97.2245 72.2464 98.8727 70.5928 98.8727 70.3313C98.8727 70.2208 98.932 70.1304 99.0045 70.1304C99.077 70.1304 99.1364 70.0114 99.1364 69.8659C99.1364 69.7205 99.1957 69.6014 99.2682 69.6014C99.3407 69.6014 99.4 69.4824 99.4 69.3369C99.4 69.1915 99.4593 69.0725 99.5318 69.0725C99.6043 69.0725 99.6636 68.8939 99.6636 68.6757C99.6636 68.4575 99.723 68.279 99.7955 68.279C99.868 68.279 99.9273 67.9814 99.9273 67.6177C99.9273 67.2541 99.9866 66.9565 100.059 66.9565C100.144 66.9565 100.191 65.59 100.191 63.1214C100.191 60.6527 100.144 59.2862 100.059 59.2862C99.9866 59.2862 99.9273 59.0482 99.9273 58.7572C99.9273 58.4663 99.868 58.2283 99.7955 58.2283C99.723 58.2283 99.6636 58.0497 99.6636 57.8315C99.6636 57.6133 99.6043 57.4348 99.5318 57.4348C99.4593 57.4348 99.4 57.3158 99.4 57.1703C99.4 57.0248 99.3407 56.9058 99.2682 56.9058C99.1957 56.9058 99.1364 56.7868 99.1364 56.6413C99.1364 56.4958 99.077 56.3768 99.0045 56.3768C98.932 56.3768 98.8727 56.2866 98.8727 56.1763C98.8727 55.915 96.9603 53.9964 96.6998 53.9964C96.5899 53.9964 96.5 53.9369 96.5 53.8641C96.5 53.7914 96.3814 53.7319 96.2364 53.7319C96.0914 53.7319 95.9727 53.6724 95.9727 53.5996C95.9727 53.5269 95.8541 53.4674 95.7091 53.4674C95.5641 53.4674 95.4455 53.4079 95.4455 53.3351C95.4455 53.2624 95.2675 53.2029 95.05 53.2029C94.8325 53.2029 94.6545 53.1434 94.6545 53.0706C94.6545 52.9979 94.358 52.9384 93.9955 52.9384C93.633 52.9384 93.3364 52.8789 93.3364 52.8062C93.3364 52.7195 90.8921 52.6767 86.2511 52.682L79.1659 52.69L78.8693 53.0078ZM112.845 52.8062C112.845 52.8789 112.608 52.9384 112.318 52.9384C112.028 52.9384 111.791 52.9979 111.791 53.0706C111.791 53.1434 111.554 53.2029 111.264 53.2029C110.974 53.2029 110.736 53.2624 110.736 53.3351C110.736 53.4079 110.618 53.4674 110.473 53.4674C110.328 53.4674 110.209 53.5269 110.209 53.5996C110.209 53.6724 110.09 53.7319 109.945 53.7319C109.8 53.7319 109.682 53.7914 109.682 53.8641C109.682 53.9369 109.587 53.9964 109.471 53.9964C109.355 53.9964 109.094 54.1749 108.891 54.3931C108.688 54.6113 108.427 54.7898 108.311 54.7898C108.195 54.7898 108.1 54.8849 108.1 55.0013C108.1 55.1176 107.922 55.3795 107.705 55.5833C107.487 55.7871 107.309 56.0491 107.309 56.1653C107.309 56.2817 107.25 56.3768 107.177 56.3768C107.105 56.3768 107.045 56.4958 107.045 56.6413C107.045 56.7868 106.986 56.9058 106.914 56.9058C106.841 56.9058 106.782 57.0248 106.782 57.1703C106.782 57.3158 106.722 57.4348 106.65 57.4348C106.577 57.4348 106.518 57.6133 106.518 57.8315C106.518 58.0497 106.459 58.2283 106.386 58.2283C106.313 58.2283 106.255 58.581 106.255 59.0217C106.255 59.4625 106.196 59.8152 106.123 59.8152C106.036 59.8152 105.991 63.0773 105.991 69.3369C105.991 75.5966 106.036 78.8587 106.123 78.8587C106.196 78.8587 106.255 79.2114 106.255 79.6522C106.255 80.0929 106.313 80.4456 106.386 80.4456C106.459 80.4456 106.518 80.6242 106.518 80.8424C106.518 81.0606 106.577 81.2391 106.65 81.2391C106.722 81.2391 106.782 81.4046 106.782 81.6066C106.782 81.8225 106.891 82.0528 107.045 82.1648C107.19 82.2697 107.309 82.4483 107.309 82.5616C107.309 82.6749 107.428 82.8535 107.573 82.9583C107.718 83.0632 107.836 83.2293 107.836 83.3276C107.836 83.5471 108.158 83.884 108.367 83.884C108.452 83.884 108.688 84.0626 108.891 84.2808C109.094 84.499 109.355 84.6775 109.471 84.6775C109.587 84.6775 109.682 84.737 109.682 84.8098C109.682 84.8825 109.8 84.942 109.945 84.942C110.09 84.942 110.209 85.0015 110.209 85.0743C110.209 85.147 110.328 85.2065 110.473 85.2065C110.618 85.2065 110.736 85.266 110.736 85.3388C110.736 85.4115 110.914 85.471 111.132 85.471C111.349 85.471 111.527 85.5305 111.527 85.6033C111.527 85.6768 111.879 85.7355 112.318 85.7355C112.758 85.7355 113.109 85.7942 113.109 85.8677C113.109 85.953 114.559 86 117.195 86C119.832 86 121.282 85.953 121.282 85.8677C121.282 85.7942 121.633 85.7355 122.073 85.7355C122.512 85.7355 122.864 85.6768 122.864 85.6033C122.864 85.5305 123.042 85.471 123.259 85.471C123.477 85.471 123.655 85.4115 123.655 85.3388C123.655 85.266 123.773 85.2065 123.918 85.2065C124.063 85.2065 124.182 85.147 124.182 85.0743C124.182 85.0015 124.3 84.942 124.445 84.942C124.59 84.942 124.709 84.8825 124.709 84.8098C124.709 84.737 124.804 84.6775 124.92 84.6775C125.036 84.6775 125.297 84.499 125.5 84.2808C125.703 84.0626 125.939 83.884 126.024 83.884C126.223 83.884 126.555 83.5512 126.555 83.3515C126.555 83.2663 126.732 83.0299 126.95 82.8261C127.167 82.6223 127.345 82.3603 127.345 82.2441C127.345 82.1277 127.405 82.0326 127.477 82.0326C127.55 82.0326 127.609 81.9136 127.609 81.7681C127.609 81.6226 127.668 81.5036 127.741 81.5036C127.813 81.5036 127.873 81.3251 127.873 81.1069C127.873 80.8887 127.932 80.7101 128.005 80.7101C128.077 80.7101 128.136 80.4126 128.136 80.0489C128.136 79.6852 128.196 79.3877 128.268 79.3877C128.351 79.3877 128.4 78.4809 128.4 76.9317C128.4 74.2699 128.356 74.0978 127.684 74.0978C127.498 74.0978 127.345 74.0383 127.345 73.9656C127.345 73.8827 126.511 73.8333 125.105 73.8333C123.698 73.8333 122.864 73.8827 122.864 73.9656C122.864 74.0383 122.77 74.0978 122.657 74.0978C122.165 74.0978 122.073 74.4198 122.073 76.1382C122.073 77.1584 122.022 77.8007 121.941 77.8007C121.868 77.8007 121.809 78.0388 121.809 78.3297C121.809 78.6206 121.75 78.8587 121.677 78.8587C121.605 78.8587 121.545 78.9506 121.545 79.063C121.545 79.3276 120.958 79.9167 120.695 79.9167C120.583 79.9167 120.491 79.9762 120.491 80.0489C120.491 80.1335 119.305 80.1812 117.195 80.1812C115.086 80.1812 113.9 80.1335 113.9 80.0489C113.9 79.9762 113.808 79.9167 113.696 79.9167C113.376 79.9167 112.845 79.302 112.845 78.9308C112.845 78.7456 112.786 78.5942 112.714 78.5942C112.627 78.5942 112.582 75.3762 112.582 69.2047C112.582 63.0332 112.627 59.8152 112.714 59.8152C112.786 59.8152 112.845 59.7233 112.845 59.6109C112.845 59.3463 113.433 58.7572 113.696 58.7572C113.808 58.7572 113.9 58.6977 113.9 58.625C113.9 58.5404 115.086 58.4927 117.195 58.4927C119.305 58.4927 120.491 58.5404 120.491 58.625C120.491 58.6977 120.583 58.7572 120.695 58.7572C120.958 58.7572 121.545 59.3463 121.545 59.6109C121.545 59.7233 121.605 59.8152 121.677 59.8152C121.75 59.8152 121.809 60.1128 121.809 60.4764C121.809 60.8401 121.868 61.1377 121.941 61.1377C122.021 61.1377 122.073 61.736 122.073 62.6679C122.073 64.2477 122.173 64.5761 122.657 64.5761C122.77 64.5761 122.864 64.6356 122.864 64.7083C122.864 64.7916 123.742 64.8406 125.236 64.8406C126.73 64.8406 127.609 64.7916 127.609 64.7083C127.609 64.6356 127.702 64.5761 127.816 64.5761C128.338 64.5761 128.4 64.289 128.4 61.8744C128.4 60.4135 128.351 59.5507 128.268 59.5507C128.196 59.5507 128.136 59.2532 128.136 58.8895C128.136 58.5258 128.077 58.2283 128.005 58.2283C127.932 58.2283 127.873 58.0497 127.873 57.8315C127.873 57.6133 127.813 57.4348 127.741 57.4348C127.668 57.4348 127.609 57.2562 127.609 57.038C127.609 56.8198 127.55 56.6413 127.477 56.6413C127.405 56.6413 127.345 56.5462 127.345 56.4298C127.345 56.3136 127.167 56.0516 126.95 55.8478C126.732 55.644 126.555 55.4076 126.555 55.3224C126.555 55.1227 126.223 54.7898 126.024 54.7898C125.939 54.7898 125.703 54.6113 125.5 54.3931C125.297 54.1749 125.036 53.9964 124.92 53.9964C124.804 53.9964 124.709 53.9369 124.709 53.8641C124.709 53.7914 124.59 53.7319 124.445 53.7319C124.3 53.7319 124.182 53.6724 124.182 53.5996C124.182 53.5269 124.063 53.4674 123.918 53.4674C123.773 53.4674 123.655 53.4079 123.655 53.3351C123.655 53.2624 123.477 53.2029 123.259 53.2029C123.042 53.2029 122.864 53.1434 122.864 53.0706C122.864 52.9979 122.567 52.9384 122.205 52.9384C121.842 52.9384 121.545 52.8789 121.545 52.8062C121.545 52.7207 120.008 52.6739 117.195 52.6739C114.383 52.6739 112.845 52.7207 112.845 52.8062ZM134.497 53.0078L134.2 53.3257V69.3383V85.3508L134.524 85.6753L134.847 86H143.563C152.785 86 152.655 86.0083 152.655 85.4143C152.655 85.3 152.714 85.2065 152.786 85.2065C152.869 85.2065 152.918 84.413 152.918 83.0906C152.918 81.7681 152.869 80.9746 152.786 80.9746C152.714 80.9746 152.655 80.8556 152.655 80.7101C152.655 80.5339 152.567 80.4456 152.391 80.4456C152.246 80.4456 152.127 80.3861 152.127 80.3134C152.127 80.2273 150.169 80.1812 146.516 80.1812C141.828 80.1812 140.873 80.1501 140.716 79.9922C140.437 79.7126 140.437 72.4504 140.716 72.1709C140.872 72.0141 141.705 71.9819 145.593 71.9819C148.631 71.9819 150.282 71.9353 150.282 71.8496C150.282 71.7769 150.4 71.7174 150.545 71.7174C150.721 71.7174 150.809 71.6292 150.809 71.4529C150.809 71.3074 150.868 71.1884 150.941 71.1884C151.023 71.1884 151.073 70.3949 151.073 69.0725C151.073 67.75 151.023 66.9565 150.941 66.9565C150.868 66.9565 150.809 66.8375 150.809 66.692C150.809 66.5157 150.721 66.4275 150.545 66.4275C150.4 66.4275 150.282 66.368 150.282 66.2953C150.282 66.2096 148.631 66.163 145.593 66.163C141.705 66.163 140.872 66.1308 140.716 65.9741C140.437 65.695 140.437 58.9608 140.716 58.6817C140.873 58.5238 141.838 58.4927 146.591 58.4927C152.581 58.4927 152.655 58.4856 152.655 57.907C152.655 57.7928 152.714 57.6993 152.786 57.6993C152.869 57.6993 152.918 56.9058 152.918 55.5833C152.918 54.2609 152.869 53.4674 152.786 53.4674C152.714 53.4674 152.655 53.3739 152.655 53.2596C152.655 52.6649 152.789 52.6734 143.535 52.682L134.793 52.69L134.497 53.0078ZM189.827 58.096C189.827 58.1687 189.946 58.2283 190.091 58.2283C190.236 58.2283 190.355 58.2878 190.355 58.3605C190.355 58.4332 190.473 58.4927 190.618 58.4927C190.794 58.4927 190.882 58.581 190.882 58.7572C190.882 58.9027 190.941 59.0217 191.014 59.0217C191.086 59.0217 191.145 59.1408 191.145 59.2862C191.145 59.4317 191.205 59.5507 191.277 59.5507C191.362 59.5507 191.409 61.0054 191.409 63.6504V67.75H187.718C185.345 67.75 184.027 67.7028 184.027 67.6177C184.027 67.545 183.936 67.4855 183.824 67.4855C183.56 67.4855 182.973 66.8965 182.973 66.6319C182.973 66.5194 182.913 66.4275 182.841 66.4275C182.768 66.4275 182.709 66.1895 182.709 65.8985C182.709 65.6076 182.65 65.3696 182.577 65.3696C182.494 65.3696 182.445 64.3998 182.445 62.7246C182.445 61.0495 182.494 60.0797 182.577 60.0797C182.65 60.0797 182.709 59.9012 182.709 59.683C182.709 59.4648 182.768 59.2862 182.841 59.2862C182.913 59.2862 182.973 59.1943 182.973 59.0819C182.973 58.6992 183.588 58.2283 184.087 58.2283C184.344 58.2283 184.555 58.1687 184.555 58.096C184.555 58.0123 185.521 57.9638 187.191 57.9638C188.861 57.9638 189.827 58.0123 189.827 58.096ZM87.5364 58.3605C87.5364 58.4332 87.655 58.4927 87.8 58.4927C87.945 58.4927 88.0636 58.4332 88.0636 58.3605C88.0636 58.285 88.4591 58.2283 88.9864 58.2283C89.5136 58.2283 89.9091 58.285 89.9091 58.3605C89.9091 58.5525 90.6639 58.523 90.755 58.3274C90.8164 58.1952 90.8472 58.1952 90.9087 58.3274C90.9549 58.4268 91.2441 58.4927 91.6337 58.4927C91.9902 58.4927 92.2818 58.5523 92.2818 58.625C92.2818 58.6977 92.3734 58.7572 92.4855 58.7572C92.7492 58.7572 93.3364 59.3463 93.3364 59.6109C93.3364 59.7233 93.3957 59.8152 93.4682 59.8152C93.5407 59.8152 93.6 59.9937 93.6 60.212C93.6 60.4302 93.6593 60.6087 93.7318 60.6087C93.8157 60.6087 93.8636 61.6667 93.8636 63.5181C93.8636 65.3696 93.8157 66.4275 93.7318 66.4275C93.6593 66.4275 93.6 66.593 93.6 66.795C93.6 67.0109 93.4911 67.2412 93.3364 67.3533C93.1914 67.4581 93.0727 67.6498 93.0727 67.7792C93.0727 67.9263 92.974 68.0145 92.8091 68.0145C92.6641 68.0145 92.5455 68.074 92.5455 68.1467C92.5455 68.2195 92.3675 68.279 92.15 68.279C91.9325 68.279 91.7545 68.3385 91.7545 68.4112C91.7545 68.4959 90.587 68.5435 88.5156 68.5435C85.8843 68.5435 85.2413 68.508 85.0884 68.3545C84.8084 68.0737 84.8084 58.9625 85.0884 58.6817C85.2065 58.5631 85.5503 58.4927 86.0111 58.4927C86.415 58.4927 86.7455 58.4332 86.7455 58.3605C86.7455 58.2878 86.9234 58.2283 87.1409 58.2283C87.3584 58.2283 87.5364 58.2878 87.5364 58.3605ZM63.8091 58.625C63.8091 58.6977 63.9277 58.7572 64.0727 58.7572C64.2177 58.7572 64.3364 58.8168 64.3364 58.8895C64.3364 58.9622 64.428 59.0217 64.54 59.0217C64.7984 59.0217 65.3909 59.6085 65.3909 59.8643C65.3909 59.9706 65.4651 60.0879 65.5557 60.1248C65.6801 60.1753 65.6721 60.2291 65.5227 60.3442C65.3734 60.4593 65.3653 60.5131 65.4898 60.5636C65.7016 60.65 65.7344 78.5942 65.5227 78.5942C65.4502 78.5942 65.3909 78.6854 65.3909 78.7969C65.3909 78.9085 65.1853 79.2061 64.9339 79.4582C64.585 79.8083 64.3669 79.9167 64.0112 79.9167C63.755 79.9167 63.5455 79.9762 63.5455 80.0489C63.5455 80.1325 62.6227 80.1812 61.0409 80.1812C59.4591 80.1812 58.5364 80.1325 58.5364 80.0489C58.5364 79.9762 58.3584 79.9167 58.1409 79.9167C57.9234 79.9167 57.7455 79.8571 57.7455 79.7844C57.7455 79.7117 57.5675 79.6522 57.35 79.6522C57.0054 79.6522 56.9545 79.6048 56.9545 79.2847C56.9545 79.0688 56.8457 78.8385 56.6909 78.7264C56.4316 78.5389 56.4273 78.3841 56.4273 69.3077C56.4273 63.2438 56.4725 60.0797 56.5591 60.0797C56.6316 60.0797 56.6909 59.9607 56.6909 59.8152C56.6909 59.6697 56.7502 59.5507 56.8227 59.5507C56.8952 59.5507 56.9545 59.4317 56.9545 59.2862C56.9545 59.1099 57.0425 59.0217 57.2182 59.0217C57.3632 59.0217 57.4818 58.9622 57.4818 58.8895C57.4818 58.8168 57.6598 58.7572 57.8773 58.7572C58.0948 58.7572 58.2727 58.6977 58.2727 58.625C58.2727 58.541 59.2834 58.4927 61.0409 58.4927C62.7984 58.4927 63.8091 58.541 63.8091 58.625Z" fill="#170710"/>
</svg>
